<?xml version="1.0" standalone="no"?>
<!DOCTYPE svg PUBLIC "-//W3C//DTD SVG 1.1//EN" "http://www.w3.org/Graphics/SVG/1.1/DTD/svg11.dtd" >
<svg xmlns="http://www.w3.org/2000/svg" xmlns:xlink="http://www.w3.org/1999/xlink" version="1.1">
<metadata>
Created by FontForge 20141024 at Fri Mar 13 05:52:20 2015
 By System Administrator
This template made from Naipoltemplate 3.01
</metadata>
<defs>
<font id="Quark-Bold" horiz-adv-x="0" >
  <font-face 
    font-family="Quark"
    font-weight="700"
    font-stretch="normal"
    units-per-em="1000"
    panose-1="2 0 0 0 0 0 0 0 0 0"
    ascent="750"
    descent="-250"
    x-height="500"
    cap-height="710"
    bbox="-485 -420 1049 927"
    underline-thickness="35"
    underline-position="-74"
    unicode-range="U+0020-F882"
  />
<missing-glyph horiz-adv-x="524" 
d="M464 0h-404v518l17 82h387v-600zM110 555v-510h304v510h-304z" />
    <glyph glyph-name="quotedblleft" unicode="&#x2018;&#x2018;" horiz-adv-x="386" 
d="M14 480l82 230h100l-55 -230h-127zM189 480l82 230h100l-55 -230h-127z" />
    <glyph glyph-name="quotedblright" unicode="&#x2019;&#x2019;" horiz-adv-x="386" 
d="M371 710l-82 -230h-100l55 230h127zM196 710l-82 -230h-100l55 230h127z" />
    <glyph glyph-name="rulakkhangyao" unicode="&#xe24;&#xe32;" horiz-adv-x="714" 
d="M674 -200h-100v534c0 57 -41 78 -90 78c-19 0 -40 -3 -60 -9c7 -19 11 -41 11 -66v-537h-100v531c0 61 -43 81 -96 81c-36 0 -75 -9 -109 -20l10 -75v-178c0 -34 13 -44 42 -44h52v-95h-62c-88 0 -132 42 -132 133v199l-21 111c61 29 136 64 220 64c49 0 96 -10 132 -35
c39 23 86 35 131 35c89 0 172 -49 172 -167v-540z" />
    <glyph glyph-name="lulakkhangyao" unicode="&#xe26;&#xe32;" horiz-adv-x="734" 
d="M60 119v213l-21 111c61 29 136 64 220 64c49 0 96 -10 132 -35c39 23 86 35 131 35c89 0 172 -49 172 -167v-540h-100v534c0 57 -41 78 -90 78c-19 0 -40 -3 -60 -9c7 -19 11 -41 11 -66v-537h-100v531c0 61 -43 81 -96 81c-36 0 -75 -9 -109 -20l10 -75v-220
c0 -67 -27 -97 -90 -97h-56v95h22c16 0 24 7 24 24z" />
    <glyph glyph-name="copyright2" unicode="&#x3b;&#x3b;For&#x20;Education&#x20;Used&#x20;Only&#x3b;&#x3b;" horiz-adv-x="824" 
d="M543 258l12 -98c-46 -26 -97 -39 -146 -39c-115 0 -206 68 -206 217v25c1 163 97 230 209 230c44 0 91 -10 135 -29l-10 -94c-41 17 -82 28 -120 28c-64 0 -114 -34 -114 -135v-25c0 -87 48 -122 109 -122c41 0 88 15 131 42zM413 -7c-200 0 -363 163 -363 363
c0 198 163 361 363 361c198 0 361 -163 361 -361c0 -200 -163 -363 -361 -363zM413 74c154 0 278 126 278 282c0 154 -124 278 -278 278c-156 0 -282 -124 -282 -278c0 -156 126 -282 282 -282z" />
    <glyph glyph-name="registered2" unicode="&#x3b;&#x3b;Registered&#x3b;&#x3b;" horiz-adv-x="543" 
d="M242 564v-62h37c27 0 38 15 38 31c0 15 -11 31 -38 31h-37zM324 343l-33 90c-5 14 -13 17 -28 17h-21v-107h-55v273h92c58 0 93 -30 93 -75c0 -27 -10 -47 -41 -63c9 -13 13 -22 19 -39l36 -96h-62zM92 476c0 -98 81 -179 179 -179s179 81 179 179s-81 179 -179 179
s-179 -81 -179 -179zM31 476c0 133 108 241 241 241s241 -108 241 -241s-108 -241 -241 -241s-241 108 -241 241z" />
    <glyph glyph-name="trademark2" unicode="&#x3b;&#x3b;Trademark&#x3b;&#x3b;" horiz-adv-x="561" 
d="M419 473h-56l-37 115v-115h-70v237h86l49 -136l49 136h86v-237h-70v115zM26 645v65h206v-65h-68v-172h-70v172h-68z" />
    <glyph glyph-name="multiply2" unicode="&#x3b;&#x3b;Multiply&#x3b;&#x3b;" horiz-adv-x="419" 
d="M11 76l137 172l-137 173h121l77 -97l77 97h121l-138 -173l138 -172h-121l-77 96l-77 -96h-121z" />
    <glyph glyph-name="divide2" unicode="&#x3b;&#x3b;Divide&#x3b;&#x3b;" horiz-adv-x="419" 
d="M34 297h350v-95h-350v95zM149 396c0 33 27 60 60 60s60 -27 60 -60s-27 -60 -60 -60s-60 27 -60 60zM149 103c0 33 27 60 60 60s60 -27 60 -60s-27 -60 -60 -60s-60 27 -60 60z" />
    <glyph glyph-name=".notdef" horiz-adv-x="524" 
d="M464 0h-404v518l17 82h387v-600zM110 555v-510h304v510h-304z" />
    <glyph glyph-name="space" unicode=" " horiz-adv-x="310" 
 />
    <glyph glyph-name="exclam" unicode="!" horiz-adv-x="208" 
d="M159 710l-7 -520h-96l-7 520h110zM34 63c0 39 31 70 70 70s70 -31 70 -70s-31 -70 -70 -70s-70 31 -70 70z" />
    <glyph glyph-name="quotedbl" unicode="&#x22;" horiz-adv-x="339" 
d="M143 710l-7 -260h-96l-7 260h110zM300 710l-7 -260h-96l-7 260h110z" />
    <glyph glyph-name="numbersign" unicode="#" horiz-adv-x="716" 
d="M385 0l23 184h-154l-24 -184h-98l23 184h-130v97h143l19 148h-142v97h154l24 184h99l-24 -184h154l24 184h99l-24 -184h138v-97h-151l-19 -148h150v-97h-162l-24 -184h-98zM285 429l-19 -148h155l19 148h-155z" />
    <glyph glyph-name="dollar" unicode="$" horiz-adv-x="504" 
d="M469 170c0 -114 -72 -162 -161 -174v-96h-100v96c-64 7 -126 26 -175 46l13 102c42 -21 101 -44 162 -53v193c-84 31 -170 73 -170 188s76 160 170 171v90h100v-90c54 -5 108 -18 153 -33l-17 -95c-41 14 -88 27 -136 33v-201c81 -30 161 -70 161 -177zM138 474
c0 -44 29 -70 70 -89v161c-41 -8 -70 -30 -70 -72zM369 170c0 36 -25 58 -61 75v-152c36 10 61 34 61 77z" />
    <glyph glyph-name="percent" unicode="%" horiz-adv-x="739" 
d="M720 710l-563 -710h-124l563 710h124zM43 569c0 82 66 148 148 148s148 -66 148 -148s-66 -148 -148 -148s-148 66 -148 148zM139 569c0 -29 23 -52 52 -52c30 0 53 23 53 52c0 30 -23 53 -53 53c-29 0 -52 -23 -52 -53zM414 141c0 82 66 148 148 148s148 -66 148 -148
s-66 -148 -148 -148s-148 66 -148 148zM510 141c0 -29 23 -52 52 -52c30 0 53 23 53 52c0 30 -23 53 -53 53c-29 0 -52 -23 -52 -53z" />
    <glyph glyph-name="ampersand" unicode="&#x26;" horiz-adv-x="585" 
d="M181 538c0 -113 87 -267 223 -367c16 27 25 61 25 103c0 16 -1 34 -4 53h-104v95h272v-95h-69c3 -19 5 -38 5 -57c0 -56 -15 -107 -41 -150c27 -13 56 -24 86 -32l-34 -95c-42 12 -84 30 -124 52c-47 -33 -106 -52 -175 -52c-114 0 -219 64 -219 195c0 58 32 119 99 175
c-25 57 -39 116 -39 175c0 123 87 179 174 179c89 0 179 -59 179 -179v-16h-99c0 71 -39 100 -80 100c-40 0 -75 -26 -75 -84zM240 88c30 0 60 5 87 17c-62 48 -117 107 -159 172c-31 -31 -46 -63 -46 -90c0 -66 55 -99 118 -99z" />
    <glyph glyph-name="quotesingle" unicode="'" horiz-adv-x="179" 
d="M143 710l-7 -260h-96l-7 260h110z" />
    <glyph glyph-name="parenleft" unicode="(" horiz-adv-x="245" 
d="M30 305c0 126 32 275 95 405h100c-63 -130 -95 -279 -95 -405s32 -275 95 -405h-100c-63 130 -95 279 -95 405z" />
    <glyph glyph-name="parenright" unicode=")" horiz-adv-x="245" 
d="M220 305c0 -126 -32 -275 -95 -405h-100c63 130 95 279 95 405s-32 275 -95 405h100c63 -130 95 -279 95 -405z" />
    <glyph glyph-name="asterisk" unicode="*" horiz-adv-x="426" 
d="M51 426l74 89l-103 32l45 113l91 -42l-6 96h119l-4 -96l91 42l44 -113l-103 -32l74 -89l-96 -73l-65 99l-65 -99z" />
    <glyph glyph-name="plus" unicode="+" horiz-adv-x="419" 
d="M382 202h-121v-126h-100v126h-124v95h124v124h100v-124h121v-95z" />
    <glyph glyph-name="comma" unicode="," horiz-adv-x="196" 
d="M192 100l-99 -200h-93l80 200h112z" />
    <glyph glyph-name="hyphen" unicode="-" horiz-adv-x="267" 
d="M27 297h213v-95h-213v95z" />
    <glyph glyph-name="period" unicode="." horiz-adv-x="196" 
d="M39 52c0 33 26 59 59 59s59 -26 59 -59s-26 -59 -59 -59s-59 26 -59 59z" />
    <glyph glyph-name="slash" unicode="/" horiz-adv-x="462" 
d="M351 710h107l-345 -810h-106z" />
    <glyph glyph-name="zero" unicode="0" horiz-adv-x="585" 
d="M292 -7c-168 0 -257 123 -257 315v94c0 192 89 315 257 315s257 -123 257 -315v-94c0 -192 -89 -315 -257 -315zM292 88c95 0 157 82 157 214v106c0 132 -62 214 -157 214s-157 -82 -157 -214v-106c0 -132 62 -214 157 -214z" />
    <glyph glyph-name="one" unicode="1" horiz-adv-x="585" 
d="M162 456l-63 84l192 170h82v-615h115v-95h-330v95h115v459z" />
    <glyph glyph-name="two" unicode="2" horiz-adv-x="585" 
d="M215 95h311v-95h-467v95c180 142 339 305 339 434c0 70 -60 93 -130 93c-69 0 -132 -18 -188 -46l-12 94c57 29 130 47 201 47c125 0 228 -50 228 -190c0 -159 -133 -307 -282 -432z" />
    <glyph glyph-name="three" unicode="3" horiz-adv-x="585" 
d="M50 45l20 99c48 -24 139 -56 215 -56c89 0 132 52 132 118c0 60 -37 113 -112 113h-142v95h117c83 0 123 48 123 110c0 57 -51 98 -145 98c-64 0 -121 -16 -159 -30l-16 94c58 18 115 31 182 31c168 0 238 -87 238 -186c0 -61 -20 -115 -76 -164c61 -43 90 -107 90 -171
c0 -152 -106 -203 -225 -203c-92 0 -177 25 -242 52z" />
    <glyph glyph-name="four" unicode="4" horiz-adv-x="585" 
d="M450 96v-96h-100v96h-308v95l300 519h108v-519h93v-95h-93zM156 191h194v347z" />
    <glyph glyph-name="five" unicode="5" horiz-adv-x="585" 
d="M183 615v-161l121 -10c148 -12 222 -111 222 -224c0 -149 -90 -227 -242 -227c-70 0 -151 17 -231 50l22 95c50 -24 136 -50 210 -50c77 0 142 40 142 135c0 66 -39 116 -127 123l-217 18v346h409v-95h-309z" />
    <glyph glyph-name="six" unicode="6" horiz-adv-x="585" 
d="M159 441v-35c43 20 91 30 137 30c119 0 228 -69 228 -220c0 -112 -73 -223 -229 -223c-116 0 -236 72 -236 237v208c0 208 113 279 248 279c56 0 123 -15 181 -35l-21 -94c-47 17 -108 34 -157 34c-82 0 -151 -41 -151 -181zM298 341c-46 0 -96 -14 -139 -35v-76
c0 -99 69 -142 136 -142c85 0 129 64 129 128c0 92 -57 125 -126 125z" />
    <glyph glyph-name="seven" unicode="7" horiz-adv-x="585" 
d="M403 615h-334v95h447v-95l-281 -615h-113z" />
    <glyph glyph-name="eight" unicode="8" horiz-adv-x="585" 
d="M80 530c0 124 102 187 208 187c133 0 216 -86 216 -181c0 -61 -32 -125 -102 -173c64 -37 117 -88 117 -174c0 -131 -113 -196 -226 -196c-149 0 -227 91 -227 191c0 69 36 142 108 194c-53 33 -94 77 -94 152zM166 188c0 -55 42 -100 127 -100c64 0 126 33 126 100
c0 76 -72 109 -150 143c-67 -36 -103 -91 -103 -143zM404 534c0 47 -39 88 -116 88c-56 0 -109 -31 -109 -92c0 -57 61 -88 132 -121c60 28 93 79 93 125z" />
    <glyph glyph-name="nine" unicode="9" horiz-adv-x="585" 
d="M268 88c86 0 157 38 157 181v10c-44 -20 -90 -29 -132 -29c-125 0 -233 84 -233 244c0 112 73 223 229 223c116 0 236 -72 236 -237v-208c0 -213 -116 -279 -255 -279c-54 0 -112 10 -167 25l15 94c49 -13 102 -24 150 -24zM290 345c42 0 89 13 135 35v100
c0 99 -69 142 -136 142c-85 0 -129 -64 -129 -128c0 -108 57 -149 130 -149z" />
    <glyph glyph-name="colon" unicode=":" horiz-adv-x="196" 
d="M35 56c0 35 28 63 63 63s63 -28 63 -63s-28 -63 -63 -63s-63 28 -63 63zM35 410c0 35 28 63 63 63s63 -28 63 -63s-28 -63 -63 -63s-63 28 -63 63z" />
    <glyph glyph-name="semicolon" unicode=";" horiz-adv-x="196" 
d="M35 410c0 35 28 63 63 63s63 -28 63 -63s-28 -63 -63 -63s-63 28 -63 63zM177 100l-99 -200h-93l80 200h112z" />
    <glyph glyph-name="less" unicode="&#x3c;" horiz-adv-x="442" 
d="M407 491l-260 -198l260 -198v-125l-376 289v68l376 289v-125z" />
    <glyph glyph-name="equal" unicode="=" horiz-adv-x="419" 
d="M37 372h345v-95h-345v95zM37 221h345v-95h-345v95z" />
    <glyph glyph-name="greater" unicode="&#x3e;" horiz-adv-x="442" 
d="M293 293l-260 198v125l376 -289v-68l-376 -289v125z" />
    <glyph glyph-name="question" unicode="?" horiz-adv-x="433" 
d="M244 190h-100v21c0 168 151 210 151 333c0 60 -42 78 -94 78c-54 0 -120 -20 -159 -32l-15 92c52 20 118 35 179 35c100 0 189 -41 189 -173c0 -170 -151 -187 -151 -337v-17zM125 63c0 39 31 70 70 70s70 -31 70 -70s-31 -70 -70 -70s-70 31 -70 70z" />
    <glyph glyph-name="at" unicode="@" horiz-adv-x="792" 
d="M458 194v165c-19 5 -38 8 -54 8c-57 0 -93 -34 -93 -112c0 -50 20 -97 65 -97c23 0 52 11 82 36zM759 279c0 -136 -75 -216 -165 -216c-33 0 -68 23 -98 53c-37 -36 -80 -53 -121 -53c-93 0 -164 72 -164 194c0 132 80 205 191 205c47 0 100 -15 156 -41v-218
c0 -31 11 -45 29 -45c31 0 72 41 72 121c0 172 -116 250 -239 250c-148 0 -288 -100 -288 -277c0 -170 112 -252 257 -252c60 0 122 16 177 48l19 -94c-64 -37 -134 -54 -202 -54c-201 0 -351 125 -351 352c0 243 194 377 390 377c172 0 337 -110 337 -350z" />
    <glyph glyph-name="A" unicode="A" horiz-adv-x="640" 
d="M121 0h-109l258 710h100l258 -710h-109l-74 205h-250zM410 300l-90 250l-91 -250h181z" />
    <glyph glyph-name="B" unicode="B" horiz-adv-x="553" 
d="M51 710h239c140 0 215 -87 215 -200c0 -59 -34 -118 -84 -151c61 -35 100 -96 100 -167c0 -155 -130 -199 -267 -199c-72 0 -145 12 -203 23v694zM297 310h-146v-213c33 -6 66 -9 104 -9c82 0 166 18 166 106c0 62 -47 116 -124 116zM151 615v-210h138
c80 0 116 47 116 105c0 59 -36 105 -115 105h-139z" />
    <glyph glyph-name="C" unicode="C" horiz-adv-x="556" 
d="M500 149l24 -97c-57 -38 -128 -59 -198 -59c-173 0 -285 90 -285 298v115c0 215 126 311 289 311c59 0 117 -14 177 -39l-21 -92c-54 22 -109 35 -158 35c-105 0 -187 -59 -187 -220v-106c0 -147 86 -207 184 -207c60 0 120 23 175 61z" />
    <glyph glyph-name="D" unicode="D" horiz-adv-x="610" 
d="M151 615v-520h129c133 0 195 118 195 251c0 176 -77 275 -246 275c-24 0 -50 -2 -78 -6zM280 0h-229v699c61 12 128 18 178 18c232 0 346 -131 346 -371c0 -186 -95 -346 -295 -346z" />
    <glyph glyph-name="E" unicode="E" horiz-adv-x="537" 
d="M499 95v-95h-443v710h429v-95h-329v-212h283v-95h-283v-213h343z" />
    <glyph glyph-name="F" unicode="F" horiz-adv-x="493" 
d="M156 0h-100v710h403v-95h-303v-234h257v-95h-257v-286z" />
    <glyph glyph-name="G" unicode="G" horiz-adv-x="608" 
d="M459 108v161c0 16 -7 24 -24 24h-112v95h127c80 0 109 -26 109 -107v-240c-71 -30 -149 -48 -222 -48c-157 0 -291 82 -291 298v115c0 220 141 311 296 311c68 0 139 -18 203 -50l-21 -92c-51 27 -116 46 -178 46c-105 0 -200 -55 -200 -220v-106
c0 -152 85 -207 191 -207c39 0 82 7 122 20z" />
    <glyph glyph-name="H" unicode="H" horiz-adv-x="610" 
d="M151 0h-100v710h100v-312h308v312h100v-710h-100v303h-308v-303z" />
    <glyph glyph-name="I" unicode="I" horiz-adv-x="218" 
d="M159 710v-710h-100v710h100z" />
    <glyph glyph-name="J" unicode="J" horiz-adv-x="311" 
d="M19 12l7 98c16 -13 42 -22 66 -22c35 0 68 20 68 76v546h100v-550c0 -111 -71 -167 -155 -167c-28 0 -57 6 -86 19z" />
    <glyph glyph-name="K" unicode="K" horiz-adv-x="577" 
d="M151 0h-100v710h100v-322h88l193 322h114l-198 -333c41 -15 67 -48 92 -107l113 -270h-108l-102 243c-17 41 -39 50 -86 50h-106v-293z" />
    <glyph glyph-name="L" unicode="L" horiz-adv-x="477" 
d="M455 95v-95h-404v710h100v-615h304z" />
    <glyph glyph-name="M" unicode="M" horiz-adv-x="722" 
d="M422 0h-122l-97 279l-52 206v-485h-100v710h111l199 -585l199 585h111v-710h-100v485l-52 -206z" />
    <glyph glyph-name="N" unicode="N" horiz-adv-x="603" 
d="M434 0l-222 397l-61 135v-532h-100v710h112l229 -410l60 -137v547h100v-710h-118z" />
    <glyph glyph-name="O" unicode="O" horiz-adv-x="660" 
d="M623 396v-82c0 -184 -93 -321 -293 -321s-293 137 -293 321v82c0 184 93 321 293 321s293 -137 293 -321zM139 399v-88c0 -138 74 -220 191 -220s191 82 191 220v88c0 138 -74 220 -191 220s-191 -82 -191 -220z" />
    <glyph glyph-name="P" unicode="P" horiz-adv-x="561" 
d="M151 615v-257h133c98 0 147 60 147 130c0 107 -93 134 -187 134c-32 0 -64 -3 -93 -7zM51 0v691c70 17 134 26 192 26c176 0 288 -75 288 -231c0 -118 -81 -223 -247 -223h-133v-263h-100z" />
    <glyph glyph-name="Q" unicode="Q" horiz-adv-x="660" 
d="M623 396v-82c0 -163 -74 -289 -228 -316c15 -37 34 -53 77 -53h121v-95h-129c-88 0 -134 36 -166 114l-13 32c-169 19 -248 148 -248 318v82c0 184 93 321 293 321s293 -137 293 -321zM139 399v-88c0 -138 74 -220 191 -220s191 82 191 220v88c0 138 -74 220 -191 220
s-191 -82 -191 -220z" />
    <glyph glyph-name="R" unicode="R" horiz-adv-x="570" 
d="M51 0v691c62 17 125 26 183 26c155 0 277 -59 277 -224c0 -75 -34 -138 -101 -174c12 -15 24 -34 33 -56l109 -263h-108l-92 222c-20 49 -47 63 -113 63h-88v-285h-100zM151 615v-235h113c98 0 147 45 147 115c0 105 -88 127 -178 127c-28 0 -56 -3 -82 -7z" />
    <glyph glyph-name="S" unicode="S" horiz-adv-x="548" 
d="M513 176c0 -134 -113 -183 -236 -183c-88 0 -177 25 -245 59l16 103c62 -35 141 -67 231 -67c72 0 134 24 134 91c0 143 -365 125 -365 363c0 124 113 175 236 175c73 0 150 -16 209 -38l-18 -95c-40 17 -119 38 -190 38c-73 0 -137 -15 -137 -82
c0 -146 365 -128 365 -364z" />
    <glyph glyph-name="T" unicode="T" horiz-adv-x="592" 
d="M246 615h-220v95h540v-95h-220v-615h-100v615z" />
    <glyph glyph-name="U" unicode="U" horiz-adv-x="649" 
d="M598 710v-466c0 -174 -137 -251 -274 -251s-273 77 -273 251v466h100v-466c0 -110 86 -156 173 -156s174 46 174 156v466h100z" />
    <glyph glyph-name="V" unicode="V" horiz-adv-x="670" 
d="M387 0h-104l-266 710h114l204 -563l204 563h114z" />
    <glyph glyph-name="W" unicode="W" horiz-adv-x="898" 
d="M340 0h-104l-214 710h111l155 -543l155 543h111l-51 -170l107 -373l155 543h111l-214 -710h-104l-109 361z" />
    <glyph glyph-name="X" unicode="X" horiz-adv-x="666" 
d="M147 0h-123l247 364l-235 346h123l174 -256l174 256h123l-236 -346l248 -364h-123l-186 273z" />
    <glyph glyph-name="Y" unicode="Y" horiz-adv-x="624" 
d="M362 0h-100v283l-249 427h114l185 -317l185 317h114l-249 -427v-283z" />
    <glyph glyph-name="Z" unicode="Z" horiz-adv-x="568" 
d="M38 95l328 520h-310v95h431v-95l-328 -520h369v-95h-490v95z" />
    <glyph glyph-name="bracketleft" unicode="[" horiz-adv-x="265" 
d="M51 710h169v-95h-69v-620h69v-95h-169v810z" />
    <glyph glyph-name="backslash" unicode="\" horiz-adv-x="464" 
d="M7 710h107l344 -810h-106z" />
    <glyph glyph-name="bracketright" unicode="]" horiz-adv-x="265" 
d="M41 710h169v-810h-169v95h69v620h-69v95z" />
    <glyph glyph-name="asciicircum" unicode="^" horiz-adv-x="508" 
d="M379 430l-124 164l-125 -164h-125l216 280h68l215 -280h-125z" />
    <glyph glyph-name="underscore" unicode="_" horiz-adv-x="459" 
d="M35 0h390v-95h-390v95z" />
    <glyph glyph-name="grave" unicode="`" horiz-adv-x="223" 
d="M106 570l-101 140h126l84 -140h-109z" />
    <glyph glyph-name="a" unicode="a" horiz-adv-x="463" 
d="M418 0h-93l-7 42c-44 -32 -95 -49 -142 -49c-80 0 -148 47 -148 149c0 110 70 159 179 165l111 6v26c0 56 -43 73 -95 73c-58 0 -126 -21 -154 -34l-12 97c50 19 110 32 167 32c102 0 194 -42 194 -163v-344zM209 215c-59 -3 -81 -35 -81 -73c0 -32 23 -54 57 -54
c53 0 99 23 133 44v89z" />
    <glyph glyph-name="b" unicode="b" horiz-adv-x="489" 
d="M45 733h100v-270c37 30 77 44 117 44c117 0 198 -95 198 -225v-55c0 -158 -73 -234 -214 -234c-59 0 -128 17 -201 50v690zM145 361v-252c36 -14 70 -21 100 -21c80 0 115 37 115 141v52c0 86 -43 131 -104 131c-37 0 -77 -17 -111 -51z" />
    <glyph glyph-name="c" unicode="c" horiz-adv-x="415" 
d="M382 130l12 -98c-49 -29 -95 -39 -146 -39c-132 0 -223 79 -223 217v71c0 139 85 226 234 226c40 0 82 -9 125 -26l-11 -92c-36 15 -73 23 -108 23c-77 0 -140 -40 -140 -132v-63c0 -89 57 -129 123 -129c48 0 95 15 134 42z" />
    <glyph glyph-name="d" unicode="d" horiz-adv-x="489" 
d="M351 0l-7 50c-37 -38 -75 -57 -122 -57c-118 0 -193 85 -193 234v55c0 130 81 225 198 225c40 0 80 -14 117 -44v270h100v-733h-93zM344 137v224c-34 34 -74 51 -111 51c-61 0 -104 -45 -104 -131v-52c0 -94 36 -141 103 -141c38 0 72 16 112 49z" />
    <glyph glyph-name="e" unicode="e" horiz-adv-x="473" 
d="M404 136l13 -95c-55 -33 -109 -48 -159 -48c-147 0 -228 100 -228 250c0 179 102 264 214 264c104 0 200 -76 200 -222c0 -26 -4 -56 -13 -87h-297c14 -76 66 -110 130 -110c47 0 94 17 140 48zM247 412c-62 0 -100 -55 -113 -119h210c0 67 -36 119 -97 119z" />
    <glyph glyph-name="f" unicode="f" horiz-adv-x="315" 
d="M175 0h-100v405h-54v95h54v89c0 100 60 151 147 151c25 0 51 -5 76 -15l-14 -90c-18 6 -37 10 -54 10c-31 0 -55 -14 -55 -60v-85h119v-95h-119v-405z" />
    <glyph glyph-name="g" unicode="g" horiz-adv-x="452" 
d="M211 507c39 0 71 -9 97 -25l12 48h100l-13 -55c-7 -30 -17 -47 -37 -62c12 -26 19 -56 19 -85c0 -90 -55 -179 -178 -179c-18 0 -35 2 -50 5c-9 -8 -14 -16 -14 -30c0 -17 8 -25 26 -25h108c86 0 146 -59 146 -141v-19c0 -97 -88 -146 -205 -146c-108 0 -203 50 -203 155
v21h100v-19c0 -43 47 -62 103 -62c54 0 104 18 104 57v9c0 31 -16 46 -53 46h-94c-84 0 -133 37 -133 99v15c0 33 12 58 39 81c-36 34 -52 83 -52 133c0 89 55 179 178 179zM211 249c55 0 78 41 78 80s-23 78 -78 78s-78 -39 -78 -78s23 -80 78 -80z" />
    <glyph glyph-name="h" unicode="h" horiz-adv-x="485" 
d="M45 733h100v-295c43 41 92 69 151 69c77 0 144 -42 144 -148v-359h-100v358c0 39 -19 54 -56 54c-48 0 -103 -38 -139 -83v-329h-100v733z" />
    <glyph glyph-name="i" unicode="i" horiz-adv-x="220" 
d="M170 0h-100v390c0 11 -4 15 -15 15h-32v95h53c70 0 94 -27 94 -92v-408zM32 642c0 39 32 71 71 71s71 -32 71 -71s-32 -71 -71 -71s-71 32 -71 71z" />
    <glyph glyph-name="j" unicode="j" horiz-adv-x="225" 
d="M42 642c0 39 32 71 71 71s71 -32 71 -71s-32 -71 -71 -71s-71 32 -71 71zM80 -41v431c0 11 -4 15 -15 15h-32v95h53c70 0 94 -27 94 -92v-453c0 -107 -58 -162 -142 -162c-25 0 -52 5 -81 15l11 90c17 -6 34 -10 50 -10c35 0 62 19 62 71z" />
    <glyph glyph-name="k" unicode="k" horiz-adv-x="463" 
d="M145 301h73l104 199h114l-114 -218c28 -16 47 -44 60 -88l57 -194h-104l-48 163c-9 31 -23 43 -58 43h-84v-206h-100v733h100v-432z" />
    <glyph glyph-name="l" unicode="l" horiz-adv-x="230" 
d="M207 92l6 -90c-22 -6 -42 -9 -60 -9c-74 0 -108 44 -108 131v609h100v-607c0 -28 16 -38 36 -38c8 0 17 1 26 4z" />
    <glyph glyph-name="m" unicode="m" horiz-adv-x="752" 
d="M426 333v-333h-100v355c0 39 -24 57 -60 57c-44 0 -85 -31 -121 -76v-336h-100v500h93l7 -55c43 41 78 62 137 62c55 0 105 -23 129 -76c39 46 93 76 153 76c74 0 143 -46 143 -151v-356h-100v355c0 39 -24 57 -60 57c-44 0 -86 -34 -121 -79z" />
    <glyph glyph-name="n" unicode="n" horiz-adv-x="485" 
d="M45 500h93l7 -62c43 41 92 69 151 69c77 0 144 -42 144 -148v-359h-100v358c0 39 -19 54 -56 54c-48 0 -103 -38 -139 -83v-329h-100v500z" />
    <glyph glyph-name="o" unicode="o" horiz-adv-x="514" 
d="M257 88c83 0 124 61 124 144v36c0 83 -41 144 -124 144s-124 -61 -124 -144v-36c0 -83 41 -144 124 -144zM257 -7c-163 0 -226 110 -226 235v44c0 125 63 235 226 235s226 -110 226 -235v-44c0 -125 -63 -235 -226 -235z" />
    <glyph glyph-name="p" unicode="p" horiz-adv-x="494" 
d="M145 50v-250h-100v700h93l7 -37c37 30 77 44 117 44c117 0 198 -97 198 -227v-55c0 -149 -75 -232 -193 -232c-47 0 -85 19 -122 57zM145 361v-224c40 -33 74 -49 112 -49c67 0 103 45 103 139v52c0 86 -43 133 -104 133c-37 0 -77 -17 -111 -51z" />
    <glyph glyph-name="q" unicode="q" horiz-adv-x="494" 
d="M349 -200v250c-37 -38 -75 -57 -122 -57c-118 0 -193 83 -193 232v55c0 130 81 227 198 227c40 0 80 -14 117 -44l7 37h93v-700h-100zM349 137v224c-34 34 -74 51 -111 51c-61 0 -104 -47 -104 -133v-52c0 -94 36 -139 103 -139c38 0 72 16 112 49z" />
    <glyph glyph-name="r" unicode="r" horiz-adv-x="330" 
d="M312 495l-4 -94c-16 7 -32 11 -47 11c-52 0 -90 -34 -116 -77v-335h-100v500h93l7 -54c25 32 56 61 108 61c18 0 37 -3 59 -12z" />
    <glyph glyph-name="s" unicode="s" horiz-adv-x="400" 
d="M359 481l-14 -92c-22 8 -88 23 -143 23c-45 0 -83 -12 -83 -44c0 -94 262 -46 262 -232c0 -113 -91 -143 -194 -143c-63 0 -133 14 -181 28l13 101c34 -13 107 -34 167 -34c52 0 94 11 94 54c0 86 -262 46 -262 230c0 98 86 135 179 135c58 0 118 -12 162 -26z" />
    <glyph glyph-name="t" unicode="t" horiz-adv-x="299" 
d="M176 405v-269c0 -36 17 -48 38 -48c17 0 36 7 53 17l6 -91c-25 -13 -50 -21 -77 -21c-73 0 -120 46 -120 141v271h-54v95h54v130l100 20v-150h100v-95h-100z" />
    <glyph glyph-name="u" unicode="u" horiz-adv-x="485" 
d="M440 0h-93l-7 58c-45 -40 -94 -65 -149 -65c-92 0 -146 53 -146 154v353h100v-348c0 -41 15 -64 57 -64c51 0 107 41 138 76v336h100v-500z" />
    <glyph glyph-name="v" unicode="v" horiz-adv-x="506" 
d="M309 0h-112l-197 500h110l143 -384l143 384h110z" />
    <glyph glyph-name="w" unicode="w" horiz-adv-x="631" 
d="M254 0h-112l-132 500h110l78 -343l78 343h110l-17 -63l64 -280l78 343h110l-132 -500h-112l-62 232z" />
    <glyph glyph-name="x" unicode="x" horiz-adv-x="513" 
d="M489 500l-172 -244l180 -256h-121l-120 169l-119 -169h-121l179 256l-171 244h122l110 -157l111 157h122z" />
    <glyph glyph-name="y" unicode="y" horiz-adv-x="500" 
d="M175 -66l24 63l-195 503h109l134 -376l145 376h108l-236 -600c-29 -75 -76 -107 -150 -107c-31 0 -64 8 -96 22l10 102c24 -16 55 -29 82 -29s52 12 65 46z" />
    <glyph glyph-name="z" unicode="z" horiz-adv-x="438" 
d="M408 0h-377v98l232 307h-221v95h345v-95l-234 -310h255v-95z" />
    <glyph glyph-name="braceleft" unicode="{" horiz-adv-x="245" 
d="M131 305c37 -24 52 -61 52 -106c0 -73 -34 -136 -34 -184c0 -16 9 -27 24 -27c9 0 20 3 31 8v-93c-21 -7 -39 -10 -56 -10c-63 0 -99 49 -99 122c0 55 34 120 34 188c0 34 -15 57 -50 73v58c35 16 50 39 50 73c0 68 -34 133 -34 188c0 73 36 122 99 122
c17 0 35 -3 56 -10v-93c-11 5 -22 8 -31 8c-15 0 -24 -11 -24 -27c0 -48 34 -111 34 -184c0 -45 -15 -82 -52 -106z" />
    <glyph glyph-name="bar" unicode="|" horiz-adv-x="220" 
d="M160 -100h-100v860h100v-860z" />
    <glyph glyph-name="braceright" unicode="}" horiz-adv-x="245" 
d="M111 305c-37 24 -52 61 -52 106c0 73 34 136 34 184c0 16 -9 27 -24 27c-9 0 -20 -3 -31 -8v93c21 7 39 10 56 10c63 0 99 -49 99 -122c0 -55 -34 -120 -34 -188c0 -34 15 -57 50 -73v-58c-35 -16 -50 -39 -50 -73c0 -68 34 -133 34 -188c0 -73 -36 -122 -99 -122
c-17 0 -35 3 -56 10v93c11 -5 22 -8 31 -8c15 0 24 11 24 27c0 48 -34 111 -34 184c0 45 15 82 52 106z" />
    <glyph glyph-name="asciitilde" unicode="~" horiz-adv-x="467" 
d="M152 325c-17 0 -26 -14 -26 -41v-40h-98v36c0 71 34 144 115 144c95 0 131 -87 171 -87c14 0 24 10 24 35v46h97v-51c0 -69 -40 -129 -117 -129c-80 0 -115 87 -166 87z" />
    <glyph glyph-name="thothannobasethai" unicode="&#xf700;" horiz-adv-x="421" 
d="M382 477l-18 -95c-40 14 -100 30 -161 30c-43 0 -78 -10 -78 -45v-7c135 -2 255 -44 255 -188v-122c-42 -38 -100 -57 -154 -57c-75 0 -143 38 -155 115l-4 26c-2 15 -9 19 -24 19h-11v95h31c58 0 84 -20 95 -86l5 -29c6 -32 32 -45 62 -45c19 0 38 5 55 14v63
c0 98 -116 115 -238 115c-10 24 -17 57 -17 81c0 113 90 146 185 146c63 0 118 -11 172 -30z" />
    <glyph glyph-name="saraileftthai" unicode="&#xf701;" 
d="M-485 560l21 90h284v-90h-305z" />
    <glyph glyph-name="saraiileftthai" unicode="&#xf702;" 
d="M-485 560l21 90h184l7 60h93v-150h-305z" />
    <glyph glyph-name="saraueleftthai" unicode="&#xf703;" 
d="M-485 560l21 90h128c5 42 40 74 82 74c48 0 85 -34 85 -82c0 -46 -37 -82 -85 -82h-231zM-283 642c0 -16 14 -29 29 -29c17 0 30 13 30 29c0 17 -13 30 -30 30c-15 0 -29 -13 -29 -30z" />
    <glyph glyph-name="saraueeleftthai" unicode="&#xf704;" 
d="M-485 560l21 90h78l7 60h81v-60h30l7 60h81v-150h-305z" />
    <glyph glyph-name="maieklowleftthai" unicode="&#xf705;" 
d="M-180 560h-100l7 150h93v-150z" />
    <glyph glyph-name="maitholowleftthai" unicode="&#xf706;" 
d="M7 650l-14 -90h-221c-55 0 -73 26 -73 72v18h-49l18 90h54c49 0 72 -19 72 -68v-22h213z" />
    <glyph glyph-name="maitrilowleftthai" unicode="&#xf707;" 
d="M-331 638v-69c-16 -6 -35 -9 -49 -9c-50 0 -76 31 -76 83v16c0 55 35 85 74 85c30 0 54 -15 77 -38l7 33h62v-98c13 0 15 9 20 29l19 74h85l-22 -87c-16 -67 -58 -97 -116 -97c-21 0 -38 4 -61 13v74c-17 12 -35 22 -54 22c-10 0 -16 -6 -16 -16c0 -15 12 -18 24 -18
c8 0 21 2 26 3z" />
    <glyph glyph-name="maichattawalowleftthai" unicode="&#xf708;" 
d="M-220 560h-100v32h-40v86h40v32h100v-32h40v-86h-40v-32z" />
    <glyph glyph-name="thanthakhatlowleftthai" unicode="&#xf709;" 
d="M-211 560h-86c-8 25 -14 50 -14 73c0 54 26 98 88 98h237l-14 -90h-185c-18 0 -26 -5 -26 -26v-55z" />
    <glyph glyph-name="maieklowrightthai" unicode="&#xf70a;" 
d="M-40 560h-100l7 150h93v-150z" />
    <glyph glyph-name="maitholowrightthai" unicode="&#xf70b;" 
d="M7 650l-14 -90h-173c-55 0 -73 26 -73 72v18h-49l18 90h54c49 0 72 -19 72 -68v-22h165z" />
    <glyph glyph-name="maitrilowrightthai" unicode="&#xf70c;" 
d="M-229 638v-69c-16 -6 -35 -9 -49 -9c-50 0 -76 31 -76 83v16c0 55 35 85 74 85c30 0 54 -15 77 -38l7 33h62v-98c13 0 15 9 20 29l19 74h85l-22 -87c-16 -67 -58 -97 -116 -97c-21 0 -38 4 -61 13v74c-17 12 -35 22 -54 22c-10 0 -16 -6 -16 -16c0 -15 12 -18 24 -18
c8 0 21 2 26 3z" />
    <glyph glyph-name="maichattawalowrightthai" unicode="&#xf70d;" 
d="M-80 560h-100v32h-40v86h40v32h100v-32h40v-86h-40v-32z" />
    <glyph glyph-name="thanthakhatlowrightthai" unicode="&#xf70e;" 
d="M-168 560h-86c-8 25 -14 50 -14 73c0 54 26 98 88 98h194l-14 -90h-142c-18 0 -26 -5 -26 -26v-55z" />
    <glyph glyph-name="yoyingnobasethai" unicode="&#xf70f;" horiz-adv-x="738" 
d="M419 337v-176c0 -53 44 -73 91 -73c32 0 63 9 88 24v388h100v-447c-54 -39 -122 -60 -188 -60c-100 0 -191 49 -191 164v174c0 61 -42 81 -90 81c-33 0 -70 -10 -99 -20l10 -75v-178c0 -34 13 -44 42 -44h52v-95h-62c-88 0 -132 42 -132 133v199l-21 111
c62 27 135 64 215 64c97 0 185 -43 185 -170z" />
    <glyph glyph-name="quoteleft" unicode="&#x2018;" horiz-adv-x="207" 
d="M14 480l82 230h100l-55 -230h-127z" />
    <glyph glyph-name="quoteright" unicode="&#x2019;" horiz-adv-x="207" 
d="M196 710l-82 -230h-100l55 230h127z" />
    <glyph glyph-name="bullet" unicode="&#x2022;" horiz-adv-x="234" 
d="M20 296c0 54 44 98 98 98s98 -44 98 -98s-44 -98 -98 -98s-98 44 -98 98z" />
    <glyph glyph-name="endash" unicode="&#x2013;" horiz-adv-x="343" 
d="M27 297h289v-95h-289v95z" />
    <glyph glyph-name="emdash" unicode="&#x2014;" horiz-adv-x="464" 
d="M27 297h410v-95h-410v95z" />
    <glyph glyph-name="maihanakatleftthai" unicode="&#xf710;" 
d="M-232 720v-41c0 -16 7 -24 24 -24h218v-95h-242c-63 0 -100 27 -100 95v65h100z" />
    <glyph glyph-name="nikhahitleftthai" unicode="&#xf711;" 
d="M-341 639c0 48 37 85 83 85c48 0 85 -37 85 -85c0 -46 -37 -83 -85 -83c-46 0 -83 37 -83 83zM-282 639c0 -13 12 -24 24 -24c14 0 25 11 25 24c0 14 -11 25 -25 25c-12 0 -24 -11 -24 -25z" />
    <glyph glyph-name="maitaikhuleftthai" unicode="&#xf712;" 
d="M-180 645v-85h-72c-37 0 -60 13 -78 39l-7 -39h-88v91c0 67 27 99 95 99h330v-85h-330c19 -15 39 -20 72 -20h78z" />
    <glyph glyph-name="maiekupperleftthai" unicode="&#xf713;" 
d="M-180 750h-90l6 135h84v-135z" />
    <glyph glyph-name="maithoupperleftthai" unicode="&#xf714;" 
d="M-66 831l-12 -81h-199c-50 0 -66 23 -66 65v16h-44l16 81h49c44 0 64 -17 64 -61v-20h192z" />
    <glyph glyph-name="maitriupperleftthai" unicode="&#xf715;" 
d="M-316 820v-62c-15 -5 -32 -8 -44 -8c-45 0 -69 28 -69 75v14c0 50 32 77 67 77c27 0 48 -14 69 -34l6 29h56v-88c9 0 13 7 18 26l17 67h77l-20 -79c-15 -60 -52 -87 -104 -87c-19 0 -35 4 -55 12v66c-16 11 -32 20 -49 20c-9 0 -14 -5 -14 -14c0 -14 10 -16 21 -16
c7 0 19 1 24 2z" />
    <glyph glyph-name="maichattawaupperleftthai" unicode="&#xf716;" 
d="M-180 750h-90v29h-36v78h36v28h90v-28h36v-78h-36v-29z" />
    <glyph glyph-name="thanthakhatupperleftthai" unicode="&#xf717;" 
d="M-275 720h-77c-8 22 -13 45 -13 65c0 49 23 88 79 88h175l-13 -81h-128c-16 0 -23 -4 -23 -23v-49z" />
    <glyph glyph-name="kokaithai" unicode="&#xe01;" horiz-adv-x="475" 
d="M435 337v-337h-100v331c0 61 -43 81 -96 81c-36 0 -75 -9 -109 -20l10 -75v-317h-100v332l-21 111c61 29 136 64 220 64c102 0 196 -44 196 -170z" />
    <glyph glyph-name="khokhaithai" unicode="&#xe02;" horiz-adv-x="433" 
d="M132 208v-61c0 -44 40 -59 80 -59s81 15 81 59v353h100v-353c0 -108 -91 -154 -181 -154s-180 46 -180 154v65c0 45 6 63 32 89l40 40c10 10 13 16 13 31v9c0 17 -6 24 -24 24h-56v95h65c84 0 115 -37 115 -110v-21c0 -41 -10 -62 -33 -85l-35 -34
c-14 -14 -17 -22 -17 -42z" />
    <glyph glyph-name="khokhuatthai" unicode="&#xe03;" horiz-adv-x="433" 
d="M117 364c-12 -3 -22 -5 -32 -5c-53 0 -75 39 -75 100v41h90v-40c0 -12 7 -16 15 -16c5 0 11 2 16 4l7 52h79v-139c0 -41 -6 -57 -26 -82l-42 -52c-14 -18 -17 -28 -17 -51v-29c0 -44 40 -59 80 -59s81 15 81 59v353h100v-353c0 -108 -91 -154 -181 -154s-180 46 -180 154
v33c0 51 9 69 32 98l40 49c11 13 13 18 13 37z" />
    <glyph glyph-name="khokhwaithai" unicode="&#xe04;" horiz-adv-x="484" 
d="M37 0l39 183c-32 32 -48 71 -48 124v29c0 112 104 171 208 171c106 0 208 -56 208 -175v-332h-100v322c0 62 -53 90 -108 90s-108 -28 -108 -90c0 -18 2 -32 5 -48c19 9 43 13 73 13h73v-95h-66c-26 0 -35 -9 -40 -34l-31 -158h-105z" />
    <glyph glyph-name="khokhonthai" unicode="&#xe05;" horiz-adv-x="493" 
d="M37 0l40 183c-32 32 -49 71 -49 124v61c0 100 52 139 118 139c49 0 77 -19 97 -65c23 46 60 65 107 65c58 0 103 -34 103 -106v-401h-100v395c0 12 -8 17 -17 17s-15 -4 -18 -10l-33 -67h-83l-31 64c-4 8 -10 13 -18 13c-16 0 -25 -13 -25 -43v-56c0 -17 3 -32 8 -48
c18 8 40 11 68 11h73v-95h-66c-26 0 -35 -9 -40 -34l-29 -147h-105z" />
    <glyph glyph-name="khorakhangthai" unicode="&#xe06;" horiz-adv-x="484" 
d="M128 364c-12 -3 -22 -5 -32 -5c-53 0 -75 39 -75 100v41h90v-40c0 -12 7 -16 15 -16c5 0 11 2 16 4l7 52h79v-141c0 -26 -4 -41 -17 -64l-48 -84c-11 -19 -13 -29 -13 -52v-9c44 -37 91 -62 135 -62c31 0 59 15 59 60v352h100v-358c0 -107 -60 -149 -133 -149
c-62 0 -112 26 -161 70l-7 -63h-93v164c0 43 4 56 22 88l47 82c6 10 9 17 9 30z" />
    <glyph glyph-name="ngonguthai" unicode="&#xe07;" horiz-adv-x="429" 
d="M256 405h-53v95h68c86 0 129 -42 129 -110c0 -13 -2 -27 -5 -42l-75 -340c-32 -9 -62 -15 -90 -15c-65 0 -106 25 -138 101l-92 220h108l86 -204c7 -17 15 -25 34 -25h7l57 269c1 6 2 12 2 17c0 21 -12 34 -38 34z" />
    <glyph glyph-name="chochanthai" unicode="&#xe08;" horiz-adv-x="425" 
d="M39 384l-14 90c51 19 108 33 168 33c106 0 209 -42 209 -166c0 -40 -5 -71 -16 -109l-38 -136c-21 -77 -79 -103 -145 -103c-31 0 -66 6 -101 16l-19 150c-2 18 -8 23 -26 23h-21v95h33c72 0 103 -29 112 -98l12 -91h18c21 0 33 7 39 29l34 126c10 37 18 66 18 94
c0 57 -51 75 -110 75c-54 0 -116 -15 -153 -28z" />
    <glyph glyph-name="chochingthai" unicode="&#xe09;" horiz-adv-x="472" 
d="M59 374l-12 94c49 24 111 39 172 39c109 0 213 -48 213 -182v-325h-93l-7 62c-38 -33 -87 -69 -149 -69c-78 0 -142 41 -142 149v118h100v-118c0 -40 20 -54 47 -54c41 0 96 24 144 62v171c0 67 -51 91 -113 91c-53 0 -107 -15 -160 -38z" />
    <glyph glyph-name="chochangthai" unicode="&#xe0a;" horiz-adv-x="433" 
d="M393 260v-113c0 -108 -91 -154 -181 -154s-180 46 -180 154v65c0 45 6 63 32 89l40 40c10 10 13 16 13 31v9c0 17 -6 24 -24 24h-56v95h65c84 0 115 -37 115 -110v-21c0 -41 -10 -62 -33 -85l-35 -34c-14 -14 -17 -22 -17 -42v-61c0 -44 40 -59 80 -59s81 15 81 59v109
c0 33 -10 46 -43 46h-13v95h12c20 0 26 6 31 26l20 84h102l-20 -83c-8 -32 -17 -55 -40 -73c35 -18 51 -38 51 -91z" />
    <glyph glyph-name="sosothai" unicode="&#xe0b;" horiz-adv-x="446" 
d="M45 147v33c0 51 9 69 32 98l40 49c11 13 13 18 13 37c-12 -3 -22 -5 -32 -5c-53 0 -75 39 -75 100v41h90v-40c0 -12 7 -16 15 -16c5 0 11 2 16 4l7 52h79v-139c0 -41 -6 -57 -26 -82l-42 -52c-14 -18 -17 -28 -17 -51v-29c0 -44 40 -59 80 -59s81 15 81 59v109
c0 33 -10 46 -43 46h-13v95h12c20 0 26 6 31 26l20 84h102l-20 -83c-8 -32 -17 -55 -40 -73c35 -18 51 -38 51 -91v-113c0 -108 -91 -154 -181 -154s-180 46 -180 154z" />
    <glyph glyph-name="chochoethai" unicode="&#xe0c;" horiz-adv-x="738" 
d="M419 337v-172c29 -38 76 -77 124 -77c31 0 55 18 55 65v347h100v-349c0 -109 -66 -158 -138 -158c-51 0 -105 24 -141 69l-7 -62h-93v331c0 61 -42 81 -90 81c-33 0 -70 -10 -99 -20l10 -75v-178c0 -34 13 -44 42 -44h52v-95h-62c-88 0 -132 42 -132 133v199l-21 111
c62 27 135 64 215 64c97 0 185 -43 185 -170z" />
    <glyph glyph-name="yoyingthai" unicode="&#xe0d;" horiz-adv-x="738" 
d="M598 20v13c-33 -25 -79 -40 -123 -40c-86 0 -156 46 -156 154v184c0 61 -42 81 -90 81c-33 0 -70 -10 -99 -20l10 -75v-178c0 -34 13 -44 42 -44h52v-95h-62c-88 0 -132 42 -132 133v199l-21 111c62 27 135 64 215 64c97 0 185 -43 185 -170v-185c0 -46 27 -64 64 -64
c36 0 81 17 115 40v372h100v-484c0 -112 -63 -156 -182 -156h-203v90h201c55 0 84 25 84 70z" />
    <glyph glyph-name="dochadathai" unicode="&#xe0e;" horiz-adv-x="495" 
d="M455 -200h-100c-52 41 -110 74 -168 74c-42 0 -73 -20 -73 -74h-100c0 113 74 169 169 169c61 0 120 -23 172 -66v428c0 61 -43 81 -96 81c-36 0 -75 -9 -109 -20l10 -75v-220c0 -67 -27 -97 -90 -97h-56v95h22c16 0 24 7 24 24v213l-21 111c61 29 136 64 220 64
c102 0 196 -44 196 -170v-537z" />
    <glyph glyph-name="topatakthai" unicode="&#xe0f;" horiz-adv-x="495" 
d="M166 -42h100v-35c0 -18 12 -28 30 -28c17 0 39 8 59 26v410c0 61 -43 81 -96 81c-36 0 -75 -9 -109 -20l10 -75v-220c0 -67 -27 -97 -90 -97h-56v95h22c16 0 24 7 24 24v213l-21 111c61 29 136 64 220 64c102 0 196 -44 196 -170v-537h-93l-7 38
c-35 -25 -70 -38 -100 -38c-33 0 -60 15 -76 45c-26 -30 -60 -45 -118 -45h-47v95h47c57 0 86 17 105 63z" />
    <glyph glyph-name="thothanthai" unicode="&#xe10;" horiz-adv-x="421" 
d="M382 477l-18 -95c-40 14 -100 30 -161 30c-43 0 -78 -10 -78 -45v-7c135 -2 255 -44 255 -188v-122c-42 -38 -100 -57 -154 -57c-75 0 -143 38 -155 115l-4 26c-2 15 -9 19 -24 19h-11v95h31c58 0 84 -20 95 -86l5 -29c6 -32 32 -45 62 -45c19 0 38 5 55 14v63
c0 98 -116 115 -238 115c-10 24 -17 57 -17 81c0 113 90 146 185 146c63 0 118 -11 172 -30zM392 -42v-158h-100c-43 38 -81 63 -125 63c-35 0 -63 -18 -63 -63h-100c0 104 70 158 155 158c47 0 90 -17 133 -56v56h100z" />
    <glyph glyph-name="thonangmonthothai" unicode="&#xe11;" horiz-adv-x="515" 
d="M181 141v-141h-100v147c0 43 4 61 15 96l30 91c4 11 6 18 9 30c-12 -3 -22 -5 -32 -5c-53 0 -75 39 -75 100v41h90v-40c0 -12 7 -16 15 -16c5 0 11 2 16 4l7 52h79v-44c33 35 75 51 115 51c66 0 125 -46 125 -134v-373h-100v369c0 31 -15 43 -41 43
c-32 0 -71 -24 -100 -51c-1 -17 -5 -31 -11 -51l-31 -92c-8 -25 -11 -40 -11 -77z" />
    <glyph glyph-name="thophuthaothai" unicode="&#xe12;" horiz-adv-x="755" 
d="M274 101v-92c-26 -10 -53 -16 -80 -16c-85 0 -164 53 -164 157v221c0 94 42 136 106 136c47 0 78 -19 101 -65c22 46 62 65 101 65c52 0 98 -36 98 -106v-236c29 -38 76 -77 124 -77c31 0 55 18 55 65v347h100v-349c0 -109 -66 -158 -138 -158c-51 0 -105 24 -141 69
l-7 -62h-93v395c0 12 -4 17 -11 17s-10 -4 -13 -10l-33 -67h-83l-31 64c-4 9 -9 13 -14 13c-15 0 -21 -18 -21 -40v-217c0 -49 36 -67 78 -67c22 0 46 5 66 13z" />
    <glyph glyph-name="nonenthai" unicode="&#xe13;" horiz-adv-x="738" 
d="M319 147v184c0 61 -42 81 -90 81c-33 0 -70 -10 -99 -20l10 -75v-178c0 -34 13 -44 42 -44h52v-95h-62c-88 0 -132 42 -132 133v199l-21 111c62 27 135 64 215 64c97 0 185 -43 185 -170v-185c0 -40 22 -64 57 -64c48 0 80 24 122 66v346h100v-500h-93l-7 58
c-41 -45 -87 -65 -136 -65c-74 0 -143 50 -143 154z" />
    <glyph glyph-name="dodekthai" unicode="&#xe14;" horiz-adv-x="494" 
d="M130 320v-165c0 -50 41 -67 84 -67c28 0 57 6 77 16v-93c-26 -12 -57 -18 -88 -18c-96 0 -173 49 -173 157v173c0 125 106 184 212 184s212 -59 212 -184v-323h-100v320c0 63 -56 92 -112 92s-112 -29 -112 -92z" />
    <glyph glyph-name="totaothai" unicode="&#xe15;" horiz-adv-x="498" 
d="M458 401v-401h-100v395c0 12 -8 17 -17 17s-15 -4 -18 -10l-33 -67h-83l-31 64c-4 8 -10 13 -18 13c-16 0 -28 -10 -28 -40v-217c0 -50 41 -67 84 -67c28 0 57 6 77 16v-93c-26 -12 -57 -18 -88 -18c-96 0 -173 49 -173 157v221c0 100 55 136 121 136c49 0 77 -19 97 -65
c23 46 60 65 107 65c58 0 103 -34 103 -106z" />
    <glyph glyph-name="thothungthai" unicode="&#xe16;" horiz-adv-x="475" 
d="M140 317v-178c0 -34 13 -44 42 -44h52v-95h-62c-88 0 -132 42 -132 133v199l-21 111c61 29 136 64 220 64c102 0 196 -44 196 -170v-337h-100v331c0 61 -43 81 -96 81c-36 0 -75 -9 -109 -20z" />
    <glyph glyph-name="thothahanthai" unicode="&#xe17;" horiz-adv-x="474" 
d="M434 362v-362h-100v358c0 38 -21 54 -54 54c-60 0 -107 -61 -140 -120v-292h-100v500h100v-96c35 62 85 103 153 103c82 0 141 -45 141 -145z" />
    <glyph glyph-name="thothongthai" unicode="&#xe18;" horiz-adv-x="446" 
d="M401 475l-9 -94c-36 13 -100 31 -154 31c-55 0 -105 -11 -105 -52v-6c134 0 280 -48 280 -186v-38c0 -101 -83 -137 -186 -137c-60 0 -124 13 -188 33v205h100v-129c17 -8 54 -14 88 -14c45 0 86 11 86 45v28c0 105 -152 110 -265 110c-11 30 -15 54 -15 78
c0 120 99 158 203 158c62 0 117 -15 165 -32z" />
    <glyph glyph-name="nonuthai" unicode="&#xe19;" horiz-adv-x="474" 
d="M434 500v-500h-93l-7 58c-41 -37 -89 -65 -147 -65c-82 0 -147 46 -147 154v353h100v-348c0 -40 18 -64 53 -64c48 0 94 26 141 66v346h100z" />
    <glyph glyph-name="bobaimaithai" unicode="&#xe1a;" horiz-adv-x="484" 
d="M444 500v-447c-55 -39 -133 -60 -204 -60c-107 0 -200 49 -200 164v343h100v-339c0 -56 48 -73 100 -73c39 0 80 10 104 24v388h100z" />
    <glyph glyph-name="poplathai" unicode="&#xe1b;" horiz-adv-x="484" 
d="M444 710v-657c-55 -39 -133 -60 -204 -60c-107 0 -200 49 -200 164v343h100v-339c0 -56 48 -73 100 -73c39 0 80 10 104 24v598h100z" />
    <glyph glyph-name="phophungthai" unicode="&#xe1c;" horiz-adv-x="552" 
d="M418 500h101l-27 -500h-52c-43 0 -64 9 -80 41l-84 170l-84 -170c-16 -32 -37 -41 -80 -41h-52l-21 386c-4 64 20 114 94 114h86v-95h-63c-12 0 -16 -6 -16 -16l7 -143l-6 -110l85 182h100l85 -182l-6 110z" />
    <glyph glyph-name="fofathai" unicode="&#xe1d;" horiz-adv-x="552" 
d="M429 710h101l-38 -710h-52c-43 0 -64 9 -80 41l-84 170l-84 -170c-16 -32 -37 -41 -80 -41h-52l-21 386c-4 64 20 114 94 114h86v-95h-63c-12 0 -16 -6 -16 -16l7 -143l-6 -110l85 182h100l85 -182l-6 110z" />
    <glyph glyph-name="phophanthai" unicode="&#xe1e;" horiz-adv-x="552" 
d="M360 41l-84 217l-84 -217c-13 -33 -37 -41 -80 -41h-52l-27 500h101l11 -187v-134l81 213h100l81 -213v134l11 187h101l-27 -500h-52c-43 0 -67 8 -80 41z" />
    <glyph glyph-name="fofanthai" unicode="&#xe1f;" horiz-adv-x="552" 
d="M360 41l-84 217l-84 -217c-13 -33 -37 -41 -80 -41h-52l-27 500h101l11 -187v-134l81 213h100l81 -213v134l23 397h101l-39 -710h-52c-43 0 -67 8 -80 41z" />
    <glyph glyph-name="phosamphaothai" unicode="&#xe20;" horiz-adv-x="495" 
d="M160 317v-220c0 -67 -27 -97 -90 -97h-56v95h22c16 0 24 7 24 24v213l-21 111c61 29 136 64 220 64c102 0 196 -44 196 -170v-337h-100v331c0 61 -43 81 -96 81c-36 0 -75 -9 -109 -20z" />
    <glyph glyph-name="momathai" unicode="&#xe21;" horiz-adv-x="474" 
d="M40 0v500h100v-335c34 -37 83 -77 130 -77c45 0 64 28 64 73v339h100v-341c0 -107 -58 -166 -139 -166c-70 0 -106 26 -155 69l-7 -62h-93z" />
    <glyph glyph-name="yoyakthai" unicode="&#xe22;" horiz-adv-x="483" 
d="M343 160v340h100v-349c0 -112 -85 -158 -204 -158c-72 0 -145 18 -203 47v119c0 55 11 89 55 111c-33 14 -55 42 -55 84v23c0 69 31 123 120 123h92v-95h-81c-22 0 -31 -15 -31 -36v-11c0 -30 12 -40 31 -40h96v-95h-78c-36 0 -49 -17 -49 -56v-65c27 -7 65 -14 103 -14
c55 0 104 16 104 72z" />
    <glyph glyph-name="roruathai" unicode="&#xe23;" horiz-adv-x="418" 
d="M25 15l13 98c30 -9 93 -25 154 -25c47 0 87 13 87 59c0 82 -254 67 -254 225c0 103 81 135 181 135c57 0 116 -12 160 -26l-14 -90c-31 8 -91 21 -145 21c-44 0 -82 -9 -82 -40c0 -80 254 -57 254 -225c0 -114 -81 -154 -186 -154c-58 0 -119 11 -168 22z" />
    <glyph glyph-name="ruthai" unicode="&#xe24;" horiz-adv-x="475" 
d="M140 317v-178c0 -34 13 -44 42 -44h52v-95h-62c-88 0 -132 42 -132 133v199l-21 111c61 29 136 64 220 64c102 0 196 -44 196 -170v-537h-100v531c0 61 -43 81 -96 81c-36 0 -75 -9 -109 -20z" />
    <glyph glyph-name="lolingthai" unicode="&#xe25;" horiz-adv-x="458" 
d="M418 0h-100v202c-22 4 -60 11 -96 11c-50 0 -98 -13 -98 -63c0 -47 29 -62 64 -62c24 0 51 7 74 15v-94c-29 -11 -58 -16 -86 -16c-86 0 -152 50 -152 157c0 117 89 158 187 158c36 0 73 -5 107 -13v44c0 56 -43 73 -95 73c-55 0 -120 -19 -154 -33l-13 95
c50 20 111 33 167 33c108 0 195 -43 195 -166v-341z" />
    <glyph glyph-name="luthai" unicode="&#xe26;" horiz-adv-x="495" 
d="M160 317v-220c0 -67 -27 -97 -90 -97h-56v95h22c16 0 24 7 24 24v213l-21 111c61 29 136 64 220 64c102 0 196 -44 196 -170v-537h-100v531c0 61 -43 81 -96 81c-36 0 -75 -9 -109 -20z" />
    <glyph glyph-name="wowaenthai" unicode="&#xe27;" horiz-adv-x="398" 
d="M35 382l-15 95c44 19 97 30 147 30c101 0 191 -47 191 -178v-162c0 -112 -63 -167 -182 -167h-87v95h85c55 0 84 18 84 78v151c0 68 -41 88 -91 88c-49 0 -98 -17 -132 -30z" />
    <glyph glyph-name="sosalathai" unicode="&#xe28;" horiz-adv-x="484" 
d="M37 0l39 183c-32 32 -48 71 -48 124v29c0 112 104 171 208 171c41 0 82 -9 116 -26l12 49h100l-13 -55c-6 -26 -15 -41 -31 -54c15 -25 24 -54 24 -89v-332h-100v322c0 62 -53 90 -108 90s-108 -28 -108 -90c0 -18 2 -32 5 -48c19 9 43 13 73 13h73v-95h-66
c-26 0 -35 -9 -40 -34l-31 -158h-105z" />
    <glyph glyph-name="sorusithai" unicode="&#xe29;" horiz-adv-x="475" 
d="M444 500v-447c-55 -39 -133 -60 -204 -60c-107 0 -200 49 -200 164v343h100v-339c0 -56 48 -73 100 -73c39 0 80 10 104 24v105h-63c-60 0 -84 28 -84 81v49h100v-35h47v188h100z" />
    <glyph glyph-name="sosuathai" unicode="&#xe2a;" horiz-adv-x="458" 
d="M418 0h-100v202c-22 4 -60 11 -96 11c-50 0 -98 -13 -98 -63c0 -47 29 -62 64 -62c24 0 51 7 74 15v-94c-29 -11 -58 -16 -86 -16c-86 0 -152 50 -152 157c0 117 89 158 187 158c36 0 73 -5 107 -13v44c0 56 -43 73 -95 73c-55 0 -120 -19 -154 -33l-13 95
c50 20 111 33 167 33c39 0 75 -6 106 -19l10 42h100l-13 -55c-6 -23 -13 -38 -27 -50c12 -23 19 -50 19 -84v-341z" />
    <glyph glyph-name="hohipthai" unicode="&#xe2b;" horiz-adv-x="465" 
d="M140 346c35 8 73 13 108 13c8 0 14 0 24 -1c5 8 9 18 12 30l27 112h102l-27 -111c-6 -23 -12 -41 -23 -56c44 -24 72 -65 72 -129v-204h-100v199c0 51 -43 65 -92 65c-36 0 -75 -7 -103 -13v-251h-100v500h100v-154z" />
    <glyph glyph-name="lochulathai" unicode="&#xe2c;" horiz-adv-x="553" 
d="M403 197l8 162c2 34 -10 46 -39 46h-16v95h6c35 0 50 17 57 56l26 154h102l-25 -154c-8 -48 -21 -76 -56 -102c39 -21 49 -42 46 -91l-20 -363h-52c-43 0 -67 8 -80 41l-84 217l-84 -217c-13 -33 -37 -41 -80 -41h-52l-27 500h101l15 -303l77 195h100z" />
    <glyph glyph-name="oangthai" unicode="&#xe2d;" horiz-adv-x="474" 
d="M246 303v-95h-83c-23 0 -32 -9 -32 -34v-68c21 -8 63 -18 104 -18c51 0 99 16 99 72v173c0 60 -45 79 -100 79c-63 0 -139 -25 -176 -44l-17 89c57 28 125 50 194 50c104 0 199 -45 199 -170v-186c0 -118 -97 -158 -199 -158c-77 0 -155 23 -204 51v136
c0 77 35 123 127 123h88z" />
    <glyph glyph-name="honokhukthai" unicode="&#xe2e;" horiz-adv-x="474" 
d="M246 303v-95h-83c-23 0 -32 -9 -32 -34v-68c21 -8 63 -18 104 -18c51 0 99 16 99 72v173c0 60 -45 79 -100 79c-63 0 -139 -25 -176 -44l-17 89c57 28 125 50 194 50c39 0 77 -7 109 -22l11 45h100l-13 -55c-6 -24 -14 -39 -29 -52c13 -23 21 -51 21 -86v-186
c0 -118 -97 -158 -199 -158c-77 0 -155 23 -204 51v136c0 77 35 123 127 123h88z" />
    <glyph glyph-name="paiyannoithai" unicode="&#xe2f;" horiz-adv-x="440" 
d="M230 493v-93c-15 6 -37 12 -56 12c-27 0 -51 -10 -51 -47v-13c0 -34 18 -48 49 -48c40 0 91 19 128 43v153h100v-500h-100v247c-44 -25 -93 -38 -135 -38c-80 0 -142 46 -142 141v14c0 96 56 143 132 143c24 0 49 -5 75 -14z" />
    <glyph glyph-name="saraathai" unicode="&#xe30;" horiz-adv-x="294" 
d="M129 464v-31c0 -16 7 -24 24 -24h111v-95h-135c-63 0 -100 27 -100 95v55h100zM129 188v-31c0 -16 7 -24 24 -24h111v-95h-135c-63 0 -100 27 -100 95v55h100z" />
    <glyph glyph-name="maihanakatthai" unicode="&#xe31;" 
d="M-197 720v-41c0 -16 7 -24 24 -24h183v-95h-207c-63 0 -100 27 -100 95v65h100z" />
    <glyph glyph-name="saraaathai" unicode="&#xe32;" horiz-adv-x="335" 
d="M295 0h-100v334c0 60 -44 78 -93 78c-29 0 -58 -6 -82 -14v93c29 10 62 16 95 16c91 0 180 -44 180 -167v-340z" />
    <glyph glyph-name="saraamthai" unicode="&#xe33;" horiz-adv-x="337" 
d="M295 0h-100v334c0 60 -44 78 -93 78c-29 0 -58 -6 -82 -14v93c29 10 62 16 95 16c91 0 180 -44 180 -167v-340zM-203 639c0 48 37 85 83 85c48 0 85 -37 85 -85c0 -46 -37 -83 -85 -83c-46 0 -83 37 -83 83zM-144 639c0 -13 12 -24 24 -24c14 0 25 11 25 24
c0 14 -11 25 -25 25c-12 0 -24 -11 -24 -25z" />
    <glyph glyph-name="saraithai" unicode="&#xe34;" 
d="M-407 560l21 90h346v-90h-367z" />
    <glyph glyph-name="saraiithai" unicode="&#xe35;" 
d="M-407 560l21 90h246l7 60h93v-150h-367z" />
    <glyph glyph-name="sarauethai" unicode="&#xe36;" 
d="M-407 560l21 90h184c5 42 40 74 82 74c48 0 85 -34 85 -82c0 -46 -37 -82 -85 -82h-287zM-149 642c0 -16 14 -29 29 -29c17 0 30 13 30 29c0 17 -13 30 -30 30c-15 0 -29 -13 -29 -30z" />
    <glyph glyph-name="saraueethai" unicode="&#xe37;" 
d="M-407 560l21 90h121l7 60h88v-60h35l7 60h88v-150h-367z" />
    <glyph glyph-name="sarauthai" unicode="&#xe38;" 
d="M-88 -250h-100v75c0 12 -5 18 -17 18h-29v97h42c74 0 104 -30 104 -101v-89z" />
    <glyph glyph-name="sarauuthai" unicode="&#xe39;" 
d="M-302 -159v99h91v-96c0 -9 6 -14 15 -14c5 0 11 2 18 7v103h90v-146c-28 -29 -65 -44 -108 -44c-54 0 -106 26 -106 91z" />
    <glyph glyph-name="phinthuthai" unicode="&#xe3a;" 
d="M-239 -140c0 44 36 80 80 80s80 -36 80 -80s-36 -80 -80 -80s-80 36 -80 80z" />
    <glyph glyph-name="bahtthai" unicode="&#xe3f;" horiz-adv-x="512" 
d="M302 733v-97c103 -13 159 -84 159 -166c0 -58 -27 -110 -80 -147c69 -40 97 -95 97 -148c0 -97 -65 -161 -176 -177v-98h-100v94c-58 3 -115 13 -160 24v620h160v95h100zM142 97c16 -3 37 -6 60 -8v188h-60v-180zM378 184c0 43 -24 79 -76 90v-180c43 11 76 36 76 90z
M142 543v-171h60v171h-60zM361 458c0 38 -18 70 -59 81v-163c40 12 59 44 59 82z" />
    <glyph glyph-name="saraethai" unicode="&#xe40;" horiz-adv-x="200" 
d="M180 96v-96h-27c-84 0 -113 31 -113 107v393h100v-385c0 -13 5 -19 19 -19h21z" />
    <glyph glyph-name="saraaethai" unicode="&#xe41;" horiz-adv-x="385" 
d="M180 96v-96h-27c-84 0 -113 31 -113 107v393h100v-385c0 -13 5 -19 19 -19h21zM365 96v-96h-27c-84 0 -113 31 -113 107v393h100v-385c0 -13 5 -19 19 -19h21z" />
    <glyph glyph-name="saraothai" unicode="&#xe42;" horiz-adv-x="250" 
d="M316 850v-95h-115c-56 0 -78 -25 -78 -74v-15c0 -59 57 -109 57 -227v-324c0 -13 5 -19 19 -19h21v-96h-27c-84 0 -113 31 -113 107v320c0 95 -57 163 -57 235v18c0 100 40 170 167 170h126z" />
    <glyph glyph-name="saraaimaimuanthai" unicode="&#xe43;" horiz-adv-x="275" 
d="M113 644l-77 -58c-32 35 -44 71 -44 108v9c0 100 78 147 157 147s160 -47 160 -147v-15c0 -117 -109 -168 -109 -273v-300c0 -13 5 -19 19 -19h21v-96h-27c-84 0 -113 31 -113 107v317c0 120 109 188 109 257v19c0 38 -30 55 -60 55c-29 0 -57 -16 -57 -52v-9
c0 -20 8 -37 21 -50z" />
    <glyph glyph-name="saraaimaimalaithai" unicode="&#xe44;" horiz-adv-x="245" 
d="M-24 755v95h147c92 0 127 -41 127 -121v-15c0 -89 -75 -135 -75 -251v-348c0 -13 5 -19 19 -19h21v-96h-27c-84 0 -113 31 -113 107v359c0 134 76 193 76 243v12c0 26 -11 34 -36 34h-139z" />
    <glyph glyph-name="lakkhangyaothai" unicode="&#xe45;" horiz-adv-x="335" 
d="M295 -200h-100v534c0 60 -44 78 -93 78c-29 0 -58 -6 -82 -14v93c29 10 62 16 95 16c91 0 180 -44 180 -167v-540z" />
    <glyph glyph-name="maiyamokthai" unicode="&#xe46;" horiz-adv-x="460" 
d="M252 265v-90c-28 -12 -58 -18 -86 -18c-78 0 -146 47 -146 153v60c0 82 62 137 139 137c41 0 63 -8 93 -30l53 -40l17 63h98v-700h-100v526c-28 0 -37 3 -62 22l-62 47c-14 11 -25 17 -40 17c-22 0 -36 -14 -36 -44v-56c0 -47 27 -60 61 -60c22 0 48 6 71 13z" />
    <glyph glyph-name="maitaikhuthai" unicode="&#xe47;" 
d="M-96 645v-85h-72c-37 0 -60 13 -78 39l-7 -39h-88v91c0 67 27 99 95 99h198v-85h-198c19 -15 39 -20 72 -20h78z" />
    <glyph glyph-name="maiekthai" unicode="&#xe48;" 
d="M-40 750h-90l6 135h84v-135z" />
    <glyph glyph-name="maithothai" unicode="&#xe49;" 
d="M40 831l-12 -81h-199c-50 0 -66 23 -66 65v16h-44l16 81h49c44 0 64 -17 64 -61v-20h192z" />
    <glyph glyph-name="maitrithai" unicode="&#xe4a;" 
d="M-209 820v-62c-15 -5 -32 -8 -44 -8c-45 0 -69 28 -69 75v14c0 50 32 77 67 77c27 0 48 -14 69 -34l6 29h56v-88c9 0 13 7 18 26l17 67h77l-20 -79c-15 -60 -52 -87 -104 -87c-19 0 -35 4 -55 12v66c-16 11 -32 20 -49 20c-9 0 -14 -5 -14 -14c0 -14 10 -16 21 -16
c7 0 19 1 24 2z" />
    <glyph glyph-name="maichattawathai" unicode="&#xe4b;" 
d="M-40 750h-90v29h-36v78h36v28h90v-28h36v-78h-36v-29z" />
    <glyph glyph-name="thanthakhatthai" unicode="&#xe4c;" 
d="M-180 720h-77c-8 22 -13 45 -13 65c0 49 23 88 79 88h175l-13 -81h-128c-16 0 -23 -4 -23 -23v-49z" />
    <glyph glyph-name="nikhahitthai" unicode="&#xe4d;" 
d="M-203 639c0 48 37 85 83 85c48 0 85 -37 85 -85c0 -46 -37 -83 -85 -83c-46 0 -83 37 -83 83zM-144 639c0 -13 12 -24 24 -24c14 0 25 11 25 24c0 14 -11 25 -25 25c-12 0 -24 -11 -24 -25z" />
    <glyph glyph-name="yamakkanthai" unicode="&#xe4e;" 
 />
    <glyph glyph-name="fongmanthai" unicode="&#xe4f;" horiz-adv-x="514" 
d="M481 226c0 -125 -101 -226 -226 -226s-226 101 -226 226s101 226 226 226s226 -101 226 -226zM430 226c0 96 -79 175 -175 175s-175 -79 -175 -175s79 -175 175 -175s175 79 175 175zM374 226c0 -65 -54 -119 -119 -119s-119 54 -119 119s54 119 119 119
s119 -54 119 -119z" />
    <glyph glyph-name="zerothai" unicode="&#xe50;" horiz-adv-x="460" 
d="M38 154v51c0 117 97 175 193 175s191 -58 191 -174v-145c-60 -42 -115 -68 -191 -68c-100 0 -193 47 -193 161zM138 199v-43c0 -49 46 -68 93 -68c34 0 67 9 91 24v94c0 52 -46 79 -91 79c-47 0 -93 -29 -93 -86z" />
    <glyph glyph-name="onethai" unicode="&#xe51;" horiz-adv-x="460" 
d="M272 236v-92c-23 -11 -51 -16 -79 -16c-69 0 -138 35 -138 115v14c0 68 56 123 166 123c112 0 192 -64 192 -177v-28c0 -118 -86 -175 -184 -175h-146v95h149c55 0 81 20 81 80v28c0 59 -47 82 -99 82c-32 0 -59 -13 -59 -32c0 -20 19 -30 48 -30c25 0 53 7 69 13z" />
    <glyph glyph-name="twothai" unicode="&#xe52;" horiz-adv-x="460" 
d="M233 270v-20c0 -27 17 -40 38 -40c11 0 22 2 34 5v-82c-21 -6 -39 -8 -56 -8c-71 0 -106 40 -106 123v16c0 78 42 116 95 116c31 0 52 -11 73 -28l26 -21l19 42h87v-327c-67 -34 -143 -53 -215 -53c-116 0 -213 50 -213 167v340h100v-336c0 -57 54 -76 113 -76
c42 0 83 9 115 21v131c-21 0 -31 2 -47 16l-30 26c-7 6 -12 8 -19 8c-8 0 -14 -7 -14 -20z" />
    <glyph glyph-name="threethai" unicode="&#xe53;" horiz-adv-x="460" 
d="M289 109v-93c-30 -15 -64 -23 -98 -23c-82 0 -160 44 -160 150v93c0 92 62 144 139 144c44 0 72 -11 101 -34l43 -35l18 62h96v-373h-100v199c-26 0 -36 5 -59 25l-47 40c-16 14 -29 21 -49 21c-23 0 -42 -17 -42 -51v-90c0 -44 30 -56 67 -56c31 0 65 10 91 21z" />
    <glyph glyph-name="fourthai" unicode="&#xe54;" horiz-adv-x="460" 
d="M406 99v-99h-50c-34 0 -62 8 -83 23c-27 -20 -62 -30 -95 -30c-83 0 -149 50 -149 148v71c0 115 59 161 168 161h71c39 0 53 14 59 44l17 83h100l-19 -93c-19 -95 -61 -129 -155 -129h-73c-46 0 -66 -22 -66 -67v-69c0 -40 25 -54 54 -54c15 0 30 3 44 10
c-1 8 -1 12 -1 18v15c0 57 47 115 122 115h50v-98h-50c-16 0 -22 -13 -22 -25s6 -24 22 -24h56z" />
    <glyph glyph-name="fivethai" unicode="&#xe55;" horiz-adv-x="460" 
d="M130 386c0 48 37 85 83 85c48 0 85 -37 85 -85c0 -3 0 -5 -1 -9c18 6 26 19 30 40l17 83h100l-19 -93c-19 -95 -61 -129 -155 -129h-73c-46 0 -66 -22 -66 -67v-69c0 -40 25 -54 54 -54c15 0 30 3 44 10c-1 8 -1 12 -1 18v15c0 57 47 115 122 115h50v-98h-50
c-16 0 -22 -13 -22 -25s6 -24 22 -24h56v-99h-50c-34 0 -62 8 -83 23c-27 -20 -62 -30 -95 -30c-83 0 -149 50 -149 148v71c0 89 37 137 104 154c-2 6 -3 13 -3 20zM189 386c0 -13 12 -24 24 -24c14 0 25 11 25 24c0 14 -11 25 -25 25c-12 0 -24 -11 -24 -25z" />
    <glyph glyph-name="sixthai" unicode="&#xe56;" horiz-adv-x="460" 
d="M260 232v-94c-10 3 -37 9 -61 9c-23 0 -43 -6 -43 -25v-5c0 -21 25 -29 67 -29c38 0 62 6 88 20v98c0 53 -17 72 -66 72h-34c-92 0 -122 37 -150 121l-33 101h105l29 -88c9 -28 24 -39 58 -39h25c105 0 166 -58 166 -167v-155c-45 -31 -112 -58 -188 -58
c-84 0 -167 31 -167 120v17c0 88 55 112 120 112c27 0 57 -4 84 -10z" />
    <glyph glyph-name="seventhai" unicode="&#xe57;" horiz-adv-x="541" 
d="M362 373v-285c20 0 34 9 38 39l49 373h101l-53 -379c-13 -91 -59 -121 -158 -121h-77v210c-28 0 -36 5 -59 25l-47 40c-8 7 -13 10 -21 10c-11 0 -16 -12 -16 -32v-109c0 -42 29 -56 61 -56c17 0 35 4 50 9v-94c-21 -7 -42 -10 -63 -10c-78 0 -148 48 -148 148v112
c0 81 43 127 116 127c33 0 54 -8 76 -26l41 -33l19 52h91z" />
    <glyph glyph-name="eightthai" unicode="&#xe58;" horiz-adv-x="460" 
d="M246 139v97h47c80 0 126 -49 126 -107v-19c0 -81 -67 -117 -140 -117c-57 0 -118 22 -152 63l-7 -56h-93v216c0 112 50 157 159 157h82c39 0 53 14 59 44l17 83h100l-19 -93c-19 -95 -61 -129 -155 -129h-77c-51 0 -66 -21 -66 -72v-55c42 -37 93 -63 143 -63
c34 0 49 9 49 29c0 14 -9 22 -26 22h-47z" />
    <glyph glyph-name="ninethai" unicode="&#xe59;" horiz-adv-x="460" 
d="M12 207c0 116 64 173 148 173c30 0 59 -7 84 -23c13 9 30 16 50 16h10c23 0 28 8 32 28l21 99h100l-23 -112c-16 -77 -41 -110 -119 -110h-8l9 -24l76 -254h-102l-68 226c-12 38 -34 59 -61 59c-31 0 -49 -24 -49 -76v-62c0 -45 20 -59 49 -59c16 0 34 3 52 9v-93
c-20 -7 -39 -11 -58 -11c-95 0 -143 53 -143 152v62z" />
    <glyph glyph-name="angkhankhuthai" unicode="&#xe5a;" horiz-adv-x="580" 
d="M230 493v-93c-15 6 -37 12 -56 12c-27 0 -51 -10 -51 -47v-13c0 -34 18 -48 49 -48c40 0 91 19 128 43v153h100v-500h-100v247c-44 -25 -93 -38 -135 -38c-80 0 -142 46 -142 141v14c0 96 56 143 132 143c24 0 49 -5 75 -14zM440 0v500h100v-500h-100z" />
    <glyph glyph-name="khomutthai" unicode="&#xe5b;" horiz-adv-x="524" 
d="M464 0h-404v518l17 82h387v-600zM110 555v-510h304v510h-304z" />
    <glyph glyph-name="saraulowthai" unicode="&#xf718;" 
d="M-88 -420h-100v75c0 12 -5 18 -17 18h-29v97h42c74 0 104 -30 104 -101v-89z" />
    <glyph glyph-name="sarauulowthai" unicode="&#xf719;" 
d="M-302 -329v99h91v-96c0 -9 6 -14 15 -14c5 0 11 2 18 7v103h90v-146c-28 -29 -65 -44 -108 -44c-54 0 -106 26 -106 91z" />
    <glyph glyph-name="phinthulowthai" unicode="&#xf71a;" 
d="M-239 -310c0 44 36 80 80 80s80 -36 80 -80s-36 -80 -80 -80s-80 36 -80 80z" />
    <glyph glyph-name="lochula.short" unicode="&#xf71d;" horiz-adv-x="552" 
d="M403 197l4 102c1 34 -10 46 -39 46h-11v95h6c35 0 44 17 52 56l7 34h102l-6 -34c-8 -48 -21 -76 -56 -102c39 -19 49 -42 46 -91l-16 -303h-52c-43 0 -67 8 -80 41l-84 217l-84 -217c-13 -33 -37 -41 -80 -41h-52l-27 500h101l15 -303l77 195h100z" />
    <glyph glyph-name="saraamleft" horiz-adv-x="335" 
d="M295 0h-100v334c0 60 -44 78 -93 78c-29 0 -58 -6 -82 -14v93c29 10 62 16 95 16c91 0 180 -44 180 -167v-340zM-341 639c0 48 37 85 83 85c48 0 85 -37 85 -85c0 -46 -37 -83 -85 -83c-46 0 -83 37 -83 83zM-282 639c0 -13 12 -24 24 -24c14 0 25 11 25 24
c0 14 -11 25 -25 25c-12 0 -24 -11 -24 -25z" />
    <glyph glyph-name="yamakkanleftthai" horiz-adv-x="524" 
d="M464 0h-404v518l17 82h387v-600zM110 555v-510h304v510h-304z" />
    <glyph glyph-name="Typomancer" horiz-adv-x="607" 
d="M99 380l190 47l-148 31c-28 6 -47 7 -71 -8l-13 -9zM527 348l-76 -30c30 -12 51 -40 51 -73c0 -42 -35 -77 -77 -77c-28 0 -52 15 -60 30v-170c103 26 180 120 180 230c0 36 -7 65 -18 90zM238 103v297l-142 -36c-16 -32 -24 -68 -24 -106c0 -76 36 -145 93 -188z
M348 -55v61c-13 -2 -26 -3 -40 -3c-141 0 -255 115 -255 255c0 43 9 79 31 115l-47 71l80 55c13 10 30 11 50 9l70 -6v30c0 27 13 48 38 59l90 40v-17l-49 -23v-78l-39 -16l71 -7v78l17 8v-88l215 -22v-6l-90 -40c-43 -19 -71 -23 -113 -12l-12 3v-84l-17 -15v102l-32 7
v-262c0 -27 -16 -46 -39 -57l-96 -43c37 -24 80 -38 127 -38c14 0 27 2 40 4v205l17 15c0 -33 27 -60 60 -60s60 27 60 60c0 34 -27 60 -60 60v17l111 47c19 -29 27 -76 27 -111c0 -121 -85 -223 -198 -248v-49l-16 -17zM123 258c0 -61 25 -113 79 -152l-18 -9
c-49 37 -80 96 -80 161c0 36 9 69 24 98l29 10c-22 -31 -34 -67 -34 -108zM148 471l232 -46c34 -7 60 -9 103 10l49 22l-368 38c-15 2 -28 -1 -39 -7l-20 -14c11 2 29 0 43 -3zM253 404v-295l21 10c15 6 26 19 26 40v257zM300 523v60l-21 -9c-15 -7 -26 -20 -26 -40v-29z
M425 212c-19 0 -33 15 -33 33s14 33 33 33c18 0 32 -15 32 -33s-14 -33 -32 -33z" />
    <glyph glyph-name="exclamdown" unicode="&#xa1;" horiz-adv-x="208" 
d="M152 373l7 -520h-110l7 520h96zM34 500c0 39 31 70 70 70s70 -31 70 -70s-31 -70 -70 -70s-70 31 -70 70z" />
    <glyph glyph-name="cent" unicode="&#xa2;" horiz-adv-x="415" 
d="M293 -120h-100v118c-102 19 -168 94 -168 212v71c0 117 60 197 168 219v120h100v-115c29 -4 60 -12 91 -24l-11 -92c-27 11 -54 18 -80 21v-318c32 7 62 19 89 38l12 -98c-35 -21 -67 -31 -101 -36v-116zM125 217c0 -63 28 -101 68 -118v298c-41 -19 -68 -57 -68 -117
v-63z" />
    <glyph glyph-name="sterling" unicode="&#xa3;" horiz-adv-x="483" 
d="M47 389h73v134c0 131 80 194 180 194c47 0 99 -14 149 -42l-26 -91c-41 25 -81 38 -115 38c-52 0 -88 -32 -88 -104v-129h152v-95h-152v-80c0 -50 -10 -90 -49 -119h296v-95h-447v95h20c55 0 80 18 80 94v105h-73v95z" />
    <glyph glyph-name="yen" unicode="&#xa5;" horiz-adv-x="612" 
d="M123 378h77l-193 332h114l185 -317l185 317h114l-194 -332h77v-95h-132v-56h132v-95h-132v-132h-100v132h-133v95h133v56h-133v95z" />
    <glyph glyph-name="brokenbar" unicode="&#xa6;" horiz-adv-x="220" 
d="M160 377h-100v383h100v-383zM160 -100h-100v383h100v-383z" />
    <glyph glyph-name="section" unicode="&#xa7;" horiz-adv-x="447" 
d="M417 346c0 -74 -67 -120 -162 -127c91 -22 139 -66 139 -133c0 -113 -91 -143 -194 -143c-63 0 -133 14 -181 28l13 101c34 -13 107 -34 167 -34c52 0 94 11 94 54c0 86 -262 63 -262 230c0 73 58 117 171 124c-98 11 -148 65 -148 136c0 98 86 135 179 135
c58 0 118 -12 162 -26l-14 -92c-22 8 -88 23 -143 23c-45 0 -83 -12 -83 -44c0 -94 262 -58 262 -232zM139 331c0 -28 44 -41 87 -41c41 0 82 12 82 37c0 28 -44 42 -87 42c-41 0 -82 -13 -82 -38z" />
    <glyph glyph-name="dieresis" unicode="&#xa8;" horiz-adv-x="355" 
d="M23 642c0 34 28 62 62 62s62 -28 62 -62s-28 -62 -62 -62s-62 28 -62 62zM208 642c0 34 28 62 62 62s62 -28 62 -62s-28 -62 -62 -62s-62 28 -62 62z" />
    <glyph glyph-name="ordfeminine" unicode="&#xaa;" horiz-adv-x="306" 
d="M274 400h-66l-4 26c-28 -20 -57 -30 -87 -30c-71 0 -96 48 -96 96c0 53 34 98 102 102l81 5v13c0 31 -23 40 -52 40c-37 0 -84 -16 -104 -24l-5 67c32 13 73 22 111 22c63 0 120 -25 120 -102v-215zM139 534c-37 -2 -48 -21 -48 -41s12 -30 32 -30c30 0 60 14 81 27v48z
" />
    <glyph glyph-name="guillemotleft" unicode="&#xab;" horiz-adv-x="488" 
d="M116 250l136 -134v-125l-228 225v68l228 225v-125zM318 250l136 -134v-125l-228 225v68l228 225v-125z" />
    <glyph glyph-name="guillemotright" unicode="&#xbb;" horiz-adv-x="488" 
d="M236 116l136 134l-136 134v125l228 -225v-68l-228 -225v125zM34 116l136 134l-136 134v125l228 -225v-68l-228 -225v125z" />
    <glyph glyph-name="logicalnot" unicode="&#xac;" horiz-adv-x="420" 
d="M380 165h-100v96h-250v95h350v-191z" />
    <glyph glyph-name="uni00AD" unicode="&#xad;" horiz-adv-x="273" 
d="M30 297h213v-95h-213v95z" />
    <glyph glyph-name="macron" unicode="&#xaf;" horiz-adv-x="366" 
d="M30 655h306v-95h-306v95z" />
    <glyph glyph-name="degree" unicode="&#xb0;" horiz-adv-x="333" 
d="M109 584c0 -38 20 -57 58 -57c39 0 58 19 58 57c0 39 -19 58 -58 58c-38 0 -58 -19 -58 -58zM299 584c0 -82 -49 -132 -132 -132c-82 0 -131 50 -131 132c0 83 49 133 131 133c83 0 132 -50 132 -133z" />
    <glyph glyph-name="plusminus" unicode="&#xb1;" horiz-adv-x="419" 
d="M382 263h-121v-126h-100v126h-124v95h124v124h100v-124h121v-95zM37 95h345v-95h-345v95z" />
    <glyph glyph-name="twosuperior" unicode="&#xb2;" horiz-adv-x="274" 
d="M38 766l-3 69c28 13 59 22 91 22c54 0 103 -24 103 -95c0 -56 -43 -103 -105 -157h125v-65h-223v58c78 60 133 107 133 159c0 26 -16 35 -37 35c-29 0 -62 -15 -84 -26z" />
    <glyph glyph-name="threesuperior" unicode="&#xb3;" horiz-adv-x="274" 
d="M28 562l7 65c25 -13 57 -27 90 -27c35 0 50 15 50 37c0 23 -17 34 -57 34h-48v60h48c33 0 51 8 51 32c0 17 -13 29 -42 29c-27 0 -63 -13 -81 -21l-4 68c21 7 59 18 89 18c73 0 108 -33 108 -81c0 -25 -12 -56 -48 -75c37 -19 55 -44 55 -74c0 -67 -58 -92 -117 -92
c-42 0 -74 11 -101 27z" />
    <glyph glyph-name="acute" unicode="&#xb4;" horiz-adv-x="223" 
d="M216 710l-101 -140h-109l84 140h126z" />
    <glyph glyph-name="mu" unicode="&#xb5;" horiz-adv-x="485" 
d="M145 -200h-100v700h100v-352c0 -37 16 -60 57 -60c51 0 107 41 138 76v336h100v-500h-93l-7 58c-37 -34 -93 -65 -141 -65c-20 0 -36 3 -54 15v-208z" />
    <glyph glyph-name="paragraph" unicode="&#xb6;" horiz-adv-x="639" 
d="M261 710h328v-810h-100v715h-58v-715h-100v363h-70c-174 0 -225 112 -225 224s51 223 225 223z" />
    <glyph glyph-name="periodcentered" unicode="&#xb7;" horiz-adv-x="196" 
d="M39 300c0 33 26 59 59 59s59 -26 59 -59s-26 -59 -59 -59s-59 26 -59 59z" />
    <glyph glyph-name="cedilla" unicode="&#xb8;" horiz-adv-x="188" 
d="M13 -177l13 61c15 -6 39 -13 57 -13c15 0 27 5 27 19c0 10 -6 15 -16 15h-52l20 95h68l-8 -39c39 -14 53 -37 53 -70c0 -61 -41 -82 -90 -82c-24 0 -49 6 -72 14z" />
    <glyph glyph-name="onesuperior" unicode="&#xb9;" horiz-adv-x="274" 
d="M70 717l-39 54l90 79h61v-245h62v-65h-194v65h62v149z" />
    <glyph glyph-name="ordmasculine" unicode="&#xba;" horiz-adv-x="329" 
d="M164 461c51 0 71 32 71 84v23c0 52 -20 84 -71 84s-71 -32 -71 -84v-23c0 -52 20 -84 71 -84zM164 396c-101 0 -141 69 -141 146v28c0 78 40 147 141 147s141 -69 141 -147v-28c0 -77 -40 -146 -141 -146z" />
    <glyph glyph-name="onequarter" unicode="&#xbc;" horiz-adv-x="713" 
d="M544 310h64v-202h39v-65h-39v-43h-70v43h-132v53zM488 108h50v77zM70 577l-39 54l90 79h61v-245h62v-65h-194v65h62v149zM599 710h86l-571 -710h-86z" />
    <glyph glyph-name="onehalf" unicode="&#xbd;" horiz-adv-x="713" 
d="M70 577l-39 54l90 79h61v-245h62v-65h-194v65h62v149zM599 710h86l-571 -710h-86zM441 226l-3 69c28 13 59 22 91 22c54 0 103 -24 103 -95c0 -56 -43 -103 -105 -157h125v-65h-223v58c78 60 133 107 133 159c0 26 -16 35 -37 35c-29 0 -62 -15 -84 -26z" />
    <glyph glyph-name="threequarters" unicode="&#xbe;" horiz-adv-x="713" 
d="M544 310h64v-202h39v-65h-39v-43h-70v43h-132v53zM488 108h50v77zM599 710h86l-571 -710h-86zM28 422l7 65c25 -13 57 -27 90 -27c35 0 50 15 50 37c0 23 -17 34 -57 34h-48v60h48c33 0 51 8 51 32c0 17 -13 29 -42 29c-27 0 -63 -13 -81 -21l-4 68c21 7 59 18 89 18
c73 0 108 -33 108 -81c0 -25 -12 -56 -48 -75c37 -19 55 -44 55 -74c0 -67 -58 -92 -117 -92c-42 0 -74 11 -101 27z" />
    <glyph glyph-name="questiondown" unicode="&#xbf;" horiz-adv-x="433" 
d="M178 373h100v-21c0 -168 -151 -210 -151 -333c0 -60 42 -78 94 -78c54 0 120 20 159 32l15 -92c-52 -20 -118 -35 -179 -35c-100 0 -189 41 -189 173c0 170 151 187 151 337v17zM297 500c0 -39 -31 -70 -70 -70s-70 31 -70 70s31 70 70 70s70 -31 70 -70z" />
    <glyph glyph-name="AE" unicode="&#xc6;" horiz-adv-x="865" 
d="M519 403h248v-95h-244l8 -213h296v-95h-396l-7 213h-223l-80 -213h-109l268 710h533v-95h-301zM421 308l-9 307h-58l-117 -307h184z" />
    <glyph glyph-name="Thorn" unicode="&#xde;" horiz-adv-x="533" 
d="M51 0v710h100v-112c26 3 51 5 76 5c153 0 270 -70 270 -231c0 -118 -76 -223 -242 -223h-104v-149h-100zM151 501v-257h104c98 0 142 60 142 130c0 103 -85 134 -171 134c-25 0 -52 -3 -75 -7z" />
    <glyph glyph-name="germandbls" unicode="&#xdf;" horiz-adv-x="489" 
d="M426 678l-116 -283c83 -50 157 -111 157 -232c0 -131 -75 -170 -163 -170c-33 0 -74 8 -107 21l13 101c26 -15 60 -27 90 -27c38 0 66 18 66 70c0 62 -45 119 -149 187v66l88 214c-29 13 -57 20 -80 20c-49 0 -80 -30 -80 -94v-551h-100v560c0 130 78 180 175 180
c67 0 139 -28 206 -62z" />
    <glyph glyph-name="ae" unicode="&#xe6;" horiz-adv-x="748" 
d="M679 136l13 -95c-55 -33 -109 -48 -159 -48c-73 0 -129 24 -168 67c-43 -30 -114 -67 -187 -67c-93 0 -150 54 -150 149c0 110 70 159 179 165l104 6c2 12 4 22 7 32c-4 51 -45 67 -95 67c-58 0 -126 -21 -154 -34l-12 97c50 19 110 32 167 32c61 0 118 -16 155 -54
c37 36 86 54 137 54c104 0 203 -76 203 -222c0 -26 -4 -56 -13 -87h-298c14 -78 66 -110 128 -110c46 0 97 17 143 48zM197 88c41 0 89 20 126 42c-10 27 -16 57 -18 90l-96 -5c-59 -3 -81 -35 -81 -73c0 -32 23 -54 69 -54zM516 412c-62 0 -96 -55 -107 -119h210
c0 78 -42 119 -103 119z" />
    <glyph glyph-name="thorn" unicode="&#xfe;" horiz-adv-x="489" 
d="M145 -200h-100v933h100v-270c37 30 77 44 117 44c117 0 198 -95 198 -225v-55c0 -158 -73 -234 -214 -234c-31 0 -65 5 -101 14v-207zM145 361v-252c36 -14 70 -21 100 -21c80 0 115 37 115 141v52c0 86 -43 131 -104 131c-37 0 -77 -17 -111 -51z" />
    <glyph glyph-name="eth" unicode="&#xf0;" horiz-adv-x="489" 
d="M149 560l63 70c-22 9 -46 15 -70 19l66 68c24 -4 46 -10 66 -18l34 38h108l-70 -78c63 -50 89 -126 89 -220v-374c-76 -48 -149 -72 -212 -72c-134 0 -194 78 -194 231v58c0 130 72 225 189 225c40 0 80 -14 117 -44c0 51 -21 93 -54 124l-24 -27h-108zM335 118v243
c-34 34 -74 51 -111 51c-61 0 -95 -45 -95 -131v-55c0 -109 31 -138 94 -138c32 0 71 11 112 30z" />
    <glyph glyph-name="circumflex" unicode="&#x2c6;" horiz-adv-x="296" 
d="M0 570l116 140h64l116 -140h-111l-37 64l-37 -64h-111z" />
    <glyph glyph-name="caron" unicode="&#x2c7;" horiz-adv-x="296" 
d="M116 570l-116 140h111l37 -64l37 64h111l-116 -140h-64z" />
    <glyph glyph-name="breve" unicode="&#x2d8;" horiz-adv-x="292" 
d="M25 657v53h85v-49c0 -20 16 -24 34 -24c14 0 25 2 35 6v67h85v-109c-36 -24 -72 -41 -120 -41c-65 0 -119 25 -119 97z" />
    <glyph glyph-name="dotaccent" unicode="&#x2d9;" horiz-adv-x="170" 
d="M23 642c0 34 28 62 62 62s62 -28 62 -62s-28 -62 -62 -62s-62 28 -62 62z" />
    <glyph glyph-name="ring" unicode="&#x2da;" horiz-adv-x="201" 
d="M21 638c0 47 32 79 78 79c47 0 79 -32 79 -79c0 -46 -32 -78 -79 -78c-46 0 -78 32 -78 78zM75 638c0 -15 9 -24 24 -24c16 0 25 9 25 24c0 16 -9 25 -25 25c-15 0 -24 -9 -24 -25z" />
    <glyph glyph-name="ogonek" unicode="&#x2db;" horiz-adv-x="176" 
d="M163 -104l10 -62c-18 -10 -43 -16 -67 -16c-46 0 -91 23 -91 85c0 33 19 71 50 97h93c-34 -25 -68 -54 -68 -86c0 -21 14 -28 31 -28c15 0 31 5 42 10z" />
    <glyph glyph-name="tilde" unicode="&#x2dc;" horiz-adv-x="326" 
d="M112 624c-18 0 -25 -20 -27 -40l-74 19c18 72 52 101 90 101c50 0 84 -44 114 -44c18 0 25 20 27 40l74 -19c-16 -72 -51 -101 -88 -101c-51 0 -91 44 -116 44z" />
    <glyph glyph-name="hungarumlaut" unicode="&#x2dd;" horiz-adv-x="366" 
d="M206 710l-101 -140h-99l84 140h116zM354 710l-101 -140h-99l84 140h116z" />
    <glyph glyph-name="pi" unicode="&#x3c0;" horiz-adv-x="582" 
d="M208 0h-100v405h-78v95h520v-95h-76v-269c0 -36 16 -48 38 -48c15 0 32 6 48 14l6 -90c-25 -13 -51 -19 -75 -19c-73 0 -117 46 -117 141v271h-166v-405z" />
    <glyph glyph-name="quotesinglbase" unicode="&#x201a;" horiz-adv-x="207" 
d="M196 100l-82 -230h-100l55 230h127z" />
    <glyph glyph-name="quotedblbase" unicode="&#x201e;" horiz-adv-x="386" 
d="M371 100l-82 -230h-100l55 230h127zM196 100l-82 -230h-100l55 230h127z" />
    <glyph glyph-name="dagger" unicode="&#x2020;" horiz-adv-x="340" 
d="M25 500h95v210h100v-210h96v-95h-96v-505h-100v505h-95v95z" />
    <glyph glyph-name="daggerdbl" unicode="&#x2021;" horiz-adv-x="340" 
d="M25 205h95v200h-95v95h95v210h100v-210h96v-95h-96v-200h96v-95h-96v-210h-100v210h-95v95z" />
    <glyph glyph-name="perthousand" unicode="&#x2030;" horiz-adv-x="1096" 
d="M720 710l-563 -710h-124l563 710h124zM43 569c0 82 66 148 148 148s148 -66 148 -148s-66 -148 -148 -148s-148 66 -148 148zM139 569c0 -29 23 -52 52 -52c30 0 53 23 53 52c0 30 -23 53 -53 53c-29 0 -52 -23 -52 -53zM414 141c0 82 66 148 148 148s148 -66 148 -148
s-66 -148 -148 -148s-148 66 -148 148zM510 141c0 -29 23 -52 52 -52c30 0 53 23 53 52c0 30 -23 53 -53 53c-29 0 -52 -23 -52 -53zM753 141c0 82 66 148 148 148s148 -66 148 -148s-66 -148 -148 -148s-148 66 -148 148zM849 141c0 -29 23 -52 52 -52c30 0 53 23 53 52
c0 30 -23 53 -53 53c-29 0 -52 -23 -52 -53z" />
    <glyph glyph-name="guilsinglleft" unicode="&#x2039;" horiz-adv-x="339" 
d="M28 216v68l281 216v-125l-165 -125l165 -125v-125z" />
    <glyph glyph-name="guilsinglright" unicode="&#x203a;" horiz-adv-x="339" 
d="M309 284v-68l-281 -216v125l165 125l-165 125v125z" />
    <glyph glyph-name="Omega" unicode="&#x2126;" horiz-adv-x="628" 
d="M314 619c-108 0 -178 -71 -178 -189s67 -173 137 -185v-245h-209v95h109v75c-65 29 -139 97 -139 260c0 171 84 287 280 287s280 -116 280 -287c0 -163 -74 -231 -139 -260v-75h109v-95h-209v245c70 12 137 67 137 185s-70 189 -178 189z" />
    <glyph glyph-name="Delta" unicode="&#x2206;" horiz-adv-x="648" 
d="M632 0h-616l308 848zM488 95l-164 455l-165 -455h329z" />
    <glyph glyph-name="product" unicode="&#x220f;" horiz-adv-x="585" 
d="M100 615h-80v95h545v-95h-80v-615h-100v615h-185v-615h-100v615z" />
    <glyph glyph-name="summation" unicode="&#x2211;" horiz-adv-x="484" 
d="M276 355l-240 260v95h411v-95h-276l209 -226v-68l-209 -226h276v-95h-411v95z" />
    <glyph glyph-name="minus" unicode="&#x2212;" horiz-adv-x="419" 
d="M382 202h-345v95h345v-95z" />
    <glyph glyph-name="radical" unicode="&#x221a;" horiz-adv-x="543" 
d="M316 0h-112l-95 235h-82v95h154l71 -175l170 578h110z" />
    <glyph glyph-name="uni2215" unicode="&#x2215;" horiz-adv-x="713" 
d="M599 710h86l-571 -710h-86z" />
    <glyph glyph-name="infinity" unicode="&#x221e;" horiz-adv-x="628" 
d="M161 265c-96 0 -135 68 -135 137c0 68 39 137 135 137c39 0 100 -13 163 -64c39 34 84 64 144 64c96 0 135 -68 135 -137c0 -68 -39 -137 -135 -137c-40 0 -101 12 -164 64c-40 -35 -85 -64 -143 -64zM162 445c-28 0 -39 -22 -39 -43c0 -22 11 -43 39 -43
c32 0 60 19 88 45c-28 24 -57 41 -88 41zM467 445c-32 0 -60 -19 -89 -45c29 -25 57 -41 89 -41c28 0 39 22 39 43c0 22 -11 43 -39 43z" />
    <glyph glyph-name="integral" unicode="&#x222b;" horiz-adv-x="389" 
d="M82 -41l74 630c12 99 55 151 147 151c25 0 51 -5 76 -15l-14 -90c-18 6 -37 10 -54 10c-31 0 -50 -14 -55 -60l-74 -630c-12 -106 -58 -162 -142 -162c-25 0 -52 5 -81 15l11 90c17 -6 34 -10 50 -10c35 0 56 19 62 71z" />
    <glyph glyph-name="approxequal" unicode="&#x2248;" horiz-adv-x="419" 
d="M127 269h-96v22c0 70 31 112 87 112c65 0 133 -46 163 -46c7 0 10 4 10 13v24h96v-22c0 -70 -31 -112 -87 -112c-64 0 -133 46 -163 46c-7 0 -10 -4 -10 -13v-24zM127 104h-96v22c0 70 31 112 87 112c65 0 133 -46 163 -46c7 0 10 4 10 13v24h96v-22
c0 -70 -31 -112 -87 -112c-64 0 -133 46 -163 46c-7 0 -10 -4 -10 -13v-24z" />
    <glyph glyph-name="notequal" unicode="&#x2260;" horiz-adv-x="419" 
d="M37 372h166l29 68h116l-29 -68h63v-95h-103l-24 -56h127v-95h-167l-28 -66h-116l28 66h-62v95h102l24 56h-126v95z" />
    <glyph glyph-name="lessequal" unicode="&#x2264;" horiz-adv-x="419" 
d="M37 95h345v-95h-345v95zM37 270v68l345 162v-115l-208 -81l208 -81v-115z" />
    <glyph glyph-name="greaterequal" unicode="&#x2265;" horiz-adv-x="419" 
d="M37 95h345v-95h-345v95zM382 338v-68l-345 -162v115l208 81l-208 81v115z" />
    <glyph glyph-name="lozenge" unicode="&#x25ca;" horiz-adv-x="418" 
d="M209 -64l-184 434l184 434l184 -434zM209 152l81 218l-81 218l-81 -218z" />
    <glyph glyph-name="Euro" unicode="&#x20ac;" horiz-adv-x="561" 
d="M28 312h49v56h-49v95h51c17 175 115 254 263 254c59 0 117 -14 177 -39l-21 -92c-54 22 -109 35 -158 35c-90 0 -146 -44 -160 -158h193v-95h-196v-56h196v-95h-189c19 -91 74 -129 153 -129c60 0 120 23 175 61l24 -97c-57 -38 -128 -59 -198 -59
c-151 0 -238 68 -257 224h-53v95z" />
    <glyph glyph-name="OE" unicode="&#x152;" horiz-adv-x="926" 
d="M888 0h-443c-26 0 -81 -7 -115 -7c-200 0 -290 137 -290 321v82c0 184 90 321 290 321c34 0 89 -7 115 -7h429v-95h-329v-212h283v-95h-283v-213h343v-95zM445 95v520c-29 0 -81 4 -115 4c-117 0 -188 -82 -188 -220v-88c0 -138 71 -220 188 -220c34 0 86 4 115 4z" />
    <glyph glyph-name="oe" unicode="&#x153;" horiz-adv-x="764" 
d="M695 136l13 -95c-55 -33 -109 -48 -159 -48c-59 0 -108 16 -144 45c-36 -28 -84 -45 -148 -45c-163 0 -226 110 -226 235v44c0 125 63 235 226 235c64 0 114 -17 149 -46c37 31 82 46 129 46c104 0 200 -76 200 -222c0 -26 -4 -56 -13 -87h-297c14 -76 66 -110 130 -110
c47 0 94 17 140 48zM257 88c37 0 66 12 86 32c-15 35 -22 77 -22 123c0 52 8 97 24 134c-21 22 -50 35 -88 35c-83 0 -124 -61 -124 -144v-36c0 -83 41 -144 124 -144zM538 412c-62 0 -100 -55 -113 -119h210c0 67 -36 119 -97 119z" />
    <glyph glyph-name="Ccedilla" unicode="&#xc7;" horiz-adv-x="556" 
d="M225 -177l13 61c15 -6 39 -13 57 -13c15 0 27 5 27 19c0 10 -6 15 -16 15h-52l19 91c-143 17 -232 109 -232 295v115c0 215 126 311 289 311c59 0 117 -14 177 -39l-21 -92c-54 22 -109 35 -158 35c-105 0 -187 -59 -187 -220v-106c0 -147 86 -207 184 -207
c60 0 120 23 175 61l24 -97c-53 -36 -119 -56 -184 -59l-6 -32c39 -14 53 -37 53 -70c0 -61 -41 -82 -90 -82c-24 0 -49 6 -72 14z" />
    <glyph glyph-name="Eth" unicode="&#xd0;" horiz-adv-x="628" 
d="M18 391h51v308c61 12 128 18 178 18c232 0 346 -131 346 -371c0 -186 -95 -346 -295 -346h-229v296h-51v95zM169 615v-224h160v-95h-160v-201h129c133 0 195 118 195 251c0 176 -77 275 -246 275c-24 0 -50 -2 -78 -6z" />
    <glyph glyph-name="Oslash" unicode="&#xd8;" horiz-adv-x="660" 
d="M623 396v-82c0 -184 -93 -321 -293 -321c-27 0 -51 3 -74 7l-35 -100h-106l48 136c-85 55 -126 156 -126 278v82c0 184 93 321 293 321c26 0 50 -2 72 -7l36 100h107l-49 -137c86 -54 127 -155 127 -277zM521 399c0 75 -22 134 -61 172l-170 -477c12 -2 26 -3 40 -3
c117 0 191 82 191 220v88zM139 399v-88c0 -75 22 -134 61 -172l169 477c-13 2 -26 3 -39 3c-117 0 -191 -82 -191 -220z" />
    <glyph glyph-name="ccedilla" unicode="&#xe7;" horiz-adv-x="415" 
d="M143 -177l13 61c15 -6 39 -13 57 -13c15 0 27 5 27 19c0 10 -6 15 -16 15h-52l19 93c-101 19 -166 94 -166 212v71c0 139 85 226 234 226c40 0 82 -9 125 -26l-11 -92c-36 15 -73 23 -108 23c-77 0 -140 -40 -140 -132v-63c0 -89 57 -129 123 -129c48 0 95 15 134 42
l12 -98c-46 -27 -89 -37 -136 -39l-6 -32c39 -14 53 -37 53 -70c0 -61 -41 -82 -90 -82c-24 0 -49 6 -72 14z" />
    <glyph glyph-name="oslash" unicode="&#xf8;" horiz-adv-x="514" 
d="M328 602h107l-46 -129c66 -42 94 -118 94 -201v-44c0 -125 -63 -235 -226 -235c-14 0 -23 0 -38 2l-34 -95h-106l45 127c-66 42 -93 118 -93 201v44c0 125 63 235 226 235c13 0 25 -1 36 -2zM252 88c90 0 129 61 129 144v36c0 40 -10 75 -29 100zM133 232
c0 -40 9 -74 28 -100l99 280c-86 0 -127 -61 -127 -144v-36z" />
    <glyph glyph-name="florin" unicode="&#x192;" horiz-adv-x="356" 
d="M23 407h89l8 182c4 100 60 151 147 151c25 0 51 -5 76 -15l-14 -90c-18 6 -37 10 -54 10c-31 0 -53 -14 -55 -60l-8 -178h84v-95h-88l-16 -357c-5 -107 -58 -162 -142 -162c-25 0 -52 5 -81 15l11 90c17 -6 34 -10 50 -10c35 0 60 19 62 71l15 353h-84v95z" />
    <glyph glyph-name="Aogonek" unicode="&#x104;" horiz-adv-x="640" 
d="M519 0l-74 205h-250l-74 -205h-109l258 710h100l258 -710c-34 -25 -62 -54 -62 -86c0 -20 9 -28 22 -28c10 0 22 4 35 10l10 -62c-18 -10 -43 -16 -67 -16c-46 0 -91 23 -91 85c0 33 11 67 44 97zM410 300l-90 250l-91 -250h181z" />
    <glyph glyph-name="aogonek" unicode="&#x105;" horiz-adv-x="463" 
d="M418 0c-34 -25 -68 -54 -68 -86c0 -21 14 -28 31 -28c15 0 31 5 42 10l10 -62c-18 -10 -43 -16 -67 -16c-46 0 -91 23 -91 85c0 33 19 71 50 97l-7 42c-44 -32 -95 -49 -142 -49c-80 0 -148 47 -148 149c0 110 70 159 179 165l111 6v26c0 56 -43 73 -95 73
c-58 0 -126 -21 -154 -34l-12 97c50 19 110 32 167 32c102 0 194 -42 194 -163v-344zM209 215c-59 -3 -81 -35 -81 -73c0 -32 23 -54 57 -54c53 0 99 23 133 44v89z" />
    <glyph glyph-name="dcaron" unicode="&#x10f;" horiz-adv-x="677" 
d="M351 0l-7 50c-37 -38 -75 -57 -122 -57c-118 0 -193 85 -193 234v55c0 130 81 225 198 225c40 0 80 -14 117 -44v270h100v-733h-93zM344 137v224c-34 34 -74 51 -111 51c-61 0 -104 -45 -104 -131v-52c0 -94 36 -141 103 -141c38 0 72 16 112 49zM664 710l-82 -230h-100
l55 230h127z" />
    <glyph glyph-name="dcroat" unicode="&#x111;" horiz-adv-x="489" 
d="M225 674h119v59h100v-59h45v-95h-45v-579h-93l-7 50c-37 -38 -75 -57 -122 -57c-118 0 -193 85 -193 234v55c0 130 81 225 198 225c40 0 80 -14 117 -44v116h-119v95zM344 137v224c-34 34 -74 51 -111 51c-61 0 -104 -45 -104 -131v-52c0 -94 36 -141 103 -141
c38 0 72 16 112 49z" />
    <glyph glyph-name="Eogonek" unicode="&#x118;" horiz-adv-x="537" 
d="M504 -104l10 -62c-18 -10 -43 -16 -67 -16c-46 0 -91 23 -91 85c0 33 19 71 50 97h-350v710h429v-95h-329v-212h283v-95h-283v-213h343v-95c-34 -25 -68 -54 -68 -86c0 -21 14 -28 31 -28c15 0 31 5 42 10z" />
    <glyph glyph-name="eogonek" unicode="&#x119;" horiz-adv-x="473" 
d="M404 136l13 -95c-54 -46 -103 -95 -103 -127c0 -21 14 -28 31 -28c15 0 31 5 42 10l10 -62c-18 -10 -43 -16 -67 -16c-46 0 -91 23 -91 85c0 33 18 66 42 90h-23c-147 0 -228 100 -228 250c0 179 102 264 214 264c104 0 200 -76 200 -222c0 -26 -4 -56 -13 -87h-297
c14 -76 66 -110 130 -110c47 0 94 17 140 48zM247 412c-62 0 -100 -55 -113 -119h210c0 67 -36 119 -97 119z" />
    <glyph glyph-name="Gcommaaccent" unicode="&#x122;" horiz-adv-x="608" 
d="M459 108v161c0 16 -7 24 -24 24h-112v95h127c80 0 109 -26 109 -107v-240c-71 -30 -149 -48 -222 -48c-157 0 -291 82 -291 298v115c0 220 141 311 296 311c68 0 139 -18 203 -50l-21 -92c-51 27 -116 46 -178 46c-105 0 -200 -55 -200 -220v-106
c0 -152 85 -207 191 -207c39 0 82 7 122 20zM390 -61l-79 -158h-93l60 158h112z" />
    <glyph glyph-name="gcommaaccent" unicode="&#x123;" horiz-adv-x="452" 
d="M211 507c39 0 71 -9 97 -25l12 48h100l-13 -55c-7 -30 -17 -47 -37 -62c12 -26 19 -56 19 -85c0 -90 -55 -179 -178 -179c-18 0 -35 2 -50 5c-9 -8 -14 -16 -14 -30c0 -17 8 -25 26 -25h108c86 0 146 -59 146 -141v-19c0 -97 -88 -146 -205 -146c-108 0 -203 50 -203 155
v21h100v-19c0 -43 47 -62 103 -62c54 0 104 18 104 57v9c0 31 -16 46 -53 46h-94c-84 0 -133 37 -133 99v15c0 33 12 58 39 81c-36 34 -52 83 -52 133c0 89 55 179 178 179zM211 249c55 0 78 41 78 80s-23 78 -78 78s-78 -39 -78 -78s23 -80 78 -80zM154 560l79 158h93
l-60 -158h-112z" />
    <glyph glyph-name="Hbar" unicode="&#x126;" horiz-adv-x="610" 
d="M6 617h45v93h100v-93h308v93h100v-93h45v-95h-45v-522h-100v303h-308v-303h-100v522h-45v95zM151 398h308v124h-308v-124z" />
    <glyph glyph-name="hbar" unicode="&#x127;" horiz-adv-x="485" 
d="M0 674h45v59h100v-59h119v-95h-119v-141c43 41 92 69 151 69c77 0 144 -42 144 -148v-359h-100v358c0 39 -19 54 -56 54c-48 0 -103 -38 -139 -83v-329h-100v579h-45v95z" />
    <glyph glyph-name="Iogonek" unicode="&#x12e;" horiz-adv-x="218" 
d="M59 0v710h100v-710c-34 -25 -62 -54 -62 -86c0 -20 9 -28 22 -28c10 0 22 4 35 10l10 -62c-18 -10 -43 -16 -67 -16c-46 0 -82 23 -82 85c0 33 11 67 44 97z" />
    <glyph glyph-name="iogonek" unicode="&#x12f;" horiz-adv-x="220" 
d="M32 642c0 39 32 71 71 71s71 -32 71 -71s-32 -71 -71 -71s-71 32 -71 71zM70 0v390c0 11 -4 15 -15 15h-32v95h53c70 0 94 -27 94 -92v-408c-34 -25 -62 -54 -62 -86c0 -20 9 -28 22 -28c10 0 22 4 35 10l10 -62c-18 -10 -43 -16 -67 -16c-46 0 -82 23 -82 85
c0 33 11 67 44 97z" />
    <glyph glyph-name="dotlessi" unicode="&#x131;" horiz-adv-x="220" 
d="M170 0h-100v390c0 11 -4 15 -15 15h-32v95h53c70 0 94 -27 94 -92v-408z" />
    <glyph glyph-name="Kcommaaccent" unicode="&#x136;" horiz-adv-x="577" 
d="M335 -61l-79 -158h-93l60 158h112zM151 0h-100v710h100v-322h88l193 322h114l-198 -333c41 -15 67 -48 92 -107l113 -270h-108l-102 243c-17 41 -39 50 -86 50h-106v-293z" />
    <glyph glyph-name="kcommaaccent" unicode="&#x137;" horiz-adv-x="463" 
d="M145 301h73l104 199h114l-114 -218c28 -16 47 -44 60 -88l57 -194h-104l-48 163c-9 31 -23 43 -58 43h-84v-206h-100v733h100v-432zM290 -61l-79 -158h-93l60 158h112z" />
    <glyph glyph-name="Lcommaaccent" unicode="&#x13b;" horiz-adv-x="477" 
d="M455 95v-95h-404v710h100v-615h304zM307 -61l-79 -158h-93l60 158h112z" />
    <glyph glyph-name="lcommaaccent" unicode="&#x13c;" horiz-adv-x="230" 
d="M207 92l6 -90c-22 -6 -42 -9 -60 -9c-74 0 -108 44 -108 131v609h100v-607c0 -28 16 -38 36 -38c8 0 17 1 26 4zM178 -61l-79 -158h-93l60 158h112z" />
    <glyph glyph-name="Lcaron" unicode="&#x13d;" horiz-adv-x="477" 
d="M455 95v-95h-404v710h100v-615h304zM386 710l-82 -230h-100l55 230h127z" />
    <glyph glyph-name="lcaron" unicode="&#x13e;" horiz-adv-x="230" 
d="M207 92l6 -90c-22 -6 -42 -9 -60 -9c-74 0 -108 44 -108 131v609h100v-607c0 -28 16 -38 36 -38c8 0 17 1 26 4zM369 710l-82 -230h-100l55 230h127z" />
    <glyph glyph-name="Ldot" unicode="&#x13f;" horiz-adv-x="477" 
d="M455 95v-95h-404v710h100v-615h304zM216 300c0 33 26 59 59 59s59 -26 59 -59s-26 -59 -59 -59s-59 26 -59 59z" />
    <glyph glyph-name="ldot" unicode="&#x140;" horiz-adv-x="339" 
d="M207 92l6 -90c-22 -6 -42 -9 -60 -9c-74 0 -108 44 -108 131v609h100v-607c0 -28 16 -38 36 -38c8 0 17 1 26 4zM190 300c0 33 26 59 59 59s59 -26 59 -59s-26 -59 -59 -59s-59 26 -59 59z" />
    <glyph glyph-name="Lslash" unicode="&#x141;" horiz-adv-x="477" 
d="M6 282l45 21v407h100v-360l105 49v-100l-105 -49v-155h304v-95h-404v203l-45 -21v100z" />
    <glyph glyph-name="lslash" unicode="&#x142;" horiz-adv-x="230" 
d="M0 282l45 21v430h100v-383l85 40v-100l-85 -40v-124c0 -28 16 -38 36 -38c8 0 17 1 26 4l6 -90c-22 -6 -42 -9 -60 -9c-74 0 -108 44 -108 131v79l-45 -21v100z" />
    <glyph glyph-name="Ncommaaccent" unicode="&#x145;" horiz-adv-x="603" 
d="M434 0l-222 397l-61 135v-532h-100v710h112l229 -410l60 -137v547h100v-710h-118zM357 -61l-79 -158h-93l60 158h112z" />
    <glyph glyph-name="ncommaaccent" unicode="&#x146;" horiz-adv-x="485" 
d="M45 500h93l7 -62c43 41 92 69 151 69c77 0 144 -42 144 -148v-359h-100v358c0 39 -19 54 -56 54c-48 0 -103 -38 -139 -83v-329h-100v500zM302 -61l-79 -158h-93l60 158h112z" />
    <glyph glyph-name="napostrophe" unicode="&#x149;" horiz-adv-x="618" 
d="M178 500h93l7 -62c43 41 92 69 151 69c77 0 144 -42 144 -148v-359h-100v358c0 39 -19 54 -56 54c-48 0 -103 -38 -139 -83v-329h-100v500zM206 710l-82 -230h-100l55 230h127z" />
    <glyph glyph-name="Rcommaaccent" unicode="&#x156;" horiz-adv-x="570" 
d="M329 -61l-79 -158h-93l60 158h112zM51 0v691c62 17 125 26 183 26c155 0 277 -59 277 -224c0 -75 -34 -138 -101 -174c12 -15 24 -34 33 -56l109 -263h-108l-92 222c-20 49 -47 63 -113 63h-88v-285h-100zM151 615v-235h113c98 0 147 45 147 115c0 105 -88 127 -178 127
c-28 0 -56 -3 -82 -7z" />
    <glyph glyph-name="rcommaaccent" unicode="&#x157;" horiz-adv-x="330" 
d="M312 495l-4 -94c-16 7 -32 11 -47 11c-52 0 -90 -34 -116 -77v-335h-100v500h93l7 -54c25 32 56 61 108 61c18 0 37 -3 59 -12zM150 -61l-79 -158h-93l60 158h112z" />
    <glyph glyph-name="Scedilla" unicode="&#x15e;" horiz-adv-x="548" 
d="M178 -177l13 61c15 -6 39 -13 57 -13c15 0 27 5 27 19c0 10 -6 15 -16 15h-52l19 91c-71 7 -139 28 -194 56l16 103c62 -35 141 -67 231 -67c72 0 134 24 134 91c0 143 -365 125 -365 363c0 124 113 175 236 175c73 0 150 -16 209 -38l-18 -95c-40 17 -119 38 -190 38
c-73 0 -137 -15 -137 -82c0 -146 365 -128 365 -364c0 -128 -103 -178 -220 -182l-6 -33c39 -14 53 -37 53 -70c0 -61 -41 -82 -90 -82c-24 0 -49 6 -72 14z" />
    <glyph glyph-name="scedilla" unicode="&#x15f;" horiz-adv-x="400" 
d="M99 -177l13 61c15 -6 39 -13 57 -13c15 0 27 5 27 19c0 10 -6 15 -16 15h-52l19 90c-51 4 -103 15 -141 26l13 101c34 -13 107 -34 167 -34c52 0 94 11 94 54c0 86 -262 46 -262 230c0 98 86 135 179 135c58 0 118 -12 162 -26l-14 -92c-22 8 -88 23 -143 23
c-45 0 -83 -12 -83 -44c0 -94 262 -46 262 -232c0 -103 -76 -136 -167 -142l-6 -33c39 -14 53 -37 53 -70c0 -61 -41 -82 -90 -82c-24 0 -49 6 -72 14z" />
    <glyph glyph-name="Tcommaaccent" unicode="&#x162;" horiz-adv-x="592" 
d="M246 615h-220v95h540v-95h-220v-615h-100v615zM350 -61l-79 -158h-93l60 158h112z" />
    <glyph glyph-name="tcommaaccent" unicode="&#x163;" horiz-adv-x="299" 
d="M204 -61l-79 -158h-93l60 158h112zM176 405v-269c0 -36 17 -48 38 -48c17 0 36 7 53 17l6 -91c-25 -13 -50 -21 -77 -21c-73 0 -120 46 -120 141v271h-54v95h54v130l100 20v-150h100v-95h-100z" />
    <glyph glyph-name="tcaron" unicode="&#x165;" horiz-adv-x="299" 
d="M375 710l-59 -150h-100l32 150h127zM176 405v-269c0 -36 17 -48 38 -48c17 0 36 7 53 17l6 -91c-25 -13 -50 -21 -77 -21c-73 0 -120 46 -120 141v271h-54v95h54v130l100 20v-150h100v-95h-100z" />
    <glyph glyph-name="Tbar" unicode="&#x166;" horiz-adv-x="592" 
d="M100 443h146v172h-220v95h540v-95h-220v-172h146v-95h-146v-348h-100v348h-146v95z" />
    <glyph glyph-name="tbar" unicode="&#x167;" horiz-adv-x="299" 
d="M22 324h54v81h-54v95h54v130l100 20v-150h100v-95h-100v-81h100v-95h-100v-93c0 -36 17 -48 38 -48c17 0 36 7 53 17l6 -91c-25 -13 -50 -21 -77 -21c-73 0 -120 46 -120 141v95h-54v95z" />
    <glyph glyph-name="Uogonek" unicode="&#x172;" horiz-adv-x="649" 
d="M343 -7h-19c-137 0 -273 77 -273 251v466h100v-466c0 -110 86 -156 173 -156s174 46 174 156v466h100v-466c0 -107 -52 -178 -124 -216c-47 -35 -103 -82 -103 -114c0 -21 14 -28 31 -28c15 0 31 5 42 10l10 -62c-18 -10 -43 -16 -67 -16c-46 0 -91 23 -91 85
c0 33 15 62 47 90z" />
    <glyph glyph-name="uogonek" unicode="&#x173;" horiz-adv-x="485" 
d="M445 -104l10 -62c-18 -10 -43 -16 -67 -16c-46 0 -91 23 -91 85c0 33 19 71 50 97l-7 58c-45 -40 -94 -65 -149 -65c-92 0 -146 53 -146 154v353h100v-348c0 -41 15 -64 57 -64c51 0 107 41 138 76v336h100v-500c-34 -25 -68 -54 -68 -86c0 -21 14 -28 31 -28
c15 0 31 5 42 10z" />
    <glyph glyph-name="Ecaron" unicode="&#x11a;" horiz-adv-x="537" 
d="M499 95v-95h-443v710h429v-95h-329v-212h283v-95h-283v-213h343zM246 780l-116 140h111l37 -64l37 64h111l-116 -140h-64z" />
    <glyph glyph-name="ecaron" unicode="&#x11b;" horiz-adv-x="473" 
d="M404 136l13 -95c-55 -33 -109 -48 -159 -48c-147 0 -228 100 -228 250c0 179 102 264 214 264c104 0 200 -76 200 -222c0 -26 -4 -56 -13 -87h-297c14 -76 66 -110 130 -110c47 0 94 17 140 48zM247 412c-62 0 -100 -55 -113 -119h210c0 67 -36 119 -97 119zM210 570
l-116 140h111l37 -64l37 64h111l-116 -140h-64z" />
    <glyph glyph-name="Hcircumflex" unicode="&#x124;" horiz-adv-x="610" 
d="M151 0h-100v710h100v-312h308v312h100v-710h-100v303h-308v-303zM157 780l116 140h64l116 -140h-111l-37 64l-37 -64h-111z" />
    <glyph glyph-name="hcircumflex" unicode="&#x125;" horiz-adv-x="485" 
d="M45 733h100v-295c43 41 92 69 151 69c77 0 144 -42 144 -148v-359h-100v358c0 39 -19 54 -56 54c-48 0 -103 -38 -139 -83v-329h-100v733zM-42 780l116 140h64l116 -140h-111l-37 64l-37 -64h-111z" />
    <glyph glyph-name="Jcircumflex" unicode="&#x134;" horiz-adv-x="311" 
d="M19 12l7 98c16 -13 42 -22 66 -22c35 0 68 20 68 76v546h100v-550c0 -111 -71 -167 -155 -167c-28 0 -57 6 -86 19zM62 780l116 140h64l116 -140h-111l-37 64l-37 -64h-111z" />
    <glyph glyph-name="jcircumflex" unicode="&#x135;" horiz-adv-x="225" 
d="M80 -41v431c0 11 -4 15 -15 15h-32v95h53c70 0 94 -27 94 -92v-453c0 -107 -58 -162 -142 -162c-25 0 -52 5 -81 15l11 90c17 -6 34 -10 50 -10c35 0 62 19 62 71zM-35 570l116 140h64l116 -140h-111l-37 64l-37 -64h-111z" />
    <glyph glyph-name="Rcaron" unicode="&#x158;" horiz-adv-x="570" 
d="M218 780l-116 140h111l37 -64l37 64h111l-116 -140h-64zM51 0v691c62 17 125 26 183 26c155 0 277 -59 277 -224c0 -75 -34 -138 -101 -174c12 -15 24 -34 33 -56l109 -263h-108l-92 222c-20 49 -47 63 -113 63h-88v-285h-100zM151 615v-235h113c98 0 147 45 147 115
c0 105 -88 127 -178 127c-28 0 -56 -3 -82 -7z" />
    <glyph glyph-name="rcaron" unicode="&#x159;" horiz-adv-x="330" 
d="M312 495l-4 -94c-16 7 -32 11 -47 11c-52 0 -90 -34 -116 -77v-335h-100v500h93l7 -54c25 32 56 61 108 61c18 0 37 -3 59 -12zM135 570l-116 140h111l37 -64l37 64h111l-116 -140h-64z" />
    <glyph glyph-name="Scircumflex" unicode="&#x15c;" horiz-adv-x="548" 
d="M513 176c0 -134 -113 -183 -236 -183c-88 0 -177 25 -245 59l16 103c62 -35 141 -67 231 -67c72 0 134 24 134 91c0 143 -365 125 -365 363c0 124 113 175 236 175c73 0 150 -16 209 -38l-18 -95c-40 17 -119 38 -190 38c-73 0 -137 -15 -137 -82
c0 -146 365 -128 365 -364zM126 780l116 140h64l116 -140h-111l-37 64l-37 -64h-111z" />
    <glyph glyph-name="scircumflex" unicode="&#x15d;" horiz-adv-x="400" 
d="M359 481l-14 -92c-22 8 -88 23 -143 23c-45 0 -83 -12 -83 -44c0 -94 262 -46 262 -232c0 -113 -91 -143 -194 -143c-63 0 -133 14 -181 28l13 101c34 -13 107 -34 167 -34c52 0 94 11 94 54c0 86 -262 46 -262 230c0 98 86 135 179 135c58 0 118 -12 162 -26zM52 570
l116 140h64l116 -140h-111l-37 64l-37 -64h-111z" />
    <glyph glyph-name="Tcaron" unicode="&#x164;" horiz-adv-x="592" 
d="M246 615h-220v95h540v-95h-220v-615h-100v615zM264 780l-116 140h111l37 -64l37 64h111l-116 -140h-64z" />
    <glyph glyph-name="Wcircumflex" unicode="&#x174;" horiz-adv-x="898" 
d="M340 0h-104l-214 710h111l155 -543l155 543h111l-51 -170l107 -373l155 543h111l-214 -710h-104l-109 361zM301 780l116 140h64l116 -140h-111l-37 64l-37 -64h-111z" />
    <glyph glyph-name="wcircumflex" unicode="&#x175;" horiz-adv-x="631" 
d="M254 0h-112l-132 500h110l78 -343l78 343h110l-17 -63l64 -280l78 343h110l-132 -500h-112l-62 232zM167 570l116 140h64l116 -140h-111l-37 64l-37 -64h-111z" />
    <glyph glyph-name="Ycircumflex" unicode="&#x176;" horiz-adv-x="624" 
d="M362 0h-100v283l-249 427h114l185 -317l185 317h114l-249 -427v-283zM164 780l116 140h64l116 -140h-111l-37 64l-37 -64h-111z" />
    <glyph glyph-name="ycircumflex" unicode="&#x177;" horiz-adv-x="500" 
d="M175 -66l24 63l-195 503h109l134 -376l145 376h108l-236 -600c-29 -75 -76 -107 -150 -107c-31 0 -64 8 -96 22l10 102c24 -16 55 -29 82 -29s52 12 65 46zM102 570l116 140h64l116 -140h-111l-37 64l-37 -64h-111z" />
    <glyph glyph-name="zero.pnum" horiz-adv-x="584" 
d="M292 -7c-168 0 -257 123 -257 315v94c0 192 89 315 257 315s257 -123 257 -315v-94c0 -192 -89 -315 -257 -315zM292 88c95 0 157 82 157 214v106c0 132 -62 214 -157 214s-157 -82 -157 -214v-106c0 -132 62 -214 157 -214z" />
    <glyph glyph-name="one.pnum" horiz-adv-x="451" 
d="M90 456l-63 84l192 170h82v-615h115v-95h-330v95h115v459z" />
    <glyph glyph-name="two.pnum" horiz-adv-x="537" 
d="M191 95h311v-95h-467v95c180 142 339 305 339 434c0 70 -60 93 -130 93c-69 0 -132 -18 -188 -46l-12 94c57 29 130 47 201 47c125 0 228 -50 228 -190c0 -159 -133 -307 -282 -432z" />
    <glyph glyph-name="three.pnum" horiz-adv-x="531" 
d="M28 45l20 99c48 -24 139 -56 215 -56c89 0 132 52 132 118c0 60 -37 113 -112 113h-142v95h117c83 0 123 48 123 110c0 57 -51 98 -145 98c-64 0 -121 -16 -159 -30l-16 94c58 18 115 31 182 31c168 0 238 -87 238 -186c0 -61 -20 -115 -76 -164c61 -43 90 -107 90 -171
c0 -152 -106 -203 -225 -203c-92 0 -177 25 -242 52z" />
    <glyph glyph-name="four.pnum" horiz-adv-x="556" 
d="M435 96v-96h-100v96h-308v95l300 519h108v-519h93v-95h-93zM141 191h194v347z" />
    <glyph glyph-name="five.pnum" horiz-adv-x="536" 
d="M153 615v-161l121 -10c148 -12 222 -111 222 -224c0 -149 -90 -227 -242 -227c-70 0 -151 17 -231 50l22 95c50 -24 136 -50 210 -50c77 0 142 40 142 135c0 66 -39 116 -127 123l-217 18v346h409v-95h-309z" />
    <glyph glyph-name="six.pnum" horiz-adv-x="555" 
d="M145 441v-35c43 20 91 30 137 30c119 0 228 -69 228 -220c0 -112 -73 -223 -229 -223c-116 0 -236 72 -236 237v208c0 208 113 279 248 279c56 0 123 -15 181 -35l-21 -94c-47 17 -108 34 -157 34c-82 0 -151 -41 -151 -181zM284 341c-46 0 -96 -14 -139 -35v-76
c0 -99 69 -142 136 -142c85 0 129 64 129 128c0 92 -57 125 -126 125z" />
    <glyph glyph-name="seven.pnum" horiz-adv-x="506" 
d="M364 615h-334v95h447v-95l-281 -615h-113z" />
    <glyph glyph-name="eight.pnum" horiz-adv-x="523" 
d="M49 530c0 124 102 187 208 187c133 0 216 -86 216 -181c0 -61 -32 -125 -102 -173c64 -37 117 -88 117 -174c0 -131 -113 -196 -226 -196c-149 0 -227 91 -227 191c0 69 36 142 108 194c-53 33 -94 77 -94 152zM135 188c0 -55 42 -100 127 -100c64 0 126 33 126 100
c0 76 -72 109 -150 143c-67 -36 -103 -91 -103 -143zM373 534c0 47 -39 88 -116 88c-56 0 -109 -31 -109 -92c0 -57 61 -88 132 -121c60 28 93 79 93 125z" />
    <glyph glyph-name="nine.pnum" horiz-adv-x="555" 
d="M253 88c86 0 157 38 157 181v10c-44 -20 -90 -29 -132 -29c-125 0 -233 84 -233 244c0 112 73 223 229 223c116 0 236 -72 236 -237v-208c0 -213 -116 -279 -255 -279c-54 0 -112 10 -167 25l15 94c49 -13 102 -24 150 -24zM275 345c42 0 89 13 135 35v100
c0 99 -69 142 -136 142c-85 0 -129 -64 -129 -128c0 -108 57 -149 130 -149z" />
    <glyph glyph-name="ellipsis" unicode="&#x2026;" horiz-adv-x="588" 
d="M39 52c0 33 26 59 59 59s59 -26 59 -59s-26 -59 -59 -59s-59 26 -59 59zM235 52c0 33 26 59 59 59s59 -26 59 -59s-26 -59 -59 -59s-59 26 -59 59zM431 52c0 33 26 59 59 59s59 -26 59 -59s-26 -59 -59 -59s-59 26 -59 59z" />
    <glyph glyph-name="Scaron" unicode="&#x160;" horiz-adv-x="548" 
d="M513 176c0 -134 -113 -183 -236 -183c-88 0 -177 25 -245 59l16 103c62 -35 141 -67 231 -67c72 0 134 24 134 91c0 143 -365 125 -365 363c0 124 113 175 236 175c73 0 150 -16 209 -38l-18 -95c-40 17 -119 38 -190 38c-73 0 -137 -15 -137 -82
c0 -146 365 -128 365 -364zM242 780l-116 140h111l37 -64l37 64h111l-116 -140h-64z" />
    <glyph glyph-name="scaron" unicode="&#x161;" horiz-adv-x="400" 
d="M359 481l-14 -92c-22 8 -88 23 -143 23c-45 0 -83 -12 -83 -44c0 -94 262 -46 262 -232c0 -113 -91 -143 -194 -143c-63 0 -133 14 -181 28l13 101c34 -13 107 -34 167 -34c52 0 94 11 94 54c0 86 -262 46 -262 230c0 98 86 135 179 135c58 0 118 -12 162 -26zM168 570
l-116 140h111l37 -64l37 64h111l-116 -140h-64z" />
    <glyph glyph-name="zcaron" unicode="&#x17e;" horiz-adv-x="438" 
d="M408 0h-377v98l232 307h-221v95h345v-95l-234 -310h255v-95zM187 570l-116 140h111l37 -64l37 64h111l-116 -140h-64z" />
    <glyph glyph-name="Zcaron" unicode="&#x17d;" horiz-adv-x="568" 
d="M38 95l328 520h-310v95h431v-95l-328 -520h369v-95h-490v95zM252 780l-116 140h111l37 -64l37 64h111l-116 -140h-64z" />
    <glyph glyph-name="Ydieresis" unicode="&#x178;" horiz-adv-x="624" 
d="M362 0h-100v283l-249 427h114l185 -317l185 317h114l-249 -427v-283zM157 852c0 34 28 62 62 62s62 -28 62 -62s-28 -62 -62 -62s-62 28 -62 62zM342 852c0 34 28 62 62 62s62 -28 62 -62s-28 -62 -62 -62s-62 28 -62 62z" />
    <glyph glyph-name="Agrave" unicode="&#xc0;" horiz-adv-x="640" 
d="M12 0h109l74 205h250l74 -205h109l-258 710h-100zM320 550l90 -250h-181zM270 780l-101 140h126l84 -140h-109z" />
    <glyph glyph-name="Aacute" unicode="&#xc1;" horiz-adv-x="640" 
d="M12 0h109l74 205h250l74 -205h109l-258 710h-100zM320 550l90 -250h-181zM473 920l-101 -140h-109l84 140h126z" />
    <glyph glyph-name="Acircumflex" unicode="&#xc2;" horiz-adv-x="640" 
d="M12 0h109l74 205h250l74 -205h109l-258 710h-100zM320 550l90 -250h-181zM172 780l116 140h64l116 -140h-111l-37 64l-37 -64h-111z" />
    <glyph glyph-name="Atilde" unicode="&#xc3;" horiz-adv-x="640" 
d="M12 0h109l74 205h250l74 -205h109l-258 710h-100zM320 550l90 -250h-181zM268 834c-18 0 -25 -20 -27 -40l-74 19c18 72 52 101 90 101c50 0 84 -44 114 -44c18 0 25 20 27 40l74 -19c-16 -72 -51 -101 -88 -101c-51 0 -91 44 -116 44z" />
    <glyph glyph-name="Adieresis" unicode="&#xc4;" horiz-adv-x="640" 
d="M12 0h109l74 205h250l74 -205h109l-258 710h-100zM320 550l90 -250h-181zM165 852c0 34 28 62 62 62s62 -28 62 -62s-28 -62 -62 -62s-62 28 -62 62zM350 852c0 34 28 62 62 62s62 -28 62 -62s-28 -62 -62 -62s-62 28 -62 62z" />
    <glyph glyph-name="Aring" unicode="&#xc5;" horiz-adv-x="640" 
d="M12 0h109l74 205h250l74 -205h109l-258 710h-100zM320 550l90 -250h-181zM241 848c0 47 32 79 78 79c47 0 79 -32 79 -79c0 -46 -32 -78 -79 -78c-46 0 -78 32 -78 78zM295 848c0 -15 9 -24 24 -24c16 0 25 9 25 24c0 16 -9 25 -25 25c-15 0 -24 -9 -24 -25z" />
    <glyph glyph-name="Egrave" unicode="&#xc8;" horiz-adv-x="537" 
d="M499 95v-95h-443v710h429v-95h-329v-212h283v-95h-283v-213h343zM228 780l-101 140h126l84 -140h-109z" />
    <glyph glyph-name="Eacute" unicode="&#xc9;" horiz-adv-x="537" 
d="M499 95v-95h-443v710h429v-95h-329v-212h283v-95h-283v-213h343zM429 920l-101 -140h-109l84 140h126z" />
    <glyph glyph-name="Ecircumflex" unicode="&#xca;" horiz-adv-x="537" 
d="M499 95v-95h-443v710h429v-95h-329v-212h283v-95h-283v-213h343zM129 780l116 140h64l116 -140h-111l-37 64l-37 -64h-111z" />
    <glyph glyph-name="Edieresis" unicode="&#xcb;" horiz-adv-x="537" 
d="M499 95v-95h-443v710h429v-95h-329v-212h283v-95h-283v-213h343zM123 852c0 34 28 62 62 62s62 -28 62 -62s-28 -62 -62 -62s-62 28 -62 62zM308 852c0 34 28 62 62 62s62 -28 62 -62s-28 -62 -62 -62s-62 28 -62 62z" />
    <glyph glyph-name="Igrave" unicode="&#xcc;" horiz-adv-x="218" 
d="M159 710v-710h-100v710h100zM57 780l-101 140h126l84 -140h-109z" />
    <glyph glyph-name="Iacute" unicode="&#xcd;" horiz-adv-x="218" 
d="M159 710v-710h-100v710h100zM264 920l-101 -140h-109l84 140h126z" />
    <glyph glyph-name="Icircumflex" unicode="&#xce;" horiz-adv-x="218" 
d="M159 710v-710h-100v710h100zM-39 780l116 140h64l116 -140h-111l-37 64l-37 -64h-111z" />
    <glyph glyph-name="Idieresis" unicode="&#xcf;" horiz-adv-x="218" 
d="M159 710v-710h-100v710h100zM-45 852c0 34 28 62 62 62s62 -28 62 -62s-28 -62 -62 -62s-62 28 -62 62zM140 852c0 34 28 62 62 62s62 -28 62 -62s-28 -62 -62 -62s-62 28 -62 62z" />
    <glyph glyph-name="Ntilde" unicode="&#xd1;" horiz-adv-x="603" 
d="M434 0l-222 397l-61 135v-532h-100v710h112l229 -410l60 -137v547h100v-710h-118zM250 834c-18 0 -25 -20 -27 -40l-74 19c18 72 52 101 90 101c50 0 84 -44 114 -44c18 0 25 20 27 40l74 -19c-16 -72 -51 -101 -88 -101c-51 0 -91 44 -116 44z" />
    <glyph glyph-name="Ograve" unicode="&#xd2;" horiz-adv-x="660" 
d="M623 396v-82c0 -184 -93 -321 -293 -321s-293 137 -293 321v82c0 184 93 321 293 321s293 -137 293 -321zM139 399v-88c0 -138 74 -220 191 -220s191 82 191 220v88c0 138 -74 220 -191 220s-191 -82 -191 -220zM284 780l-101 140h126l84 -140h-109z" />
    <glyph glyph-name="Oacute" unicode="&#xd3;" horiz-adv-x="660" 
d="M623 396v-82c0 -184 -93 -321 -293 -321s-293 137 -293 321v82c0 184 93 321 293 321s293 -137 293 -321zM139 399v-88c0 -138 74 -220 191 -220s191 82 191 220v88c0 138 -74 220 -191 220s-191 -82 -191 -220zM479 920l-101 -140h-109l84 140h126z" />
    <glyph glyph-name="Ocircumflex" unicode="&#xd4;" horiz-adv-x="660" 
d="M623 396v-82c0 -184 -93 -321 -293 -321s-293 137 -293 321v82c0 184 93 321 293 321s293 -137 293 -321zM139 399v-88c0 -138 74 -220 191 -220s191 82 191 220v88c0 138 -74 220 -191 220s-191 -82 -191 -220zM182 780l116 140h64l116 -140h-111l-37 64l-37 -64h-111z
" />
    <glyph glyph-name="Otilde" unicode="&#xd5;" horiz-adv-x="660" 
d="M623 396v-82c0 -184 -93 -321 -293 -321s-293 137 -293 321v82c0 184 93 321 293 321s293 -137 293 -321zM139 399v-88c0 -138 74 -220 191 -220s191 82 191 220v88c0 138 -74 220 -191 220s-191 -82 -191 -220zM278 834c-18 0 -25 -20 -27 -40l-74 19
c18 72 52 101 90 101c50 0 84 -44 114 -44c18 0 25 20 27 40l74 -19c-16 -72 -51 -101 -88 -101c-51 0 -91 44 -116 44z" />
    <glyph glyph-name="Odieresis" unicode="&#xd6;" horiz-adv-x="660" 
d="M623 396v-82c0 -184 -93 -321 -293 -321s-293 137 -293 321v82c0 184 93 321 293 321s293 -137 293 -321zM139 399v-88c0 -138 74 -220 191 -220s191 82 191 220v88c0 138 -74 220 -191 220s-191 -82 -191 -220zM175 852c0 34 28 62 62 62s62 -28 62 -62s-28 -62 -62 -62
s-62 28 -62 62zM360 852c0 34 28 62 62 62s62 -28 62 -62s-28 -62 -62 -62s-62 28 -62 62z" />
    <glyph glyph-name="Ugrave" unicode="&#xd9;" horiz-adv-x="649" 
d="M598 710v-466c0 -174 -137 -251 -274 -251s-273 77 -273 251v466h100v-466c0 -110 86 -156 173 -156s174 46 174 156v466h100zM275 780l-101 140h126l84 -140h-109z" />
    <glyph glyph-name="Uacute" unicode="&#xda;" horiz-adv-x="649" 
d="M598 710v-466c0 -174 -137 -251 -274 -251s-273 77 -273 251v466h100v-466c0 -110 86 -156 173 -156s174 46 174 156v466h100zM476 920l-101 -140h-109l84 140h126z" />
    <glyph glyph-name="Ucircumflex" unicode="&#xdb;" horiz-adv-x="649" 
d="M598 710v-466c0 -174 -137 -251 -274 -251s-273 77 -273 251v466h100v-466c0 -110 86 -156 173 -156s174 46 174 156v466h100zM176 780l116 140h64l116 -140h-111l-37 64l-37 -64h-111z" />
    <glyph glyph-name="Udieresis" unicode="&#xdc;" horiz-adv-x="649" 
d="M598 710v-466c0 -174 -137 -251 -274 -251s-273 77 -273 251v466h100v-466c0 -110 86 -156 173 -156s174 46 174 156v466h100zM170 852c0 34 28 62 62 62s62 -28 62 -62s-28 -62 -62 -62s-62 28 -62 62zM355 852c0 34 28 62 62 62s62 -28 62 -62s-28 -62 -62 -62
s-62 28 -62 62z" />
    <glyph glyph-name="Yacute" unicode="&#xdd;" horiz-adv-x="624" 
d="M362 0h-100v283l-249 427h114l185 -317l185 317h114l-249 -427v-283zM463 920l-101 -140h-109l84 140h126z" />
    <glyph glyph-name="agrave" unicode="&#xe0;" horiz-adv-x="463" 
d="M418 0h-93l-7 42c-44 -32 -95 -49 -142 -49c-80 0 -148 47 -148 149c0 110 70 159 179 165l111 6v26c0 56 -43 73 -95 73c-58 0 -126 -21 -154 -34l-12 97c50 19 110 32 167 32c102 0 194 -42 194 -163v-344zM209 215c-59 -3 -81 -35 -81 -73c0 -32 23 -54 57 -54
c53 0 99 23 133 44v89zM188 570l-101 140h126l84 -140h-109z" />
    <glyph glyph-name="aacute" unicode="&#xe1;" horiz-adv-x="463" 
d="M418 0h-93l-7 42c-44 -32 -95 -49 -142 -49c-80 0 -148 47 -148 149c0 110 70 159 179 165l111 6v26c0 56 -43 73 -95 73c-58 0 -126 -21 -154 -34l-12 97c50 19 110 32 167 32c102 0 194 -42 194 -163v-344zM209 215c-59 -3 -81 -35 -81 -73c0 -32 23 -54 57 -54
c53 0 99 23 133 44v89zM385 710l-101 -140h-109l84 140h126z" />
    <glyph glyph-name="acircumflex" unicode="&#xe2;" horiz-adv-x="463" 
d="M418 0h-93l-7 42c-44 -32 -95 -49 -142 -49c-80 0 -148 47 -148 149c0 110 70 159 179 165l111 6v26c0 56 -43 73 -95 73c-58 0 -126 -21 -154 -34l-12 97c50 19 110 32 167 32c102 0 194 -42 194 -163v-344zM209 215c-59 -3 -81 -35 -81 -73c0 -32 23 -54 57 -54
c53 0 99 23 133 44v89zM89 570l116 140h64l116 -140h-111l-37 64l-37 -64h-111z" />
    <glyph glyph-name="atilde" unicode="&#xe3;" horiz-adv-x="463" 
d="M418 0h-93l-7 42c-44 -32 -95 -49 -142 -49c-80 0 -148 47 -148 149c0 110 70 159 179 165l111 6v26c0 56 -43 73 -95 73c-58 0 -126 -21 -154 -34l-12 97c50 19 110 32 167 32c102 0 194 -42 194 -163v-344zM209 215c-59 -3 -81 -35 -81 -73c0 -32 23 -54 57 -54
c53 0 99 23 133 44v89zM185 624c-18 0 -25 -20 -27 -40l-74 19c18 72 52 101 90 101c50 0 84 -44 114 -44c18 0 25 20 27 40l74 -19c-16 -72 -51 -101 -88 -101c-51 0 -91 44 -116 44z" />
    <glyph glyph-name="adieresis" unicode="&#xe4;" horiz-adv-x="463" 
d="M418 0h-93l-7 42c-44 -32 -95 -49 -142 -49c-80 0 -148 47 -148 149c0 110 70 159 179 165l111 6v26c0 56 -43 73 -95 73c-58 0 -126 -21 -154 -34l-12 97c50 19 110 32 167 32c102 0 194 -42 194 -163v-344zM209 215c-59 -3 -81 -35 -81 -73c0 -32 23 -54 57 -54
c53 0 99 23 133 44v89zM82 642c0 34 28 62 62 62s62 -28 62 -62s-28 -62 -62 -62s-62 28 -62 62zM267 642c0 34 28 62 62 62s62 -28 62 -62s-28 -62 -62 -62s-62 28 -62 62z" />
    <glyph glyph-name="aring" unicode="&#xe5;" horiz-adv-x="463" 
d="M418 0h-93l-7 42c-44 -32 -95 -49 -142 -49c-80 0 -148 47 -148 149c0 110 70 159 179 165l111 6v26c0 56 -43 73 -95 73c-58 0 -126 -21 -154 -34l-12 97c50 19 110 32 167 32c102 0 194 -42 194 -163v-344zM209 215c-59 -3 -81 -35 -81 -73c0 -32 23 -54 57 -54
c53 0 99 23 133 44v89zM159 638c0 47 32 79 78 79c47 0 79 -32 79 -79c0 -46 -32 -78 -79 -78c-46 0 -78 32 -78 78zM213 638c0 -15 9 -24 24 -24c16 0 25 9 25 24c0 16 -9 25 -25 25c-15 0 -24 -9 -24 -25z" />
    <glyph glyph-name="egrave" unicode="&#xe8;" horiz-adv-x="473" 
d="M404 136l13 -95c-55 -33 -109 -48 -159 -48c-147 0 -228 100 -228 250c0 179 102 264 214 264c104 0 200 -76 200 -222c0 -26 -4 -56 -13 -87h-297c14 -76 66 -110 130 -110c47 0 94 17 140 48zM247 412c-62 0 -100 -55 -113 -119h210c0 67 -36 119 -97 119zM195 570
l-101 140h126l84 -140h-109z" />
    <glyph glyph-name="eacute" unicode="&#xe9;" horiz-adv-x="473" 
d="M404 136l13 -95c-55 -33 -109 -48 -159 -48c-147 0 -228 100 -228 250c0 179 102 264 214 264c104 0 200 -76 200 -222c0 -26 -4 -56 -13 -87h-297c14 -76 66 -110 130 -110c47 0 94 17 140 48zM247 412c-62 0 -100 -55 -113 -119h210c0 67 -36 119 -97 119zM394 710
l-101 -140h-109l84 140h126z" />
    <glyph glyph-name="ecircumflex" unicode="&#xea;" horiz-adv-x="473" 
d="M404 136l13 -95c-55 -33 -109 -48 -159 -48c-147 0 -228 100 -228 250c0 179 102 264 214 264c104 0 200 -76 200 -222c0 -26 -4 -56 -13 -87h-297c14 -76 66 -110 130 -110c47 0 94 17 140 48zM247 412c-62 0 -100 -55 -113 -119h210c0 67 -36 119 -97 119zM94 570
l116 140h64l116 -140h-111l-37 64l-37 -64h-111z" />
    <glyph glyph-name="edieresis" unicode="&#xeb;" horiz-adv-x="473" 
d="M404 136l13 -95c-55 -33 -109 -48 -159 -48c-147 0 -228 100 -228 250c0 179 102 264 214 264c104 0 200 -76 200 -222c0 -26 -4 -56 -13 -87h-297c14 -76 66 -110 130 -110c47 0 94 17 140 48zM247 412c-62 0 -100 -55 -113 -119h210c0 67 -36 119 -97 119zM88 642
c0 34 28 62 62 62s62 -28 62 -62s-28 -62 -62 -62s-62 28 -62 62zM273 642c0 34 28 62 62 62s62 -28 62 -62s-28 -62 -62 -62s-62 28 -62 62z" />
    <glyph glyph-name="igrave" unicode="&#xec;" horiz-adv-x="220" 
d="M170 0h-100v390c0 11 -4 15 -15 15h-32v95h53c70 0 94 -27 94 -92v-408zM61 570l-101 140h126l84 -140h-109z" />
    <glyph glyph-name="iacute" unicode="&#xed;" horiz-adv-x="220" 
d="M170 0h-100v390c0 11 -4 15 -15 15h-32v95h53c70 0 94 -27 94 -92v-408zM264 710l-101 -140h-109l84 140h126z" />
    <glyph glyph-name="icircumflex" unicode="&#xee;" horiz-adv-x="220" 
d="M170 0h-100v390c0 11 -4 15 -15 15h-32v95h53c70 0 94 -27 94 -92v-408zM-38 570l116 140h64l116 -140h-111l-37 64l-37 -64h-111z" />
    <glyph glyph-name="idieresis" unicode="&#xef;" horiz-adv-x="220" 
d="M170 0h-100v390c0 11 -4 15 -15 15h-32v95h53c70 0 94 -27 94 -92v-408zM-44 642c0 34 28 62 62 62s62 -28 62 -62s-28 -62 -62 -62s-62 28 -62 62zM141 642c0 34 28 62 62 62s62 -28 62 -62s-28 -62 -62 -62s-62 28 -62 62z" />
    <glyph glyph-name="ntilde" unicode="&#xf1;" horiz-adv-x="485" 
d="M45 500h93l7 -62c43 41 92 69 151 69c77 0 144 -42 144 -148v-359h-100v358c0 39 -19 54 -56 54c-48 0 -103 -38 -139 -83v-329h-100v500zM191 624c-18 0 -25 -20 -27 -40l-74 19c18 72 52 101 90 101c50 0 84 -44 114 -44c18 0 25 20 27 40l74 -19
c-16 -72 -51 -101 -88 -101c-51 0 -91 44 -116 44z" />
    <glyph glyph-name="ograve" unicode="&#xf2;" horiz-adv-x="514" 
d="M257 88c83 0 124 61 124 144v36c0 83 -41 144 -124 144s-124 -61 -124 -144v-36c0 -83 41 -144 124 -144zM257 -7c-163 0 -226 110 -226 235v44c0 125 63 235 226 235s226 -110 226 -235v-44c0 -125 -63 -235 -226 -235zM209 570l-101 140h126l84 -140h-109z" />
    <glyph glyph-name="oacute" unicode="&#xf3;" horiz-adv-x="514" 
d="M257 88c83 0 124 61 124 144v36c0 83 -41 144 -124 144s-124 -61 -124 -144v-36c0 -83 41 -144 124 -144zM257 -7c-163 0 -226 110 -226 235v44c0 125 63 235 226 235s226 -110 226 -235v-44c0 -125 -63 -235 -226 -235zM410 710l-101 -140h-109l84 140h126z" />
    <glyph glyph-name="ocircumflex" unicode="&#xf4;" horiz-adv-x="514" 
d="M257 88c83 0 124 61 124 144v36c0 83 -41 144 -124 144s-124 -61 -124 -144v-36c0 -83 41 -144 124 -144zM257 -7c-163 0 -226 110 -226 235v44c0 125 63 235 226 235s226 -110 226 -235v-44c0 -125 -63 -235 -226 -235zM109 570l116 140h64l116 -140h-111l-37 64
l-37 -64h-111z" />
    <glyph glyph-name="otilde" unicode="&#xf5;" horiz-adv-x="514" 
d="M257 88c83 0 124 61 124 144v36c0 83 -41 144 -124 144s-124 -61 -124 -144v-36c0 -83 41 -144 124 -144zM257 -7c-163 0 -226 110 -226 235v44c0 125 63 235 226 235s226 -110 226 -235v-44c0 -125 -63 -235 -226 -235zM205 624c-18 0 -25 -20 -27 -40l-74 19
c18 72 52 101 90 101c50 0 84 -44 114 -44c18 0 25 20 27 40l74 -19c-16 -72 -51 -101 -88 -101c-51 0 -91 44 -116 44z" />
    <glyph glyph-name="odieresis" unicode="&#xf6;" horiz-adv-x="514" 
d="M257 88c83 0 124 61 124 144v36c0 83 -41 144 -124 144s-124 -61 -124 -144v-36c0 -83 41 -144 124 -144zM257 -7c-163 0 -226 110 -226 235v44c0 125 63 235 226 235s226 -110 226 -235v-44c0 -125 -63 -235 -226 -235zM102 642c0 34 28 62 62 62s62 -28 62 -62
s-28 -62 -62 -62s-62 28 -62 62zM287 642c0 34 28 62 62 62s62 -28 62 -62s-28 -62 -62 -62s-62 28 -62 62z" />
    <glyph glyph-name="ugrave" unicode="&#xf9;" horiz-adv-x="485" 
d="M440 0h-93l-7 58c-45 -40 -94 -65 -149 -65c-92 0 -146 53 -146 154v353h100v-348c0 -41 15 -64 57 -64c51 0 107 41 138 76v336h100v-500zM193 570l-101 140h126l84 -140h-109z" />
    <glyph glyph-name="uacute" unicode="&#xfa;" horiz-adv-x="485" 
d="M440 0h-93l-7 58c-45 -40 -94 -65 -149 -65c-92 0 -146 53 -146 154v353h100v-348c0 -41 15 -64 57 -64c51 0 107 41 138 76v336h100v-500zM396 710l-101 -140h-109l84 140h126z" />
    <glyph glyph-name="ucircumflex" unicode="&#xfb;" horiz-adv-x="485" 
d="M440 0h-93l-7 58c-45 -40 -94 -65 -149 -65c-92 0 -146 53 -146 154v353h100v-348c0 -41 15 -64 57 -64c51 0 107 41 138 76v336h100v-500zM94 570l116 140h64l116 -140h-111l-37 64l-37 -64h-111z" />
    <glyph glyph-name="udieresis" unicode="&#xfc;" horiz-adv-x="485" 
d="M440 0h-93l-7 58c-45 -40 -94 -65 -149 -65c-92 0 -146 53 -146 154v353h100v-348c0 -41 15 -64 57 -64c51 0 107 41 138 76v336h100v-500zM88 642c0 34 28 62 62 62s62 -28 62 -62s-28 -62 -62 -62s-62 28 -62 62zM273 642c0 34 28 62 62 62s62 -28 62 -62
s-28 -62 -62 -62s-62 28 -62 62z" />
    <glyph glyph-name="yacute" unicode="&#xfd;" horiz-adv-x="500" 
d="M175 -66l24 63l-195 503h109l134 -376l145 376h108l-236 -600c-29 -75 -76 -107 -150 -107c-31 0 -64 8 -96 22l10 102c24 -16 55 -29 82 -29s52 12 65 46zM402 710l-101 -140h-109l84 140h126z" />
    <glyph glyph-name="ydieresis" unicode="&#xff;" horiz-adv-x="500" 
d="M175 -66l24 63l-195 503h109l134 -376l145 376h108l-236 -600c-29 -75 -76 -107 -150 -107c-31 0 -64 8 -96 22l10 102c24 -16 55 -29 82 -29s52 12 65 46zM95 642c0 34 28 62 62 62s62 -28 62 -62s-28 -62 -62 -62s-62 28 -62 62zM280 642c0 34 28 62 62 62
s62 -28 62 -62s-28 -62 -62 -62s-62 28 -62 62z" />
    <glyph glyph-name="Amacron" unicode="&#x100;" horiz-adv-x="640" 
d="M12 0h109l74 205h250l74 -205h109l-258 710h-100zM320 550l90 -250h-181zM167 865h306v-95h-306v95z" />
    <glyph glyph-name="amacron" unicode="&#x101;" horiz-adv-x="463" 
d="M418 0h-93l-7 42c-44 -32 -95 -49 -142 -49c-80 0 -148 47 -148 149c0 110 70 159 179 165l111 6v26c0 56 -43 73 -95 73c-58 0 -126 -21 -154 -34l-12 97c50 19 110 32 167 32c102 0 194 -42 194 -163v-344zM209 215c-59 -3 -81 -35 -81 -73c0 -32 23 -54 57 -54
c53 0 99 23 133 44v89zM78 655h306v-95h-306v95z" />
    <glyph glyph-name="Abreve" unicode="&#x102;" horiz-adv-x="640" 
d="M12 0h109l74 205h250l74 -205h109l-258 710h-100zM320 550l90 -250h-181zM200 867v53h85v-49c0 -20 16 -24 34 -24c14 0 25 2 35 6v67h85v-109c-36 -24 -72 -41 -120 -41c-65 0 -119 25 -119 97z" />
    <glyph glyph-name="abreve" unicode="&#x103;" horiz-adv-x="463" 
d="M418 0h-93l-7 42c-44 -32 -95 -49 -142 -49c-80 0 -148 47 -148 149c0 110 70 159 179 165l111 6v26c0 56 -43 73 -95 73c-58 0 -126 -21 -154 -34l-12 97c50 19 110 32 167 32c102 0 194 -42 194 -163v-344zM209 215c-59 -3 -81 -35 -81 -73c0 -32 23 -54 57 -54
c53 0 99 23 133 44v89zM116 657v53h85v-49c0 -20 16 -24 34 -24c14 0 25 2 35 6v67h85v-109c-36 -24 -72 -41 -120 -41c-65 0 -119 25 -119 97z" />
    <glyph glyph-name="Dcaron" unicode="&#x10e;" horiz-adv-x="610" 
d="M151 615v-520h129c133 0 195 118 195 251c0 176 -77 275 -246 275c-24 0 -50 -2 -78 -6zM280 0h-229v699c61 12 128 18 178 18c232 0 346 -131 346 -371c0 -186 -95 -346 -295 -346zM219 780l-116 140h111l37 -64l37 64h111l-116 -140h-64z" />
    <glyph glyph-name="cacute" unicode="&#x107;" horiz-adv-x="415" 
d="M382 130l12 -98c-49 -29 -95 -39 -146 -39c-132 0 -223 79 -223 217v71c0 139 85 226 234 226c40 0 82 -9 125 -26l-11 -92c-36 15 -73 23 -108 23c-77 0 -140 -40 -140 -132v-63c0 -89 57 -129 123 -129c48 0 95 15 134 42zM379 710l-101 -140h-109l84 140h126z" />
    <glyph glyph-name="Ccircumflex" unicode="&#x108;" horiz-adv-x="556" 
d="M500 149l24 -97c-57 -38 -128 -59 -198 -59c-173 0 -285 90 -285 298v115c0 215 126 311 289 311c59 0 117 -14 177 -39l-21 -92c-54 22 -109 35 -158 35c-105 0 -187 -59 -187 -220v-106c0 -147 86 -207 184 -207c60 0 120 23 175 61zM161 780l116 140h64l116 -140h-111
l-37 64l-37 -64h-111z" />
    <glyph glyph-name="ccircumflex" unicode="&#x109;" horiz-adv-x="415" 
d="M382 130l12 -98c-49 -29 -95 -39 -146 -39c-132 0 -223 79 -223 217v71c0 139 85 226 234 226c40 0 82 -9 125 -26l-11 -92c-36 15 -73 23 -108 23c-77 0 -140 -40 -140 -132v-63c0 -89 57 -129 123 -129c48 0 95 15 134 42zM80 570l116 140h64l116 -140h-111l-37 64
l-37 -64h-111z" />
    <glyph glyph-name="Cdotaccent" unicode="&#x10a;" horiz-adv-x="556" 
d="M500 149l24 -97c-57 -38 -128 -59 -198 -59c-173 0 -285 90 -285 298v115c0 215 126 311 289 311c59 0 117 -14 177 -39l-21 -92c-54 22 -109 35 -158 35c-105 0 -187 -59 -187 -220v-106c0 -147 86 -207 184 -207c60 0 120 23 175 61zM247 852c0 34 28 62 62 62
s62 -28 62 -62s-28 -62 -62 -62s-62 28 -62 62z" />
    <glyph glyph-name="cdotaccent" unicode="&#x10b;" horiz-adv-x="415" 
d="M382 130l12 -98c-49 -29 -95 -39 -146 -39c-132 0 -223 79 -223 217v71c0 139 85 226 234 226c40 0 82 -9 125 -26l-11 -92c-36 15 -73 23 -108 23c-77 0 -140 -40 -140 -132v-63c0 -89 57 -129 123 -129c48 0 95 15 134 42zM166 642c0 34 28 62 62 62s62 -28 62 -62
s-28 -62 -62 -62s-62 28 -62 62z" />
    <glyph glyph-name="Ccaron" unicode="&#x10c;" horiz-adv-x="556" 
d="M500 149l24 -97c-57 -38 -128 -59 -198 -59c-173 0 -285 90 -285 298v115c0 215 126 311 289 311c59 0 117 -14 177 -39l-21 -92c-54 22 -109 35 -158 35c-105 0 -187 -59 -187 -220v-106c0 -147 86 -207 184 -207c60 0 120 23 175 61zM277 780l-116 140h111l37 -64
l37 64h111l-116 -140h-64z" />
    <glyph glyph-name="ccaron" unicode="&#x10d;" horiz-adv-x="415" 
d="M382 130l12 -98c-49 -29 -95 -39 -146 -39c-132 0 -223 79 -223 217v71c0 139 85 226 234 226c40 0 82 -9 125 -26l-11 -92c-36 15 -73 23 -108 23c-77 0 -140 -40 -140 -132v-63c0 -89 57 -129 123 -129c48 0 95 15 134 42zM196 570l-116 140h111l37 -64l37 64h111
l-116 -140h-64z" />
    <glyph glyph-name="Cacute" unicode="&#x106;" horiz-adv-x="556" 
d="M500 149l24 -97c-57 -38 -128 -59 -198 -59c-173 0 -285 90 -285 298v115c0 215 126 311 289 311c59 0 117 -14 177 -39l-21 -92c-54 22 -109 35 -158 35c-105 0 -187 -59 -187 -220v-106c0 -147 86 -207 184 -207c60 0 120 23 175 61zM462 920l-101 -140h-109l84 140
h126z" />
    <glyph glyph-name="Emacron" unicode="&#x112;" horiz-adv-x="537" 
d="M499 95v-95h-443v710h429v-95h-329v-212h283v-95h-283v-213h343zM124 865h306v-95h-306v95z" />
    <glyph glyph-name="emacron" unicode="&#x113;" horiz-adv-x="473" 
d="M404 136l13 -95c-55 -33 -109 -48 -159 -48c-147 0 -228 100 -228 250c0 179 102 264 214 264c104 0 200 -76 200 -222c0 -26 -4 -56 -13 -87h-297c14 -76 66 -110 130 -110c47 0 94 17 140 48zM247 412c-62 0 -100 -55 -113 -119h210c0 67 -36 119 -97 119zM89 655h306
v-95h-306v95z" />
    <glyph glyph-name="Ebreve" unicode="&#x114;" horiz-adv-x="537" 
d="M499 95v-95h-443v710h429v-95h-329v-212h283v-95h-283v-213h343zM158 867v53h85v-49c0 -20 16 -24 34 -24c14 0 25 2 35 6v67h85v-109c-36 -24 -72 -41 -120 -41c-65 0 -119 25 -119 97z" />
    <glyph glyph-name="ebreve" unicode="&#x115;" horiz-adv-x="473" 
d="M404 136l13 -95c-55 -33 -109 -48 -159 -48c-147 0 -228 100 -228 250c0 179 102 264 214 264c104 0 200 -76 200 -222c0 -26 -4 -56 -13 -87h-297c14 -76 66 -110 130 -110c47 0 94 17 140 48zM247 412c-62 0 -100 -55 -113 -119h210c0 67 -36 119 -97 119zM123 657v53
h85v-49c0 -20 16 -24 34 -24c14 0 25 2 35 6v67h85v-109c-36 -24 -72 -41 -120 -41c-65 0 -119 25 -119 97z" />
    <glyph glyph-name="Edotaccent" unicode="&#x116;" horiz-adv-x="537" 
d="M499 95v-95h-443v710h429v-95h-329v-212h283v-95h-283v-213h343zM215 852c0 34 28 62 62 62s62 -28 62 -62s-28 -62 -62 -62s-62 28 -62 62z" />
    <glyph glyph-name="edotaccent" unicode="&#x117;" horiz-adv-x="473" 
d="M404 136l13 -95c-55 -33 -109 -48 -159 -48c-147 0 -228 100 -228 250c0 179 102 264 214 264c104 0 200 -76 200 -222c0 -26 -4 -56 -13 -87h-297c14 -76 66 -110 130 -110c47 0 94 17 140 48zM247 412c-62 0 -100 -55 -113 -119h210c0 67 -36 119 -97 119zM180 642
c0 34 28 62 62 62s62 -28 62 -62s-28 -62 -62 -62s-62 28 -62 62z" />
    <glyph glyph-name="Gcircumflex" unicode="&#x11c;" horiz-adv-x="608" 
d="M459 108v161c0 16 -7 24 -24 24h-112v95h127c80 0 109 -26 109 -107v-240c-71 -30 -149 -48 -222 -48c-157 0 -291 82 -291 298v115c0 220 141 311 296 311c68 0 139 -18 203 -50l-21 -92c-51 27 -116 46 -178 46c-105 0 -200 -55 -200 -220v-106
c0 -152 85 -207 191 -207c39 0 82 7 122 20zM182 780l116 140h64l116 -140h-111l-37 64l-37 -64h-111z" />
    <glyph glyph-name="gcircumflex" unicode="&#x11d;" horiz-adv-x="452" 
d="M211 507c39 0 71 -9 97 -25l12 48h100l-13 -55c-7 -30 -17 -47 -37 -62c12 -26 19 -56 19 -85c0 -90 -55 -179 -178 -179c-18 0 -35 2 -50 5c-9 -8 -14 -16 -14 -30c0 -17 8 -25 26 -25h108c86 0 146 -59 146 -141v-19c0 -97 -88 -146 -205 -146c-108 0 -203 50 -203 155
v21h100v-19c0 -43 47 -62 103 -62c54 0 104 18 104 57v9c0 31 -16 46 -53 46h-94c-84 0 -133 37 -133 99v15c0 33 12 58 39 81c-36 34 -52 83 -52 133c0 89 55 179 178 179zM211 249c55 0 78 41 78 80s-23 78 -78 78s-78 -39 -78 -78s23 -80 78 -80zM63 570l116 140h64
l116 -140h-111l-37 64l-37 -64h-111z" />
    <glyph glyph-name="Gbreve" unicode="&#x11e;" horiz-adv-x="608" 
d="M459 108v161c0 16 -7 24 -24 24h-112v95h127c80 0 109 -26 109 -107v-240c-71 -30 -149 -48 -222 -48c-157 0 -291 82 -291 298v115c0 220 141 311 296 311c68 0 139 -18 203 -50l-21 -92c-51 27 -116 46 -178 46c-105 0 -200 -55 -200 -220v-106
c0 -152 85 -207 191 -207c39 0 82 7 122 20zM211 867v53h85v-49c0 -20 16 -24 34 -24c14 0 25 2 35 6v67h85v-109c-36 -24 -72 -41 -120 -41c-65 0 -119 25 -119 97z" />
    <glyph glyph-name="gbreve" unicode="&#x11f;" horiz-adv-x="452" 
d="M211 507c39 0 71 -9 97 -25l12 48h100l-13 -55c-7 -30 -17 -47 -37 -62c12 -26 19 -56 19 -85c0 -90 -55 -179 -178 -179c-18 0 -35 2 -50 5c-9 -8 -14 -16 -14 -30c0 -17 8 -25 26 -25h108c86 0 146 -59 146 -141v-19c0 -97 -88 -146 -205 -146c-108 0 -203 50 -203 155
v21h100v-19c0 -43 47 -62 103 -62c54 0 104 18 104 57v9c0 31 -16 46 -53 46h-94c-84 0 -133 37 -133 99v15c0 33 12 58 39 81c-36 34 -52 83 -52 133c0 89 55 179 178 179zM211 249c55 0 78 41 78 80s-23 78 -78 78s-78 -39 -78 -78s23 -80 78 -80zM92 657v53h85v-49
c0 -20 16 -24 34 -24c14 0 25 2 35 6v67h85v-109c-36 -24 -72 -41 -120 -41c-65 0 -119 25 -119 97z" />
    <glyph glyph-name="Gdotaccent" unicode="&#x120;" horiz-adv-x="608" 
d="M459 108v161c0 16 -7 24 -24 24h-112v95h127c80 0 109 -26 109 -107v-240c-71 -30 -149 -48 -222 -48c-157 0 -291 82 -291 298v115c0 220 141 311 296 311c68 0 139 -18 203 -50l-21 -92c-51 27 -116 46 -178 46c-105 0 -200 -55 -200 -220v-106
c0 -152 85 -207 191 -207c39 0 82 7 122 20zM268 852c0 34 28 62 62 62s62 -28 62 -62s-28 -62 -62 -62s-62 28 -62 62z" />
    <glyph glyph-name="gdotaccent" unicode="&#x121;" horiz-adv-x="452" 
d="M211 507c39 0 71 -9 97 -25l12 48h100l-13 -55c-7 -30 -17 -47 -37 -62c12 -26 19 -56 19 -85c0 -90 -55 -179 -178 -179c-18 0 -35 2 -50 5c-9 -8 -14 -16 -14 -30c0 -17 8 -25 26 -25h108c86 0 146 -59 146 -141v-19c0 -97 -88 -146 -205 -146c-108 0 -203 50 -203 155
v21h100v-19c0 -43 47 -62 103 -62c54 0 104 18 104 57v9c0 31 -16 46 -53 46h-94c-84 0 -133 37 -133 99v15c0 33 12 58 39 81c-36 34 -52 83 -52 133c0 89 55 179 178 179zM211 249c55 0 78 41 78 80s-23 78 -78 78s-78 -39 -78 -78s23 -80 78 -80zM149 642
c0 34 28 62 62 62s62 -28 62 -62s-28 -62 -62 -62s-62 28 -62 62z" />
    <glyph glyph-name="Itilde" unicode="&#x128;" horiz-adv-x="218" 
d="M159 710v-710h-100v710h100zM58 834c-18 0 -25 -20 -27 -40l-74 19c18 72 52 101 90 101c50 0 84 -44 114 -44c18 0 25 20 27 40l74 -19c-16 -72 -51 -101 -88 -101c-51 0 -91 44 -116 44z" />
    <glyph glyph-name="itilde" unicode="&#x129;" horiz-adv-x="220" 
d="M170 0h-100v390c0 11 -4 15 -15 15h-32v95h53c70 0 94 -27 94 -92v-408zM59 624c-18 0 -25 -20 -27 -40l-74 19c18 72 52 101 90 101c50 0 84 -44 114 -44c18 0 25 20 27 40l74 -19c-16 -72 -51 -101 -88 -101c-51 0 -91 44 -116 44z" />
    <glyph glyph-name="Imacron" unicode="&#x12a;" horiz-adv-x="218" 
d="M159 710v-710h-100v710h100zM-44 865h306v-95h-306v95z" />
    <glyph glyph-name="imacron" unicode="&#x12b;" horiz-adv-x="220" 
d="M170 0h-100v390c0 11 -4 15 -15 15h-32v95h53c70 0 94 -27 94 -92v-408zM-43 655h306v-95h-306v95z" />
    <glyph glyph-name="Idotaccent" unicode="&#x130;" horiz-adv-x="218" 
d="M159 710v-710h-100v710h100zM47 852c0 34 28 62 62 62s62 -28 62 -62s-28 -62 -62 -62s-62 28 -62 62z" />
    <glyph glyph-name="lacute" unicode="&#x13a;" horiz-adv-x="230" 
d="M207 92l6 -90c-22 -6 -42 -9 -60 -9c-74 0 -108 44 -108 131v609h100v-607c0 -28 16 -38 36 -38c8 0 17 1 26 4zM255 920l-101 -140h-109l84 140h126z" />
    <glyph glyph-name="Lacute" unicode="&#x139;" horiz-adv-x="477" 
d="M455 95v-95h-404v710h100v-615h304zM261 920l-101 -140h-109l84 140h126z" />
    <glyph glyph-name="Nacute" unicode="&#x143;" horiz-adv-x="603" 
d="M434 0l-222 397l-61 135v-532h-100v710h112l229 -410l60 -137v547h100v-710h-118zM455 920l-101 -140h-109l84 140h126z" />
    <glyph glyph-name="nacute" unicode="&#x144;" horiz-adv-x="485" 
d="M45 500h93l7 -62c43 41 92 69 151 69c77 0 144 -42 144 -148v-359h-100v358c0 39 -19 54 -56 54c-48 0 -103 -38 -139 -83v-329h-100v500zM394 710l-101 -140h-109l84 140h126z" />
    <glyph glyph-name="Ncaron" unicode="&#x147;" horiz-adv-x="603" 
d="M434 0l-222 397l-61 135v-532h-100v710h112l229 -410l60 -137v547h100v-710h-118zM269 780l-116 140h111l37 -64l37 64h111l-116 -140h-64z" />
    <glyph glyph-name="ncaron" unicode="&#x148;" horiz-adv-x="485" 
d="M45 500h93l7 -62c43 41 92 69 151 69c77 0 144 -42 144 -148v-359h-100v358c0 39 -19 54 -56 54c-48 0 -103 -38 -139 -83v-329h-100v500zM210 570l-116 140h111l37 -64l37 64h111l-116 -140h-64z" />
    <glyph glyph-name="Omacron" unicode="&#x14c;" horiz-adv-x="660" 
d="M623 396v-82c0 -184 -93 -321 -293 -321s-293 137 -293 321v82c0 184 93 321 293 321s293 -137 293 -321zM139 399v-88c0 -138 74 -220 191 -220s191 82 191 220v88c0 138 -74 220 -191 220s-191 -82 -191 -220zM177 865h306v-95h-306v95z" />
    <glyph glyph-name="Obreve" unicode="&#x14e;" horiz-adv-x="660" 
d="M623 396v-82c0 -184 -93 -321 -293 -321s-293 137 -293 321v82c0 184 93 321 293 321s293 -137 293 -321zM139 399v-88c0 -138 74 -220 191 -220s191 82 191 220v88c0 138 -74 220 -191 220s-191 -82 -191 -220zM210 867v53h85v-49c0 -20 16 -24 34 -24c14 0 25 2 35 6
v67h85v-109c-36 -24 -72 -41 -120 -41c-65 0 -119 25 -119 97z" />
    <glyph glyph-name="omacron" unicode="&#x14d;" horiz-adv-x="514" 
d="M257 88c83 0 124 61 124 144v36c0 83 -41 144 -124 144s-124 -61 -124 -144v-36c0 -83 41 -144 124 -144zM257 -7c-163 0 -226 110 -226 235v44c0 125 63 235 226 235s226 -110 226 -235v-44c0 -125 -63 -235 -226 -235zM104 655h306v-95h-306v95z" />
    <glyph glyph-name="obreve" unicode="&#x14f;" horiz-adv-x="514" 
d="M257 88c83 0 124 61 124 144v36c0 83 -41 144 -124 144s-124 -61 -124 -144v-36c0 -83 41 -144 124 -144zM257 -7c-163 0 -226 110 -226 235v44c0 125 63 235 226 235s226 -110 226 -235v-44c0 -125 -63 -235 -226 -235zM137 657v53h85v-49c0 -20 16 -24 34 -24
c14 0 25 2 35 6v67h85v-109c-36 -24 -72 -41 -120 -41c-65 0 -119 25 -119 97z" />
    <glyph glyph-name="Ohungarumlaut" unicode="&#x150;" horiz-adv-x="660" 
d="M623 396v-82c0 -184 -93 -321 -293 -321s-293 137 -293 321v82c0 184 93 321 293 321s293 -137 293 -321zM139 399v-88c0 -138 74 -220 191 -220s191 82 191 220v88c0 138 -74 220 -191 220s-191 -82 -191 -220zM403 920l-101 -140h-99l84 140h116zM551 920l-101 -140
h-99l84 140h116z" />
    <glyph glyph-name="ohungarumlaut" unicode="&#x151;" horiz-adv-x="514" 
d="M257 88c83 0 124 61 124 144v36c0 83 -41 144 -124 144s-124 -61 -124 -144v-36c0 -83 41 -144 124 -144zM257 -7c-163 0 -226 110 -226 235v44c0 125 63 235 226 235s226 -110 226 -235v-44c0 -125 -63 -235 -226 -235zM328 710l-101 -140h-99l84 140h116zM476 710
l-101 -140h-99l84 140h116z" />
    <glyph glyph-name="Racute" unicode="&#x154;" horiz-adv-x="570" 
d="M51 0v691c62 17 125 26 183 26c155 0 277 -59 277 -224c0 -75 -34 -138 -101 -174c12 -15 24 -34 33 -56l109 -263h-108l-92 222c-20 49 -47 63 -113 63h-88v-285h-100zM151 615v-235h113c98 0 147 45 147 115c0 105 -88 127 -178 127c-28 0 -56 -3 -82 -7zM416 920
l-101 -140h-109l84 140h126z" />
    <glyph glyph-name="racute" unicode="&#x155;" horiz-adv-x="330" 
d="M312 495l-4 -94c-16 7 -32 11 -47 11c-52 0 -90 -34 -116 -77v-335h-100v500h93l7 -54c25 32 56 61 108 61c18 0 37 -3 59 -12zM310 710l-101 -140h-109l84 140h126z" />
    <glyph glyph-name="sacute" unicode="&#x15b;" horiz-adv-x="400" 
d="M359 481l-14 -92c-22 8 -88 23 -143 23c-45 0 -83 -12 -83 -44c0 -94 262 -46 262 -232c0 -113 -91 -143 -194 -143c-63 0 -133 14 -181 28l13 101c34 -13 107 -34 167 -34c52 0 94 11 94 54c0 86 -262 46 -262 230c0 98 86 135 179 135c58 0 118 -12 162 -26zM353 710
l-101 -140h-109l84 140h126z" />
    <glyph glyph-name="Sacute" unicode="&#x15a;" horiz-adv-x="548" 
d="M513 176c0 -134 -113 -183 -236 -183c-88 0 -177 25 -245 59l16 103c62 -35 141 -67 231 -67c72 0 134 24 134 91c0 143 -365 125 -365 363c0 124 113 175 236 175c73 0 150 -16 209 -38l-18 -95c-40 17 -119 38 -190 38c-73 0 -137 -15 -137 -82
c0 -146 365 -128 365 -364zM424 920l-101 -140h-109l84 140h126z" />
    <glyph glyph-name="uhungarumlaut" unicode="&#x171;" horiz-adv-x="485" 
d="M440 0h-93l-7 58c-45 -40 -94 -65 -149 -65c-92 0 -146 53 -146 154v353h100v-348c0 -41 15 -64 57 -64c51 0 107 41 138 76v336h100v-500zM317 710l-101 -140h-99l84 140h116zM465 710l-101 -140h-99l84 140h116z" />
    <glyph glyph-name="Uhungarumlaut" unicode="&#x170;" horiz-adv-x="649" 
d="M598 710v-466c0 -174 -137 -251 -274 -251s-273 77 -273 251v466h100v-466c0 -110 86 -156 173 -156s174 46 174 156v466h100zM399 920l-101 -140h-99l84 140h116zM547 920l-101 -140h-99l84 140h116z" />
    <glyph glyph-name="utilde" unicode="&#x169;" horiz-adv-x="485" 
d="M440 0h-93l-7 58c-45 -40 -94 -65 -149 -65c-92 0 -146 53 -146 154v353h100v-348c0 -41 15 -64 57 -64c51 0 107 41 138 76v336h100v-500zM191 624c-18 0 -25 -20 -27 -40l-74 19c18 72 52 101 90 101c50 0 84 -44 114 -44c18 0 25 20 27 40l74 -19
c-16 -72 -51 -101 -88 -101c-51 0 -91 44 -116 44z" />
    <glyph glyph-name="Umacron" unicode="&#x16a;" horiz-adv-x="649" 
d="M598 710v-466c0 -174 -137 -251 -274 -251s-273 77 -273 251v466h100v-466c0 -110 86 -156 173 -156s174 46 174 156v466h100zM171 865h306v-95h-306v95z" />
    <glyph glyph-name="umacron" unicode="&#x16b;" horiz-adv-x="485" 
d="M440 0h-93l-7 58c-45 -40 -94 -65 -149 -65c-92 0 -146 53 -146 154v353h100v-348c0 -41 15 -64 57 -64c51 0 107 41 138 76v336h100v-500zM89 655h306v-95h-306v95z" />
    <glyph glyph-name="Ubreve" unicode="&#x16c;" horiz-adv-x="649" 
d="M598 710v-466c0 -174 -137 -251 -274 -251s-273 77 -273 251v466h100v-466c0 -110 86 -156 173 -156s174 46 174 156v466h100zM205 867v53h85v-49c0 -20 16 -24 34 -24c14 0 25 2 35 6v67h85v-109c-36 -24 -72 -41 -120 -41c-65 0 -119 25 -119 97z" />
    <glyph glyph-name="ubreve" unicode="&#x16d;" horiz-adv-x="485" 
d="M440 0h-93l-7 58c-45 -40 -94 -65 -149 -65c-92 0 -146 53 -146 154v353h100v-348c0 -41 15 -64 57 -64c51 0 107 41 138 76v336h100v-500zM123 657v53h85v-49c0 -20 16 -24 34 -24c14 0 25 2 35 6v67h85v-109c-36 -24 -72 -41 -120 -41c-65 0 -119 25 -119 97z" />
    <glyph glyph-name="Uring" unicode="&#x16e;" horiz-adv-x="649" 
d="M598 710v-466c0 -174 -137 -251 -274 -251s-273 77 -273 251v466h100v-466c0 -110 86 -156 173 -156s174 46 174 156v466h100zM246 848c0 47 32 79 78 79c47 0 79 -32 79 -79c0 -46 -32 -78 -79 -78c-46 0 -78 32 -78 78zM300 848c0 -15 9 -24 24 -24c16 0 25 9 25 24
c0 16 -9 25 -25 25c-15 0 -24 -9 -24 -25z" />
    <glyph glyph-name="uring" unicode="&#x16f;" horiz-adv-x="485" 
d="M440 0h-93l-7 58c-45 -40 -94 -65 -149 -65c-92 0 -146 53 -146 154v353h100v-348c0 -41 15 -64 57 -64c51 0 107 41 138 76v336h100v-500zM164 638c0 47 32 79 78 79c47 0 79 -32 79 -79c0 -46 -32 -78 -79 -78c-46 0 -78 32 -78 78zM218 638c0 -15 9 -24 24 -24
c16 0 25 9 25 24c0 16 -9 25 -25 25c-15 0 -24 -9 -24 -25z" />
    <glyph glyph-name="Utilde" unicode="&#x168;" horiz-adv-x="649" 
d="M598 710v-466c0 -174 -137 -251 -274 -251s-273 77 -273 251v466h100v-466c0 -110 86 -156 173 -156s174 46 174 156v466h100zM273 834c-18 0 -25 -20 -27 -40l-74 19c18 72 52 101 90 101c50 0 84 -44 114 -44c18 0 25 20 27 40l74 -19c-16 -72 -51 -101 -88 -101
c-51 0 -91 44 -116 44z" />
    <glyph glyph-name="Zacute" unicode="&#x179;" horiz-adv-x="568" 
d="M38 95l328 520h-310v95h431v-95l-328 -520h369v-95h-490v95zM434 920l-101 -140h-109l84 140h126z" />
    <glyph glyph-name="zacute" unicode="&#x17a;" horiz-adv-x="438" 
d="M408 0h-377v98l232 307h-221v95h345v-95l-234 -310h255v-95zM371 710l-101 -140h-109l84 140h126z" />
    <glyph glyph-name="Zdotaccent" unicode="&#x17b;" horiz-adv-x="568" 
d="M38 95l328 520h-310v95h431v-95l-328 -520h369v-95h-490v95zM222 852c0 34 28 62 62 62s62 -28 62 -62s-28 -62 -62 -62s-62 28 -62 62z" />
    <glyph glyph-name="zdotaccent" unicode="&#x17c;" horiz-adv-x="438" 
d="M408 0h-377v98l232 307h-221v95h345v-95l-234 -310h255v-95zM157 642c0 34 28 62 62 62s62 -28 62 -62s-28 -62 -62 -62s-62 28 -62 62z" />
    </font>
</defs>
</svg>
