<?xml version="1.0" standalone="no"?>
<!DOCTYPE svg PUBLIC "-//W3C//DTD SVG 1.1//EN" "http://www.w3.org/Graphics/SVG/1.1/DTD/svg11.dtd" >
<svg xmlns="http://www.w3.org/2000/svg" xmlns:xlink="http://www.w3.org/1999/xlink" version="1.1">
<metadata>
Created by FontForge 20141024 at Thu Mar 12 10:30:48 2015
 By System Administrator
Copyright (c) 2009, 2013 Cadson Demak Co. Ltd., Thailand. All Rights Reserved.
</metadata>
<defs>
<font id="SukhumvitSet-Medium" horiz-adv-x="0" >
  <font-face 
    font-family="Sukhumvit Set"
    font-weight="500"
    font-stretch="normal"
    units-per-em="1000"
    panose-1="2 0 5 6 0 0 0 2 0 4"
    ascent="800"
    descent="-200"
    x-height="483"
    cap-height="674"
    bbox="-590 -427 1121 1026"
    underline-thickness="50"
    underline-position="-75"
    unicode-range="U+000D-FB02"
  />
<missing-glyph horiz-adv-x="515" 
d="M60 0v673h395v-673h-395zM122 63h270v548h-270v-548z" />
    <glyph glyph-name="uni0E4F.liga" unicode="&#xe4f;&#x22;" horiz-adv-x="546" 
d="M273 26q-44 0 -83 17t-68 46t-45.5 68t-16.5 83t16.5 83t45.5 68t68 45.5t83 16.5t83 -16.5t68 -45.5t45.5 -68t16.5 -83t-16.5 -83t-45.5 -68t-68 -46t-83 -17zM273 60q37 0 70 14t57.5 38.5t38.5 57t14 70.5q0 37 -14 70t-38.5 57.5t-57.5 38.5t-70 14t-70 -14
t-57.5 -38.5t-38.5 -57.5t-14 -70q0 -38 14 -70.5t38.5 -57t57.5 -38.5t70 -14zM273 117q-26 0 -48.5 9.5t-39.5 26t-26.5 39t-9.5 47.5q0 26 10 49t26.5 39.5t39 26t47.5 9.5q26 0 48.5 -9.5t39.5 -26.5t26.5 -39.5t9.5 -47.5q0 -26 -10 -48.5t-26.5 -39t-39 -26
t-47.5 -9.5zM273 168q29 0 49.5 20.5t20.5 51.5q0 29 -20.5 49.5t-50.5 20.5q-29 0 -50 -21t-21 -50t21 -50t51 -21zM233 483h-47l-10 203h67zM360 483h-47l-10 203h67z" />
    <glyph glyph-name="uni0E24.liga" unicode="&#xe24;&#xe32;" horiz-adv-x="952" 
d="M162 98q0 -12 4.5 -19t18.5 -7h54v-72h-77q-41 0 -63.5 25.5t-22.5 64.5v148q0 29 14 55t40 39l-82 70q8 32 30.5 62.5t56 54t76 37.5t90.5 14q60 0 103.5 -17t72.5 -49q34 26 79 46t105 20q52 0 92 -16t67.5 -45t42 -68.5t14.5 -87.5v-553h-86v553q0 72 -36 107.5
t-99 35.5q-46 0 -81.5 -15.5t-58.5 -39.5q15 -39 15 -88v-553h-86v553q0 72 -37.5 107.5t-106.5 35.5q-57 0 -101.5 -24.5t-60.5 -64.5l76 -70q-27 -14 -40 -34.5t-13 -52.5v-152z" />
    <glyph glyph-name="uni0E26.liga" unicode="&#xe26;&#xe32;" horiz-adv-x="957" 
d="M182 90q0 -39 -22.5 -65t-63.5 -25h-66v72h43q14 0 18.5 7t4.5 19v133q0 29 14 55t40 39l-92 77q8 32 30.5 62.5t55.5 54t75.5 37.5t90.5 14q59 0 102 -17t72 -47q34 26 78.5 45t103.5 19q52 0 92 -16t67.5 -45t42 -68.5t14.5 -87.5v-553h-86v553q0 72 -36 107.5
t-99 35.5q-45 0 -80 -15t-58 -38q16 -39 16 -90v-553h-86v553q0 72 -37 107.5t-106 35.5q-57 0 -101 -24.5t-60 -64.5l86 -77q-27 -14 -40 -34.5t-13 -52.5v-153z" />
    <glyph glyph-name="uni0E5A" unicode="&#xe2f;&#xe2f;" horiz-adv-x="744" 
d="M386 0v418q-10 -21 -28.5 -38.5t-42 -30t-51 -19t-56.5 -6.5q-46 0 -78 15t-52 41.5t-29 63t-9 80.5v36h84v-37q0 -65 24.5 -98t78.5 -33q29 0 58 13.5t52.5 35t38 49t14.5 55.5v15h82v-167q22 10 42.5 26.5t36.5 37.5t25 43.5t9 44.5v15h82v-560h-86v418
q-14 -30 -43 -53t-66 -39v-326h-86z" />
    <glyph glyph-name="fi" unicode="fi" horiz-adv-x="547" 
d="M469 0h-84v415h-211v-415h-82v415h-74v68h74v16q0 85 45 135t137 50q38 0 70 -8.5t53 -19.5l-19 -61q-20 11 -46 16t-54 5q-57 0 -80.5 -31.5t-23.5 -86.5v-15h295v-483z" />
    <glyph glyph-name="fl" unicode="fl" horiz-adv-x="577" 
d="M313 483v-68h-139v-415h-82v415h-74v68h74v16q0 39 14 73t38.5 59t58 39t71.5 14q51 0 84.5 -16.5t56.5 -38.5l10 45h74v-674h-84v569q-20 19 -50.5 33t-66.5 14q-57 0 -90.5 -31.5t-33.5 -86.5v-15h139z" />
    <glyph glyph-name=".notdef" horiz-adv-x="515" 
d="M60 0v673h395v-673h-395zM122 63h270v548h-270v-548z" />
    <glyph glyph-name=".null" 
 />
    <glyph glyph-name=".null" 
 />
    <glyph glyph-name="nonmarkingreturn" unicode="&#xd;" horiz-adv-x="195" 
 />
    <glyph glyph-name="space" unicode=" " horiz-adv-x="250" 
 />
    <glyph glyph-name="percent" unicode="%" horiz-adv-x="776" 
d="M536 660h70l-366 -660h-70zM110 484q0 -23 4 -45t13 -39t23 -27t34 -10t34 10.5t23 27t13 38t4 44.5t-4 45t-13 39t-23 27.5t-34 10.5t-34 -10.5t-23 -27.5t-13 -39t-4 -44zM42 484q0 36 9 68t27 56t44.5 38t61.5 14q34 0 60.5 -14t44.5 -38t27.5 -56t9.5 -68t-9.5 -68
t-27.5 -56t-44.5 -38t-60.5 -14q-35 0 -61.5 14t-44.5 38t-27 56t-9 68zM518 166q0 -23 4 -45t13 -39t23 -27t34 -10t34 10.5t23 27t13 38t4 44.5t-4 45t-13 39t-23 27.5t-34 10.5t-34 -10.5t-23 -27.5t-13 -39t-4 -44zM450 166q0 36 9 68t27 56t44.5 38t61.5 14
q34 0 60.5 -14t44.5 -38t27.5 -56t9.5 -68t-9.5 -68t-27.5 -56t-44.5 -38t-60.5 -14q-35 0 -61.5 14t-44.5 38t-27 56t-9 68z" />
    <glyph glyph-name="ampersand" unicode="&#x26;" horiz-adv-x="634" 
d="M470 45q-37 -26 -82 -40.5t-97 -14.5q-59 0 -102 15t-70.5 41.5t-41 61.5t-13.5 76q0 34 10.5 62.5t28.5 51.5t41.5 42.5t48.5 36.5l-8 10q-31 37 -49.5 71t-18.5 73q0 71 42 112t123 41q43 0 73.5 -11.5t50 -31.5t28.5 -47t9 -58q0 -30 -12 -54.5t-32.5 -45.5t-46 -39
t-52.5 -36l168 -201q35 58 35 137v53h84v-53q0 -60 -17 -111t-48 -90l80 -96h-94zM293 70q76 0 125 37l-177 212q-37 -27 -62 -58.5t-25 -73.5q0 -56 36 -86.5t103 -30.5zM198 536q0 -28 12 -55.5t38 -56.5l6 -8q22 13 41.5 27t34 28.5t23 31t8.5 35.5q0 34 -18.5 55
t-61.5 21q-38 0 -60.5 -19.5t-22.5 -58.5z" />
    <glyph glyph-name="quotesingle" unicode="'" horiz-adv-x="190" 
d="M122 452h-54l-12 236h78z" />
    <glyph glyph-name="parenleft" unicode="(" horiz-adv-x="299" 
d="M70 283q0 82 16 148t43 117.5t63 88.5t77 61l20 -37q-36 -24 -62.5 -63t-44.5 -88.5t-27 -107.5t-9 -119q0 -62 9 -119.5t27 -107t44.5 -88.5t62.5 -63l-20 -37q-41 24 -77 61t-63 88.5t-43 117.5t-16 148z" />
    <glyph glyph-name="parenright" unicode=")" horiz-adv-x="299" 
d="M229 283q0 -82 -16 -148t-43 -117.5t-63 -88.5t-77 -61l-20 37q36 24 62.5 63t44.5 88.5t27 107t9 119.5q0 61 -9 119t-27 107.5t-44.5 88.5t-62.5 63l20 37q41 -24 77 -61t63 -88.5t43 -117.5t16 -148z" />
    <glyph glyph-name="asterisk" unicode="*" horiz-adv-x="508" 
d="M448 561l-139 -92v-8l139 -94l-55 -53l-109 108l-7 -1l18 -163h-82l19 163l-7 1l-109 -108l-56 53l139 94v8l-139 92l56 54l109 -107l7 2l-19 164h82l-18 -164l7 -2l109 107z" />
    <glyph glyph-name="plus" unicode="+" horiz-adv-x="572" 
d="M324 496v-178h174v-68h-174v-178h-76v178h-174v68h174v178h76z" />
    <glyph glyph-name="comma" unicode="," horiz-adv-x="242" 
d="M180 106l-76 -231h-52l30 231h98z" />
    <glyph glyph-name="hyphen" unicode="-" horiz-adv-x="324" 
d="M294 303v-68h-264v68h264z" />
    <glyph glyph-name="period" unicode="." horiz-adv-x="242" 
d="M60 50q0 25 16 42.5t45 17.5t45 -17.5t16 -42.5t-16 -42.5t-45 -17.5t-45 17.5t-16 42.5z" />
    <glyph glyph-name="slash" unicode="/" horiz-adv-x="371" 
d="M77 -40h-67l284 714h67z" />
    <glyph glyph-name="zero" unicode="0" horiz-adv-x="572" 
d="M134 325q0 -134 39 -198.5t113 -64.5t113 64.5t39 198.5t-39 198.5t-113 64.5t-113 -64.5t-39 -198.5zM48 325q0 159 62.5 247t175.5 88t175.5 -88t62.5 -247t-62.5 -247t-175.5 -88t-175.5 88t-62.5 247z" />
    <glyph glyph-name="one" unicode="1" horiz-adv-x="572" 
d="M255 570l-138 -44v70l152 54h72v-572h153v-78h-398v78h159v492z" />
    <glyph glyph-name="two" unicode="2" horiz-adv-x="572" 
d="M266 582q-42 0 -82.5 -10.5t-72.5 -25.5l-22 72q32 16 78 29t100 13q109 0 160 -48t51 -128q0 -41 -15.5 -79.5t-41.5 -76t-61.5 -74.5t-74.5 -74l-105 -100h320v-80h-438v65l162 164q41 42 72.5 75.5t52.5 63t32 57.5t11 59q0 50 -34.5 74t-91.5 24z" />
    <glyph glyph-name="three" unicode="3" horiz-adv-x="572" 
d="M249 66q77 0 114 32.5t37 85.5q0 58 -38 86t-102 28h-95v72h95q53 0 87 29.5t34 86.5q0 46 -33.5 72t-112.5 26q-47 0 -84 -9t-66 -23l-22 70q32 16 78 27t99 11q60 0 102.5 -13.5t70 -37t40 -55t12.5 -67.5q0 -62 -27.5 -96t-69.5 -53q51 -14 83.5 -53t32.5 -102
q0 -88 -60.5 -140.5t-173.5 -52.5q-60 0 -107.5 11.5t-80.5 28.5l22 70q29 -14 71.5 -24t93.5 -10z" />
    <glyph glyph-name="four" unicode="4" horiz-adv-x="572" 
d="M368 196v318l-225 -318h225zM379 650h71v-454h76v-72h-76v-124h-84v124h-320v59z" />
    <glyph glyph-name="five" unicode="5" horiz-adv-x="572" 
d="M249 66q41 0 71.5 10.5t51 28.5t30.5 42.5t10 52.5q0 63 -36.5 98t-122.5 35h-164v59l25 258h344v-80h-270l-15 -159h81q120 0 182 -56t62 -154t-66 -154.5t-182 -56.5q-62 0 -109.5 11.5t-80.5 28.5l22 70q29 -14 70.5 -24t96.5 -10z" />
    <glyph glyph-name="six" unicode="6" horiz-adv-x="572" 
d="M314 358q-55 0 -97.5 -20.5t-69.5 -48.5q0 -54 12.5 -96t33.5 -71.5t49.5 -44.5t60.5 -15q60 0 96.5 41.5t36.5 116.5q0 28 -6 53t-20 44t-37.5 30t-58.5 11zM324 588q-81 0 -128.5 -60t-49.5 -172q11 12 28 25.5t39.5 24.5t50.5 18t62 7q42 0 78 -14.5t62.5 -42t41 -67
t14.5 -89.5q0 -48 -15.5 -90t-44 -72.5t-69 -48t-90.5 -17.5q-115 0 -179 82.5t-64 245.5q0 83 19 146.5t53.5 107t82.5 66t107 22.5q48 0 82.5 -10.5t65.5 -27.5l-21 -66q-55 32 -125 32z" />
    <glyph glyph-name="seven" unicode="7" horiz-adv-x="572" 
d="M72 650h434v-57l-279 -593h-90l270 572h-335v78z" />
    <glyph glyph-name="eight" unicode="8" horiz-adv-x="572" 
d="M286 60q68 0 106 32t38 86q0 60 -34.5 90t-109.5 30t-109.5 -30t-34.5 -90q0 -54 38 -86t106 -32zM286 660q100 0 154.5 -47t54.5 -127q0 -59 -29.5 -96.5t-73.5 -51.5q25 -5 47 -18.5t38.5 -35t26.5 -49t10 -59.5q0 -86 -60.5 -136t-167.5 -50t-167.5 50t-60.5 136
q0 32 10 59.5t26.5 49t38.5 35t47 18.5q-44 14 -73.5 51.5t-29.5 96.5q0 80 54.5 127t154.5 47zM286 590q-58 0 -91.5 -27.5t-33.5 -80.5q0 -56 33 -85t92 -29t92 29t33 85q0 53 -33.5 80.5t-91.5 27.5z" />
    <glyph glyph-name="nine" unicode="9" horiz-adv-x="572" 
d="M258 292q55 0 97.5 20.5t69.5 48.5q0 54 -12.5 96t-33.5 71.5t-49.5 44.5t-60.5 15q-60 0 -96.5 -41.5t-36.5 -116.5q0 -28 6 -53t20 -44t37.5 -30t58.5 -11zM240 62q96 0 140 60.5t46 171.5q-11 -12 -28 -25.5t-39.5 -24.5t-50.5 -18t-62 -7q-42 0 -78 14.5t-62.5 42
t-41 67t-14.5 89.5q0 48 15.5 90t44 72.5t69 48t90.5 17.5q115 0 179 -82.5t64 -245.5q0 -170 -68.5 -256t-201.5 -86q-48 0 -86.5 10t-70.5 26l21 66q29 -15 64.5 -22.5t69.5 -7.5z" />
    <glyph glyph-name="colon" unicode=":" horiz-adv-x="262" 
d="M70 418q0 25 16 42.5t45 17.5t45 -17.5t16 -42.5t-16 -42.5t-45 -17.5t-45 17.5t-16 42.5zM70 50q0 25 16 42.5t45 17.5t45 -17.5t16 -42.5t-16 -42.5t-45 -17.5t-45 17.5t-16 42.5z" />
    <glyph glyph-name="semicolon" unicode=";" horiz-adv-x="262" 
d="M70 418q0 25 16 42.5t45 17.5t45 -17.5t16 -42.5t-16 -42.5t-45 -17.5t-45 17.5t-16 42.5zM185 106l-76 -231h-52l30 231h98z" />
    <glyph glyph-name="less" unicode="&#x3c;" horiz-adv-x="572" 
d="M66 312l426 231v-80l-341 -179l341 -179v-80l-426 231v56z" />
    <glyph glyph-name="equal" unicode="=" horiz-adv-x="572" 
d="M488 228v-68h-404v68h404zM488 408v-68h-404v68h404z" />
    <glyph glyph-name="greater" unicode="&#x3e;" horiz-adv-x="572" 
d="M506 256l-426 -231v80l341 179l-341 179v80l426 -231v-56z" />
    <glyph glyph-name="question" unicode="?" horiz-adv-x="494" 
d="M226 606q-42 0 -83 -10.5t-73 -25.5l-22 72q32 16 78.5 29t100.5 13q106 0 156.5 -45.5t50.5 -120.5q0 -39 -13 -69.5t-33 -55.5t-42.5 -46.5t-42.5 -42t-33 -42t-13 -47.5q0 -33 9 -55h-69q-7 11 -10.5 26.5t-3.5 31.5q0 32 12 57.5t30.5 47.5t40 42t40 41.5t30.5 46.5
t12 57q0 19 -7 36.5t-22 30.5t-38 21t-55 8zM170 50q0 25 16 42.5t45 17.5t45 -17.5t16 -42.5t-16 -42.5t-45 -17.5t-45 17.5t-16 42.5z" />
    <glyph glyph-name="at" unicode="@" horiz-adv-x="820" 
d="M510 458q-14 8 -36 12.5t-48 4.5q-69 0 -99.5 -37.5t-30.5 -105.5q0 -37 8 -63.5t22 -43.5t32 -25t39 -8q49 0 81 40.5t32 107.5v118zM106 327q0 -73 23.5 -127.5t64 -91t94.5 -54.5t115 -18q41 0 81.5 10.5t72.5 30.5l21 -41q-32 -21 -76.5 -33.5t-100.5 -12.5
q-72 0 -134 21t-108 63t-72.5 105t-26.5 148q0 71 24.5 135.5t71 114t113.5 78.5t152 29q78 0 141 -24.5t107 -68t67.5 -104t23.5 -132.5q0 -59 -11 -101.5t-29.5 -70.5t-43.5 -41t-52 -13q-38 0 -62.5 26.5t-26.5 64.5q-8 -15 -22.5 -31t-34.5 -28.5t-44 -21t-50 -8.5
q-72 0 -113.5 53t-41.5 145q0 40 9.5 77.5t32.5 66t61 46t95 17.5q43 0 82 -10t73 -28v-240q0 -16 2.5 -30t8 -25t15 -17.5t23.5 -6.5q13 0 27 9t25.5 30t19 56.5t7.5 89.5q0 51 -17 100t-52 87.5t-89.5 62.5t-129.5 24q-74 0 -133 -24.5t-99.5 -67t-62 -99t-21.5 -120.5z
" />
    <glyph glyph-name="A" unicode="A" horiz-adv-x="626" 
d="M451 181h-277l-65 -181h-89l249 674h88l249 -674h-89zM203 259h220l-68 185l-41 132h-2l-41 -132z" />
    <glyph glyph-name="B" unicode="B" horiz-adv-x="616" 
d="M443 354q23 -4 46 -16t41.5 -31.5t30 -47t11.5 -63.5q0 -43 -14.5 -79t-44.5 -62t-75.5 -40.5t-106.5 -14.5h-251v674h250q53 0 93 -13.5t67 -37.5t40.5 -57.5t13.5 -72.5q0 -29 -10 -52t-25 -40.5t-32.5 -29t-33.5 -17.5zM330 77q75 0 116.5 31t41.5 88q0 32 -11.5 53.5
t-32.5 35t-50 19.5t-65 6h-165v-233h166zM331 386q27 0 50.5 7t41 21t27.5 35t10 48q0 49 -35 74.5t-95 25.5h-166v-211h167z" />
    <glyph glyph-name="C" unicode="C" horiz-adv-x="572" 
d="M365 606q-110 0 -172.5 -70t-62.5 -199q0 -127 61 -198t175 -71q38 0 75.5 7.5t70.5 23.5l22 -73q-37 -18 -78.5 -27t-91.5 -9q-83 0 -143 25t-99.5 70.5t-58.5 109.5t-19 142q0 76 21 140t61.5 110t100.5 71.5t137 25.5q53 0 91 -8t73 -24l-22 -72q-56 26 -141 26z" />
    <glyph glyph-name="D" unicode="D" horiz-adv-x="654" 
d="M608 338q0 -166 -83.5 -252t-248.5 -86h-196v674h196q165 0 248.5 -85t83.5 -251zM522 338q0 138 -63.5 197t-182.5 59h-110v-514h110q119 0 182.5 60t63.5 198z" />
    <glyph glyph-name="E" unicode="E" horiz-adv-x="546" 
d="M80 674h412v-79h-326v-207h306v-79h-306v-230h332v-79h-418v674z" />
    <glyph glyph-name="F" unicode="F" horiz-adv-x="526" 
d="M80 674h404v-79h-318v-217h298v-79h-298v-299h-86v674z" />
    <glyph glyph-name="G" unicode="G" horiz-adv-x="644" 
d="M379 606q-115 0 -182 -66.5t-67 -200.5q0 -61 15 -111t41 -85.5t62.5 -55t80.5 -19.5q71 0 116 38.5t45 124.5v69h-135v78h219v-378h-70l-14 79q-20 -37 -60 -63t-105 -26q-66 0 -118.5 24.5t-88.5 70.5t-55 110t-19 144q0 81 22 145t65 108.5t105 68t142 23.5
q53 0 92.5 -9t74.5 -25l-22 -72q-29 14 -67 21t-77 7z" />
    <glyph glyph-name="H" unicode="H" horiz-adv-x="660" 
d="M494 308h-328v-308h-86v674h86v-286h328v286h86v-674h-86v308z" />
    <glyph glyph-name="I" unicode="I" horiz-adv-x="250" 
d="M168 0h-86v674h86v-674z" />
    <glyph glyph-name="J" unicode="J" horiz-adv-x="382" 
d="M304 195q0 -105 -43 -154t-132 -49q-40 0 -69.5 7.5t-49.5 18.5l22 73q15 -9 39.5 -15t56.5 -6q40 0 65 28.5t25 96.5v479h86v-479z" />
    <glyph glyph-name="K" unicode="K" horiz-adv-x="604" 
d="M296 359l298 -359h-106l-277 336v41l270 297h102zM166 0h-86v674h86v-674z" />
    <glyph glyph-name="L" unicode="L" horiz-adv-x="514" 
d="M80 674h86v-594h318v-80h-404v674z" />
    <glyph glyph-name="M" unicode="M" horiz-adv-x="792" 
d="M350 109l-144 323q-12 27 -23.5 55t-22.5 65h-2q5 -45 6.5 -83t1.5 -59v-410h-86v674h104l159 -359q20 -43 32 -74.5t20 -51.5h2q8 20 20 51.5t32 74.5l159 359h104v-674h-86v410q0 21 1.5 59t6.5 83h-2q-11 -37 -22.5 -65t-23.5 -55l-144 -323h-92z" />
    <glyph glyph-name="N" unicode="N" horiz-adv-x="666" 
d="M440 239q20 -32 37.5 -65.5t28.5 -56.5h2q-5 35 -6.5 70.5t-1.5 77.5v409h86v-674h-92l-268 435q-20 32 -37.5 65.5t-28.5 56.5h-2q5 -35 6.5 -70.5t1.5 -77.5v-409h-86v674h92z" />
    <glyph glyph-name="O" unicode="O" horiz-adv-x="692" 
d="M346 62q109 0 162.5 71.5t53.5 203.5t-53.5 203.5t-162.5 71.5t-162.5 -71.5t-53.5 -203.5t53.5 -203.5t162.5 -71.5zM346 -10q-79 0 -136 26.5t-94 73t-54.5 110t-17.5 137.5t17.5 137.5t54.5 110t94 73t136 26.5t136 -26.5t94 -73t54.5 -110t17.5 -137.5t-17.5 -137.5
t-54.5 -110t-94 -73t-136 -26.5z" />
    <glyph glyph-name="P" unicode="P" horiz-adv-x="566" 
d="M524 464q0 -45 -16 -84t-45.5 -68.5t-72 -46t-95.5 -16.5h-129v-249h-86v674h221q53 0 94.5 -16.5t70 -45t43.5 -66.5t15 -82zM438 464q0 60 -35 95t-102 35h-135v-265h129q67 0 105 36t38 99z" />
    <glyph glyph-name="Q" unicode="Q" horiz-adv-x="692" 
d="M212 -80q45 0 72.5 21t38.5 50q-73 4 -125.5 31.5t-86.5 73.5t-50.5 107.5t-16.5 133.5q0 74 17.5 137.5t54.5 110t94 73t136 26.5t136 -26.5t94 -73t54.5 -110t17.5 -137.5q0 -67 -14.5 -125.5t-44.5 -103.5t-76 -75t-110 -39q-8 -20 -23.5 -41.5t-38.5 -32.5h195v-74
h-337v74h13zM346 62q109 0 162.5 71.5t53.5 203.5t-53.5 203.5t-162.5 71.5t-162.5 -71.5t-53.5 -203.5t53.5 -203.5t162.5 -71.5z" />
    <glyph glyph-name="R" unicode="R" horiz-adv-x="590" 
d="M544 472q0 -35 -10.5 -66.5t-30.5 -57.5t-48.5 -45t-64.5 -29l160 -274h-94l-154 265h-136v-265h-86v674h241q53 0 94.5 -16t70 -43t43.5 -64t15 -79zM458 472q0 56 -35 89t-102 33h-155v-249h149q67 0 105 34.5t38 92.5z" />
    <glyph glyph-name="S" unicode="S" horiz-adv-x="530" 
d="M233 -10q-64 0 -107 10.5t-76 27.5l22 71q28 -14 69 -23t92 -9q36 0 66 6.5t51.5 20t34 35t12.5 51.5t-13 50t-34.5 34.5t-50.5 25t-60 20.5q-30 10 -63.5 23.5t-61.5 35t-46 54t-18 80.5q0 39 13 72t41 57.5t71.5 38t103.5 13.5q50 0 90 -9.5t75 -26.5l-22 -71
q-29 14 -65.5 22t-77.5 8q-78 0 -112 -28.5t-34 -73.5q0 -28 12 -47t32.5 -33t47.5 -24t57 -20q34 -12 69.5 -27t64 -38t46.5 -56.5t18 -81.5t-18 -83.5t-50.5 -59t-78 -34.5t-100.5 -11z" />
    <glyph glyph-name="T" unicode="T" horiz-adv-x="514" 
d="M300 595v-595h-86v595l-204 -1v80h494v-80z" />
    <glyph glyph-name="U" unicode="U" horiz-adv-x="668" 
d="M334 -10q-118 0 -187 68.5t-69 211.5v404h86v-405q0 -100 44 -149.5t126 -49.5t126 49.5t44 149.5v405h86v-404q0 -143 -69 -211.5t-187 -68.5z" />
    <glyph glyph-name="V" unicode="V" horiz-adv-x="614" 
d="M507 674h89l-245 -674h-88l-245 674h89l146 -408l53 -173h2l53 173z" />
    <glyph glyph-name="W" unicode="W" horiz-adv-x="881" 
d="M187 0l-157 674h87l85 -375q13 -56 19.5 -105t11.5 -97h2q8 50 18 95.5t27 99.5l118 382h85l118 -382q17 -54 27 -99.5t18 -95.5h2q5 48 11.5 97t19.5 105l85 375h87l-157 -674h-84l-135 439q-10 32 -19.5 71.5t-14.5 70.5h-2q-5 -31 -14.5 -70.5t-19.5 -71.5l-134 -439
h-84z" />
    <glyph glyph-name="X" unicode="X" horiz-adv-x="620" 
d="M311 290h-2l-185 -290h-96l233 351l-214 323h96l166 -262h2l166 262h96l-214 -323l233 -351h-96z" />
    <glyph glyph-name="Y" unicode="Y" horiz-adv-x="568" 
d="M327 287v-287h-86v287l-225 387h91l176 -313h2l176 313h91z" />
    <glyph glyph-name="Z" unicode="Z" horiz-adv-x="548" 
d="M40 60l344 535h-320v79h432v-60l-344 -535h350v-79h-462v60z" />
    <glyph glyph-name="bracketleft" unicode="[" horiz-adv-x="284" 
d="M80 684h184v-64h-110v-674h110v-64h-184v802z" />
    <glyph glyph-name="backslash" unicode="\" horiz-adv-x="371" 
d="M10 674h67l284 -714h-67z" />
    <glyph glyph-name="bracketright" unicode="]" horiz-adv-x="284" 
d="M204 -118h-184v64h110v674h-110v64h184v-802z" />
    <glyph glyph-name="asciicircum" unicode="^" horiz-adv-x="522" 
d="M482 276h-88l-133 309l-133 -309h-88l184 398h74z" />
    <glyph glyph-name="underscore" unicode="_" horiz-adv-x="434" 
d="M434 -67v-68h-434v68h434z" />
    <glyph glyph-name="grave" unicode="`" horiz-adv-x="300" 
d="M182 579l-26 -37l-168 99l46 63z" />
    <glyph glyph-name="a" unicode="a" horiz-adv-x="504" 
d="M352 238h-101q-63 0 -96 -27t-33 -75q0 -37 23 -58.5t59 -21.5q33 0 60 12.5t46.5 33t30.5 46t11 51.5v39zM352 316q0 57 -30.5 83t-80.5 26q-43 0 -80.5 -9t-69.5 -24l-19 59q27 16 72 29t100 13q96 0 141.5 -48.5t45.5 -129.5v-315h-63l-16 82q-11 -18 -23.5 -34.5
t-31.5 -29t-45 -20.5t-63 -8q-31 0 -58 9.5t-47.5 28t-32 45.5t-11.5 63q0 83 56.5 123.5t155.5 40.5h100v16z" />
    <glyph glyph-name="b" unicode="b" horiz-adv-x="560" 
d="M160 237q0 -39 12 -70.5t31.5 -54t45 -34.5t52.5 -12q26 0 50 9.5t42 31.5t28.5 57t10.5 86q0 83 -33.5 125t-89.5 42q-44 0 -83.5 -22.5t-65.5 -56.5v-101zM76 674h84v-263q9 13 25 27.5t37 26.5t47 20t56 8q49 0 85 -21t59 -55.5t34 -78t11 -88.5q0 -126 -55 -193
t-145 -67q-26 0 -50 7.5t-44.5 20t-35.5 29.5t-24 35l-16 -82h-68v674z" />
    <glyph glyph-name="c" unicode="c" horiz-adv-x="460" 
d="M278 425q-39 0 -68 -14t-48 -38.5t-28 -58t-9 -72.5t9 -73t28.5 -58.5t49 -38.5t70.5 -14q31 0 62.5 6.5t60.5 20.5l19 -62q-32 -17 -67.5 -25t-82.5 -8q-59 0 -102.5 19.5t-72.5 53.5t-43 80t-14 99t14 99t43.5 79.5t74 53t105.5 19.5q82 0 141 -31l-19 -63
q-55 26 -123 26z" />
    <glyph glyph-name="d" unicode="d" horiz-adv-x="560" 
d="M400 342q-24 35 -58.5 55t-71.5 20q-63 0 -102.5 -43t-39.5 -132q0 -48 11 -81.5t29.5 -54.5t42 -30.5t48.5 -9.5q27 0 52.5 12t45 34.5t31.5 54t12 70.5v105zM484 0h-68l-16 82q-9 -18 -24 -35t-35.5 -29.5t-44.5 -20t-50 -7.5q-44 0 -81 17t-63.5 49t-41 78.5
t-14.5 106.5q0 52 13.5 97.5t40.5 80t66 54.5t90 20q27 0 49.5 -7t40.5 -18t31.5 -25t22.5 -28v259h84v-674z" />
    <glyph glyph-name="e" unicode="e" horiz-adv-x="502" 
d="M125 204q8 -71 47 -108.5t112 -37.5q31 0 65 6t63 20l19 -62q-63 -32 -155 -32q-118 0 -176 68t-58 184q0 53 12 99t38.5 79.5t68 53t101.5 19.5q99 0 146.5 -55.5t47.5 -148.5q0 -26 -2.5 -46t-7.5 -39h-321zM262 429q-36 0 -61 -12.5t-41.5 -34t-25.5 -51.5t-11 -65
h255v23q0 66 -26.5 103t-89.5 37z" />
    <glyph glyph-name="f" unicode="f" horiz-adv-x="337" 
d="M252 616q-25 0 -40 -7.5t-23.5 -21t-11.5 -34t-3 -45.5v-25h139v-68h-139v-415h-82v415h-74v68h74v26q0 40 8.5 72t27 55t48 35.5t72.5 12.5q32 0 55 -6.5t44 -17.5l-19 -61q-20 11 -38 14t-38 3z" />
    <glyph glyph-name="g" unicode="g" horiz-adv-x="559" 
d="M400 336q-20 35 -56.5 58t-73.5 23q-63 0 -102.5 -42.5t-39.5 -127.5q0 -46 11 -78.5t29.5 -53t42 -30t48.5 -9.5q30 0 56 12t45 34.5t29.5 54t10.5 70.5v89zM400 92q-9 -18 -24 -35t-35.5 -29.5t-44.5 -20t-50 -7.5q-44 0 -81 17t-63.5 48.5t-41 77t-14.5 103.5
q0 50 13.5 95t40.5 78.5t66 53.5t90 20q27 0 49.5 -8t40.5 -20t31.5 -26.5t22.5 -27.5l14 72h70v-442q0 -66 -16.5 -112t-46.5 -75t-71.5 -42t-90.5 -13q-53 0 -101.5 14t-76.5 32l21 67q29 -17 66 -27.5t79 -10.5q34 0 62 7t48 26t31.5 51.5t11.5 83.5v50z" />
    <glyph glyph-name="h" unicode="h" horiz-adv-x="565" 
d="M160 0h-84v674h84v-259q9 12 25 25.5t37 25.5t47.5 19.5t56.5 7.5q78 0 122 -51.5t44 -140.5v-301h-82v301q0 54 -26 85t-73 31q-48 0 -86.5 -20.5t-64.5 -54.5v-342z" />
    <glyph glyph-name="i" unicode="i" horiz-adv-x="240" 
d="M162 0h-84v483h84v-483zM64 630q0 23 14.5 39t41.5 16t41.5 -16t14.5 -39t-14.5 -39t-41.5 -16t-41.5 16t-14.5 39z" />
    <glyph glyph-name="j" unicode="j" horiz-adv-x="240" 
d="M162 -23q0 -42 -6.5 -75t-23 -56.5t-44 -35.5t-70.5 -12q-23 0 -41.5 5t-32.5 13l21 66q24 -10 51 -10q38 0 50 25t12 79v507h84v-506zM64 630q0 23 14.5 39t41.5 16t41.5 -16t14.5 -39t-14.5 -39t-41.5 -16t-41.5 16t-14.5 39z" />
    <glyph glyph-name="k" unicode="k" horiz-adv-x="507" 
d="M493 0h-99q-55 71 -99 127q-19 24 -37 47t-32 41t-22.5 29.5l-8.5 11.5v28l188 199h100l-202 -213zM160 0h-84v674h84v-674z" />
    <glyph glyph-name="l" unicode="l" horiz-adv-x="240" 
d="M162 0h-84v674h84v-674z" />
    <glyph glyph-name="m" unicode="m" horiz-adv-x="800" 
d="M159 0h-84v483h70l14 -72q9 13 22 27.5t31 26.5t41.5 20t53.5 8q48 0 79 -25t45 -68q23 38 63.5 65.5t92.5 27.5q72 0 106 -49t34 -127v-317h-82v317q0 46 -18 74t-58 28q-22 0 -41 -7.5t-35 -20.5t-28.5 -29t-21.5 -33v-329h-82v317q0 46 -18 74t-57 28
q-44 0 -76.5 -23.5t-50.5 -57.5v-338z" />
    <glyph glyph-name="n" unicode="n" horiz-adv-x="564" 
d="M159 0h-84v483h70l14 -72q9 13 25 27.5t37 26.5t47.5 20t56.5 8q78 0 122 -51.5t44 -140.5v-301h-82v301q0 54 -26 85t-73 31q-48 0 -86.5 -22t-64.5 -57v-338z" />
    <glyph glyph-name="o" unicode="o" horiz-adv-x="540" 
d="M125 242q0 -39 8.5 -73t26 -58.5t45 -38.5t65.5 -14t65.5 14t45 38.5t26 58.5t8.5 73t-8.5 72.5t-26 58t-45 38.5t-65.5 14t-65.5 -14t-45 -38.5t-26 -58t-8.5 -72.5zM42 242q0 53 13.5 99t41.5 79.5t71 53t102 19.5t102 -19.5t71 -53t41.5 -79.5t13.5 -99t-13.5 -99
t-41.5 -80t-71 -53.5t-102 -19.5t-102 19.5t-71 53.5t-41.5 80t-13.5 99z" />
    <glyph glyph-name="p" unicode="p" horiz-adv-x="559" 
d="M159 237q0 -39 12 -70.5t31.5 -54t45 -34.5t52.5 -12q26 0 50 9.5t42 31.5t28.5 57t10.5 86q0 83 -33.5 125t-89.5 42q-44 0 -83.5 -22.5t-65.5 -56.5v-101zM145 483l14 -72q9 13 25 27.5t37 26.5t47 20t56 8q49 0 85 -21t59 -55.5t34 -78t11 -88.5q0 -126 -55 -193
t-145 -67q-26 0 -50 7.5t-44.5 20t-35.5 29.5t-24 35v-273h-84v674h70z" />
    <glyph glyph-name="q" unicode="q" horiz-adv-x="559" 
d="M400 336q-23 38 -56 59.5t-74 21.5q-63 0 -102.5 -43t-39.5 -132q0 -48 11 -81.5t29.5 -54.5t42 -30.5t48.5 -9.5q27 0 52.5 12t45 34.5t31.5 54t12 70.5v99zM414 483h70v-674h-84v273q-9 -18 -24 -35t-35.5 -29.5t-44.5 -20t-50 -7.5q-44 0 -81 17t-63.5 49t-41 78.5
t-14.5 106.5q0 52 13.5 97.5t40.5 80t66 54.5t90 20q27 0 49.5 -7.5t40.5 -19.5t31.5 -26.5t22.5 -28.5z" />
    <glyph glyph-name="r" unicode="r" horiz-adv-x="372" 
d="M159 401q9 16 21.5 32t29 29t37 21.5t46.5 9.5q17 1 29 -1.5t20 -5.5q10 -4 16 -9l-25 -84q-20 20 -55 20q-82 0 -119 -81v-332h-84v483h68z" />
    <glyph glyph-name="s" unicode="s" horiz-adv-x="433" 
d="M197 56q59 0 84 21.5t25 50.5q0 19 -9 32.5t-24 24t-35 18t-43 14.5q-33 10 -60 22t-46.5 29t-30 40.5t-10.5 55.5q0 61 46.5 95t129.5 34q41 0 79.5 -7.5t68.5 -23.5l-19 -63q-27 13 -57 20.5t-65 7.5q-54 0 -78 -18t-24 -45q0 -32 25 -48t68 -30q41 -13 72 -27.5
t51.5 -33t31 -42.5t10.5 -56q0 -62 -44.5 -99.5t-141.5 -37.5q-48 0 -87.5 7.5t-67.5 23.5l19 63q27 -13 61 -20.5t71 -7.5z" />
    <glyph glyph-name="t" unicode="t" horiz-adv-x="354" 
d="M174 135q0 -36 11 -56.5t48 -20.5q22 0 41.5 5t34.5 13l19 -61q-21 -13 -46 -19t-63 -6q-65 0 -96 34.5t-31 109.5v281h-74v68h75l20 138h61v-138h148v-68h-148v-280z" />
    <glyph glyph-name="u" unicode="u" horiz-adv-x="558" 
d="M399 483h84v-483h-68l-16 82q-9 -15 -24 -31.5t-36 -30t-48.5 -22t-61.5 -8.5q-35 0 -63.5 10.5t-49 34t-32 60t-11.5 87.5v301h82v-301q0 -56 24.5 -87t64.5 -31q54 0 91.5 28t63.5 65v326z" />
    <glyph glyph-name="v" unicode="v" horiz-adv-x="469" 
d="M191 0l-175 483h87l84 -236l46 -161h2l46 161l85 236h87l-175 -483h-87z" />
    <glyph glyph-name="w" unicode="w" horiz-adv-x="684" 
d="M464 219q10 -33 17 -65.5t15 -75.5h2q4 45 9 88.5t12 72.5l56 244h83l-115 -483h-83l-78 245q-14 42 -22.5 80.5t-16.5 83.5h-2q-8 -45 -16.5 -83.5t-22.5 -80.5l-78 -245h-83l-115 483h83l56 -244q7 -29 12 -72.5t9 -88.5h2q8 43 15 75.5t17 65.5l82 264h80z" />
    <glyph glyph-name="x" unicode="x" horiz-adv-x="487" 
d="M244 195h-2l-130 -195h-88l174 251l-160 232h88l116 -176h2l117 176h88l-161 -232l175 -251h-88z" />
    <glyph glyph-name="y" unicode="y" horiz-adv-x="555" 
d="M396 92q-9 -15 -24 -31.5t-35.5 -30t-47.5 -22t-61 -8.5q-35 0 -63.5 10.5t-48.5 34t-31.5 60t-11.5 87.5v291h82v-291q0 -56 24 -87t64 -31q54 0 91 28t62 65v316h84v-442q0 -123 -59.5 -182.5t-165.5 -59.5q-46 0 -91 13t-73 31l21 67q29 -17 63.5 -26.5t73.5 -9.5
q35 0 62.5 8t46 27.5t28.5 52t10 80.5v50z" />
    <glyph glyph-name="z" unicode="z" horiz-adv-x="452" 
d="M42 48l255 367h-236v68h338v-48l-255 -367h264v-68h-366v48z" />
    <glyph glyph-name="braceleft" unicode="{" horiz-adv-x="318" 
d="M52 310q46 0 63.5 20t17.5 58q0 16 -2.5 37t-5 43t-5 43.5t-2.5 39.5q0 68 39 100.5t111 32.5h20v-51h-18q-43 0 -60.5 -24t-17.5 -70q0 -34 7 -72.5t7 -74.5q0 -45 -17 -71t-55 -37v-2q38 -11 55 -37t17 -71q0 -36 -7 -74.5t-7 -72.5q0 -46 17.5 -70t60.5 -24h18v-51
h-20q-72 0 -111 32.5t-39 100.5q0 18 2.5 39.5t5 43.5t5 42.5t2.5 37.5q0 38 -17.5 58t-63.5 20v54z" />
    <glyph glyph-name="bar" unicode="|" horiz-adv-x="256" 
d="M166 -200h-76v974h76v-974z" />
    <glyph glyph-name="braceright" unicode="}" horiz-adv-x="318" 
d="M266 256q-46 0 -63.5 -20t-17.5 -58q0 -17 2.5 -37.5t5 -42.5t5 -43.5t2.5 -39.5q0 -68 -39 -100.5t-111 -32.5h-20v51h18q43 0 60.5 24t17.5 70q0 34 -7 72.5t-7 74.5q0 45 17 71t55 37v2q-38 11 -55 37t-17 71q0 36 7 74.5t7 72.5q0 46 -17.5 70t-60.5 24h-18v51h20
q72 0 111 -32.5t39 -100.5q0 -18 -2.5 -39.5t-5 -43.5t-5 -43t-2.5 -37q0 -38 17.5 -58t63.5 -20v-54z" />
    <glyph glyph-name="asciitilde" unicode="~" horiz-adv-x="552" 
d="M512 344q-20 -41 -55 -70.5t-81 -29.5q-37 0 -63 13t-48 28t-42 28t-44 13q-38 0 -59.5 -21t-38.5 -48l-41 44q8 17 21 34.5t30 32t38.5 23.5t47.5 9q37 0 62.5 -12.5t47 -28t41.5 -28t46 -12.5q34 0 57 21t40 47z" />
    <glyph glyph-name="uni0E33.alt1" horiz-adv-x="474" 
d="M-324 622q-21 0 -39 7.5t-31.5 21t-21 32t-7.5 39.5t7.5 39t21 31.5t31.5 21.5t39 8t39 -8t31.5 -21.5t21.5 -31.5t8 -39t-8 -39.5t-21.5 -32t-31.5 -21t-39 -7.5zM-324 679q19 0 31 13t12 31q0 19 -12 31t-31 12q-17 0 -29.5 -12t-12.5 -31q0 -18 12.5 -31t29.5 -13z
M313 0v361q0 135 -119 135q-48 0 -90 -17.5t-71 -41.5l-23 65q15 13 36.5 25.5t47 22t53 15t55.5 5.5q98 0 147.5 -55.5t49.5 -157.5v-357h-86z" />
    <glyph glyph-name="quotedbl" unicode="&#x22;" horiz-adv-x="338" 
d="M122 452h-54l-12 236h78zM270 452h-54l-12 236h78z" />
    <glyph glyph-name="exclam" unicode="!" horiz-adv-x="254" 
d="M171 520l-11 -332h-66l-11 332v154h88v-154zM66 50q0 25 16 42.5t45 17.5t45 -17.5t16 -42.5t-16 -42.5t-45 -17.5t-45 17.5t-16 42.5z" />
    <glyph glyph-name="uni0E4E.alt1" 
d="M-253 649q-13 -8 -26.5 -11.5t-33.5 -3.5t-39 5t-33.5 15.5t-23.5 26.5t-9 39q0 37 25 61.5t80 19.5q-6 7 -9 16t-3 18q0 20 17 34t54 14h60l14 -56h-60q-8 0 -12.5 -5t-4.5 -13q0 -16 25 -28l-16 -42q-30 9 -59 9q-39 0 -39 -28q0 -29 43 -29q12 0 24 1.5t26 6.5v-50z
" />
    <glyph glyph-name="exclamdown" unicode="&#xa1;" horiz-adv-x="254" 
d="M83 -37l11 332h66l11 -332v-154h-88v154zM188 433q0 -25 -16 -42.5t-45 -17.5t-45 17.5t-16 42.5t16 42.5t45 17.5t45 -17.5t16 -42.5z" />
    <glyph glyph-name="cent" unicode="&#xa2;" horiz-adv-x="572" 
d="M308 -8q-53 4 -92.5 25t-65.5 54.5t-39.5 77t-13.5 93.5q0 49 13 92.5t39.5 76.5t66 54t92.5 26v92h56v-91q70 -3 121 -30l-19 -63q-23 11 -48.5 17t-53.5 8v-366q26 2 54 9t52 18l19 -62q-52 -27 -125 -32v-91h-56v92zM180 242q0 -35 8 -65.5t24 -54.5t40 -39.5
t56 -21.5v361q-64 -10 -96 -59.5t-32 -120.5z" />
    <glyph glyph-name="sterling" unicode="&#xa3;" horiz-adv-x="572" 
d="M332 582q-35 0 -58 -10t-36.5 -26.5t-19.5 -36.5t-6 -39q0 -32 10.5 -59t24.5 -53h155v-63h-123q7 -17 11 -34.5t4 -37.5q0 -45 -25.5 -80t-70.5 -57h324v-86h-456v86h33q22 9 41.5 23.5t33.5 32t22 36t8 35.5q0 23 -5.5 43t-13.5 39h-114v63h81q-15 28 -26.5 57.5
t-11.5 65.5q0 41 16.5 74t45 56.5t66.5 36t81 12.5q52 0 86 -10t69 -28l-22 -72q-29 15 -57.5 23.5t-66.5 8.5z" />
    <glyph glyph-name="currency" unicode="&#xa4;" horiz-adv-x="572" 
d="M450 122l-56 58q-26 -17 -51.5 -25.5t-55.5 -8.5q-32 0 -58 8.5t-50 25.5l-56 -58q-9 11 -20 22.5t-20 21.5l55 56q-35 45 -35 106q0 31 9 57t26 52l-56 56l40 41l57 -57q46 36 107 36q30 0 56.5 -9.5t51.5 -26.5l56 56l39 -41l-54 -55q18 -26 26.5 -51.5t8.5 -57.5
q0 -29 -9 -56t-26 -50l55 -56zM414 328q0 27 -10.5 50t-28 40t-41 27t-48.5 10q-26 0 -49 -10t-40 -27t-27 -40t-10 -50q0 -26 10 -48.5t27 -39.5t40 -27t49 -10q25 0 48.5 10t41 27t28 39.5t10.5 48.5z" />
    <glyph glyph-name="yen" unicode="&#xa5;" horiz-adv-x="572" 
d="M88 347h123l-163 303h91l146 -289h2l146 289h91l-163 -303h123v-49h-149l-6 -11v-62h155v-49h-155v-176h-86v176h-155v49h155v62l-6 11h-149v49z" />
    <glyph glyph-name="brokenbar" unicode="&#xa6;" horiz-adv-x="250" 
d="M90 674h70v-351h-70v351zM90 176h70v-351h-70v351z" />
    <glyph glyph-name="section" unicode="&#xa7;" horiz-adv-x="572" 
d="M276 374q-25 8 -41.5 12.5t-33.5 14.5q-8 -6 -14 -14q-5 -7 -9 -17t-4 -24q0 -22 12.5 -38t32 -27t42.5 -19t44 -14q23 -7 39.5 -11.5t34.5 -14.5q7 5 13 13q5 7 9 17t4 24q0 36 -35 58.5t-94 39.5zM244 4q31 0 57.5 5.5t46 16t31 25t11.5 31.5q0 21 -9.5 35.5
t-25.5 25.5t-36.5 19t-42.5 15q-25 7 -57.5 18t-61.5 29.5t-49 45.5t-20 66q0 38 17.5 61.5t46.5 34.5q-23 20 -32.5 47.5t-9.5 55.5q0 66 52 107.5t142 41.5q41 0 79.5 -10t68.5 -25l-19 -63q-26 14 -56.5 23t-65.5 9q-62 0 -90.5 -24t-28.5 -59q0 -18 9.5 -31.5t25 -24
t36 -18.5t42.5 -15q29 -10 62 -22.5t60.5 -30.5t46 -44t18.5 -63t-17.5 -61t-46.5 -34q24 -24 34 -52.5t10 -56.5q0 -33 -16 -59.5t-45 -45.5t-69.5 -29t-90.5 -10q-42 0 -85 9.5t-73 25.5l19 63q27 -13 61 -22.5t71 -9.5z" />
    <glyph glyph-name="dieresis" unicode="&#xa8;" horiz-adv-x="300" 
d="M3 611q0 20 13 35t38 15t38 -15t13 -35t-13 -35t-38 -15t-38 15t-13 35zM195 611q0 20 13 35t38 15t38 -15t13 -35t-13 -35t-38 -15t-38 15t-13 35z" />
    <glyph glyph-name="copyright" unicode="&#xa9;" horiz-adv-x="690" 
d="M40 337q0 65 24.5 122t66 99.5t97 67t117.5 24.5t117.5 -24.5t97 -67t66 -99.5t24.5 -122t-24.5 -122t-66 -99.5t-97 -67t-117.5 -24.5t-117.5 24.5t-97 67t-66 99.5t-24.5 122zM599 337q0 55 -19.5 104t-53.5 85.5t-80.5 57.5t-100.5 21t-100.5 -21t-80.5 -57.5
t-53.5 -85.5t-19.5 -104q0 -56 19.5 -104.5t53.5 -85t80.5 -57.5t100.5 -21t100.5 21t80.5 57.5t53.5 85t19.5 104.5zM358 467q47 0 87 -19l14 45q-43 22 -101 22q-43 0 -74.5 -14t-52.5 -38t-31 -56.5t-10 -70.5t10 -70.5t30.5 -56.5t51.5 -38t73 -14q33 0 58 6t48 17
l-13 45q-42 -20 -87 -20q-30 0 -51 10t-34.5 27.5t-20 41.5t-6.5 52q0 57 26 94t83 37z" />
    <glyph glyph-name="ordfeminine" unicode="&#xaa;" horiz-adv-x="348" 
d="M237 471h-65q-42 0 -64 -18.5t-22 -51.5q0 -24 14.5 -38.5t37.5 -14.5q22 0 40.5 8.5t31.5 22.5t20 32t7 36v24zM237 529q0 38 -20.5 56t-52.5 18q-29 0 -57 -7t-54 -20l-17 51q21 11 55 22t76 11q71 0 105 -36t34 -96v-228h-57l-9 45q-15 -20 -39.5 -36t-73.5 -16
q-47 0 -80 27.5t-33 80.5q0 62 42.5 91t115.5 29h65v8z" />
    <glyph glyph-name="guillemotleft" unicode="&#xab;" horiz-adv-x="457" 
d="M288 242l129 -180h-67l-129 180l129 180h67zM108 242l129 -180h-68l-129 180l129 180h68z" />
    <glyph glyph-name="logicalnot" unicode="&#xac;" horiz-adv-x="501" 
d="M376 120v176h-336v71h411v-247h-75z" />
    <glyph glyph-name="registered" unicode="&#xae;" horiz-adv-x="530" 
d="M40 459q0 47 16.5 88t46 71.5t71 48t91.5 17.5t91.5 -17.5t71 -48t46 -71.5t16.5 -88t-16.5 -88t-46 -71.5t-71 -48t-91.5 -17.5t-91.5 17.5t-71 48t-46 71.5t-16.5 88zM448 459q0 39 -13.5 73t-37.5 59.5t-57.5 40.5t-74.5 15t-74.5 -15t-57.5 -40.5t-37.5 -59.5
t-13.5 -73t13.5 -73t37.5 -59.5t57.5 -40.5t74.5 -15t74.5 15t57.5 40.5t37.5 59.5t13.5 73zM369 507q0 32 -20.5 53.5t-68.5 21.5h-95v-252h42v97h41l58 -97h45l-60 101q26 8 42 29t16 47zM327 507q0 -42 -49 -42h-51v79h52q26 0 37 -9.5t11 -27.5z" />
    <glyph glyph-name="macron" unicode="&#xaf;" horiz-adv-x="300" 
d="M10 573v58h280v-58h-280z" />
    <glyph glyph-name="degree" unicode="&#xb0;" horiz-adv-x="356" 
d="M88 551q0 -18 7 -34.5t19 -29t28.5 -19.5t35.5 -7t36 7t30 19.5t20 29t7 34.5q0 37 -27 62.5t-66 25.5q-19 0 -35.5 -7t-28.5 -19t-19 -28t-7 -34zM40 551q0 27 10.5 51.5t29.5 42.5t44 28.5t54 10.5t54 -10.5t44 -28.5t29.5 -42.5t10.5 -51.5t-10.5 -51.5t-29.5 -42.5
t-44 -28.5t-54 -10.5t-54 10.5t-44 28.5t-29.5 42.5t-10.5 51.5z" />
    <glyph glyph-name="plusminus" unicode="&#xb1;" horiz-adv-x="572" 
d="M320 496v-168h174v-68h-174v-168h-76v168h-174v68h174v168h76zM494 58v-58h-424v58h424z" />
    <glyph glyph-name="twosuperior" unicode="&#xb2;" horiz-adv-x="310" 
d="M142 604q-17 0 -41 -6.5t-45 -17.5l-17 53q21 10 48 18.5t56 8.5q63 0 93 -27t30 -72q0 -23 -11 -45t-28 -43t-36.5 -40.5l-35.5 -35.5l-39 -39h160v-58h-250v44l89 90q38 38 60.5 67.5t22.5 59.5q0 21 -15 32t-41 11z" />
    <glyph glyph-name="threesuperior" unicode="&#xb3;" horiz-adv-x="305" 
d="M135 350q35 0 51.5 16t16.5 39q0 26 -16.5 38.5t-45.5 12.5h-59v54h59q23 0 37.5 12.5t14.5 39.5q0 19 -14.5 31t-51.5 12q-21 0 -42 -6t-41 -16l-18 52q22 11 49 18t55 7q69 0 99 -28.5t30 -69.5q0 -29 -13.5 -47t-36.5 -28q30 -8 45 -30.5t15 -51.5q0 -51 -34 -80.5
t-99 -29.5q-35 0 -62 7.5t-48 18.5l18 52q19 -10 43 -16.5t48 -6.5z" />
    <glyph glyph-name="acute" unicode="&#xb4;" horiz-adv-x="300" 
d="M266 704l46 -63l-168 -99l-26 37z" />
    <glyph glyph-name="mu" unicode="&#xb5;" horiz-adv-x="560" 
d="M75 483h82v-301q0 -56 25 -87t70 -31q50 0 86.5 28t62.5 65v326h84v-483h-68l-16 82q-9 -15 -24 -31.5t-34 -30t-42 -22t-49 -8.5q-37 0 -59.5 9t-35.5 26v-225h-82v683z" />
    <glyph glyph-name="paragraph" unicode="&#xb6;" horiz-adv-x="449" 
d="M40 497q0 42 14.5 75t39 55.5t56.5 34.5t68 12h201v-51h-39q-40 0 -53 -16t-13 -49v-606h-76v372h-25q-32 0 -63 11t-55.5 32.5t-39.5 54t-15 75.5z" />
    <glyph glyph-name="periodcentered" unicode="&#xb7;" horiz-adv-x="242" 
d="M60 275q0 25 16 42.5t45 17.5t45 -17.5t16 -42.5t-16 -42.5t-45 -17.5t-45 17.5t-16 42.5z" />
    <glyph glyph-name="cedilla" unicode="&#xb8;" horiz-adv-x="300" 
d="M141 -167h-91l83 129h55z" />
    <glyph glyph-name="onesuperior" unicode="&#xb9;" horiz-adv-x="289" 
d="M117 593l-72 -23v54l87 31h51v-298h80v-57h-229v57h83v236z" />
    <glyph glyph-name="ordmasculine" unicode="&#xba;" horiz-adv-x="398" 
d="M102 477q0 -54 23 -91t74 -37t74.5 37t23.5 91t-23.5 90t-74.5 36t-74 -36t-23 -90zM30 477q0 38 10 71.5t31 58t52.5 39t75.5 14.5q43 0 75 -14.5t53 -39t31 -58t10 -71.5q0 -39 -10 -72.5t-31 -58t-53 -39t-75 -14.5q-44 0 -75.5 14.5t-52.5 39t-31 58t-10 72.5z" />
    <glyph glyph-name="guillemotright" unicode="&#xbb;" horiz-adv-x="457" 
d="M220 422h68l129 -180l-129 -180h-68l129 180zM40 422h67l129 -180l-129 -180h-67l129 180z" />
    <glyph glyph-name="onequarter" unicode="&#xbc;" horiz-adv-x="776" 
d="M585 123v127l-93 -127h93zM594 355h53v-232h40v-58h-40v-65h-63v65h-164v46zM536 660h70l-366 -660h-70zM137 593l-72 -23v54l87 31h51v-298h80v-57h-229v57h83v236z" />
    <glyph glyph-name="onehalf" unicode="&#xbd;" horiz-adv-x="776" 
d="M536 660h70l-366 -660h-70zM137 593l-72 -23v54l87 31h51v-298h80v-57h-229v57h83v236zM588 304q-17 0 -41 -6.5t-45 -17.5l-17 53q21 10 48 18.5t56 8.5q63 0 93 -27t30 -72q0 -23 -11 -45t-28 -43t-36.5 -40.5l-35.5 -35.5l-39 -39h160v-58h-250v44l89 90
q38 38 60.5 67.5t22.5 59.5q0 21 -15 32t-41 11z" />
    <glyph glyph-name="threequarters" unicode="&#xbe;" horiz-adv-x="776" 
d="M536 660h70l-366 -660h-70zM155 350q35 0 51.5 16t16.5 39q0 26 -16.5 38.5t-45.5 12.5h-59v54h59q23 0 37.5 12.5t14.5 39.5q0 19 -14.5 31t-51.5 12q-21 0 -42 -6t-41 -16l-18 52q22 11 49 18t55 7q69 0 99 -28.5t30 -69.5q0 -29 -13.5 -47t-36.5 -28q30 -8 45 -30.5
t15 -51.5q0 -51 -34 -80.5t-99 -29.5q-35 0 -62 7.5t-48 18.5l18 52q19 -10 43 -16.5t48 -6.5zM585 123v127l-93 -127h93zM594 355h53v-232h40v-58h-40v-65h-63v65h-164v46z" />
    <glyph glyph-name="questiondown" unicode="&#xbf;" horiz-adv-x="494" 
d="M268 -123q42 0 83 10.5t73 25.5l22 -72q-32 -16 -78.5 -29t-100.5 -13q-106 0 -156.5 45.5t-50.5 120.5q0 39 13 69.5t33 55.5t42.5 46.5t42.5 42t33 42t13 47.5q0 32 -9 55h69q7 -11 10.5 -26.5t3.5 -31.5q0 -33 -12 -58t-30.5 -47t-40 -42t-40 -41.5t-30.5 -46.5
t-12 -57q0 -19 7 -36.5t22 -30.5t38 -21t55 -8zM324 433q0 -25 -16 -42.5t-45 -17.5t-45 17.5t-16 42.5t16 42.5t45 17.5t45 -17.5t16 -42.5z" />
    <glyph glyph-name="Aring" unicode="&#xc5;" horiz-adv-x="626" 
d="M451 181h-277l-65 -181h-89l249 674h88l249 -674h-89zM203 259h220l-68 185l-41 132h-2l-41 -132zM266 831q0 -23 13.5 -36.5t33.5 -13.5t34 13.5t14 36.5t-14 36.5t-34 13.5t-33.5 -13.5t-13.5 -36.5zM217 830q0 40 28 68t68 28t68 -28t28 -68t-28 -67.5t-68 -27.5
t-68 27.5t-28 67.5z" />
    <glyph glyph-name="AE" unicode="&#xc6;" horiz-adv-x="815" 
d="M463 181h-277l-78 -181h-88l297 674h444v-79h-333l62 -207h251v-79h-228l68 -230h186v-79h-251zM221 259h220l-55 185l-31 132h-2l-51 -132z" />
    <glyph glyph-name="Ntilde" unicode="&#xd1;" horiz-adv-x="666" 
d="M440 239q20 -32 37.5 -65.5t28.5 -56.5h2q-5 35 -6.5 70.5t-1.5 77.5v409h86v-674h-92l-268 435q-20 32 -37.5 65.5t-28.5 56.5h-2q5 -35 6.5 -70.5t1.5 -77.5v-409h-86v674h92zM485 858q0 -54 -22.5 -80t-64.5 -26q-22 0 -39 7.5t-31 17t-26.5 17t-26.5 7.5
q-20 0 -27 -14.5t-7 -31.5h-60q0 106 89 106q21 0 38 -7.5t31.5 -17t27 -17t24.5 -7.5q20 0 26.5 13t6.5 33h61z" />
    <glyph glyph-name="multiply" unicode="&#xd7;" horiz-adv-x="572" 
d="M432 85l-146 146l-146 -146l-53 53l146 146l-146 146l53 53l146 -146l146 146l53 -53l-146 -146l146 -146z" />
    <glyph glyph-name="Oslash" unicode="&#xd8;" horiz-adv-x="692" 
d="M550 613q51 -48 74.5 -118.5t23.5 -157.5q0 -74 -17.5 -137.5t-54.5 -110t-94 -73t-136 -26.5q-92 0 -157 37l-41 -67h-67l62 100q-51 48 -75 118.5t-24 158.5q0 74 17.5 137.5t54.5 110t94 73t136 26.5q48 0 86.5 -10t70.5 -28l42 68h67zM130 337q0 -68 13.5 -120
t42.5 -87l277 451q-48 31 -117 31q-109 0 -162.5 -71.5t-53.5 -203.5zM346 62q109 0 162.5 71.5t53.5 203.5q0 134 -56 205l-277 -450q46 -30 117 -30z" />
    <glyph glyph-name="Thorn" unicode="&#xde;" horiz-adv-x="570" 
d="M524 341q0 -45 -16 -83.5t-45.5 -67t-72 -44.5t-95.5 -16h-129v-130h-86v674h86v-127h135q53 0 94.5 -15.5t70 -43.5t43.5 -65.5t15 -81.5zM438 341q0 60 -35 93t-102 33h-135v-257h129q67 0 105 34t38 97z" />
    <glyph glyph-name="germandbls" unicode="&#xdf;" horiz-adv-x="599" 
d="M349 56q54 0 87 34t33 108q0 70 -47 110t-138 40h-21v69h69q46 0 76.5 21t30.5 64q0 30 -10.5 50.5t-27 33t-37.5 18.5t-41 6q-84 0 -124.5 -49.5t-40.5 -133.5v-427h-84v427q0 55 16 102t47 81.5t77 54t107 19.5q42 0 78.5 -12t63.5 -34t42.5 -54t15.5 -72
q0 -28 -10.5 -50t-27 -38t-37 -26.5t-39.5 -14.5q28 -5 54.5 -19t46.5 -37.5t32.5 -57t12.5 -78.5q0 -53 -15.5 -90.5t-42.5 -62.5t-63.5 -36.5t-78.5 -11.5q-90 0 -145 31l19 63q27 -13 57 -20.5t65 -7.5z" />
    <glyph glyph-name="ae" unicode="&#xe6;" horiz-adv-x="794" 
d="M431 204q8 -71 44 -108.5t109 -37.5q31 0 61 6t59 20l19 -62q-32 -17 -66 -24.5t-81 -7.5q-79 0 -120 31t-63 87q-12 -23 -30 -44t-43 -37.5t-57.5 -26.5t-73.5 -10q-31 0 -58 9.5t-47.5 28t-32 45.5t-11.5 63q0 83 56.5 123.5t155.5 40.5h100v16q0 57 -30.5 83t-80.5 26
q-43 0 -80.5 -9t-69.5 -24l-19 59q27 16 72 29t100 13q60 0 96.5 -19.5t58.5 -54.5q24 35 65.5 54.5t97.5 19.5q94 0 140 -55.5t46 -148.5q0 -26 -2.5 -46t-7.5 -39h-307zM352 238h-101q-63 0 -96 -27t-33 -75q0 -37 23 -58.5t59 -21.5q33 0 60 11.5t46.5 31.5t30.5 45.5
t11 54.5v39zM562 429q-36 0 -60 -12.5t-39 -34t-22.5 -51.5t-9.5 -65h241v23q0 66 -23.5 103t-86.5 37z" />
    <glyph glyph-name="icircumflex" unicode="&#xee;" horiz-adv-x="240" 
d="M162 0h-84v483h84v-483zM266 545h-83l-62 85l-62 -85h-83l116 141h58z" />
    <glyph glyph-name="eth" unicode="&#xf0;" horiz-adv-x="549" 
d="M175 514l-19 43l98 46q-50 33 -106 52l29 54q78 -26 142 -75l116 55l22 -43l-98 -46q66 -63 106 -151t40 -197q0 -54 -16 -102t-46.5 -83.5t-74 -56t-98.5 -20.5q-53 0 -95.5 19.5t-72.5 53t-46 78.5t-16 95q0 52 17 98.5t46.5 81.5t70.5 56t89 21q86 0 134 -51h3
q-11 32 -38 65.5t-65 63.5zM423 242q0 36 -9 69.5t-27.5 59.5t-47 41.5t-67.5 15.5q-37 0 -65 -15.5t-47 -41.5t-28.5 -60.5t-9.5 -72.5q0 -36 10 -68.5t29.5 -57t46.5 -39t62 -14.5q37 0 65.5 17t48 44t29.5 59.5t10 62.5z" />
    <glyph glyph-name="divide" unicode="&#xf7;" horiz-adv-x="572" 
d="M493 318v-68h-414v68h414zM221 133q0 25 16 42.5t45 17.5t45 -17.5t16 -42.5t-16 -42.5t-45 -17.5t-45 17.5t-16 42.5zM221 433q0 25 16 42.5t45 17.5t45 -17.5t16 -42.5t-16 -42.5t-45 -17.5t-45 17.5t-16 42.5z" />
    <glyph glyph-name="oslash" unicode="&#xf8;" horiz-adv-x="540" 
d="M408 453q46 -34 68 -89t22 -122q0 -53 -13.5 -99t-41.5 -80t-71 -53.5t-102 -19.5t-104 20l-27 -50h-57l42 76q-42 35 -62 88t-20 118q0 53 13.5 99t41.5 79.5t71 53t102 19.5q52 0 94 -17l37 67h57zM415 242q0 45 -10.5 81t-33.5 61l-170 -310q30 -16 69 -16
q38 0 65.5 14t45 38.5t26 58.5t8.5 73zM125 242q0 -42 9 -76t28 -59l168 306q-26 12 -60 12q-38 0 -65.5 -14t-45 -38.5t-26 -58t-8.5 -72.5z" />
    <glyph glyph-name="thorn" unicode="&#xfe;" horiz-adv-x="560" 
d="M160 237q0 -39 12 -70.5t31.5 -54t45 -34.5t52.5 -12q26 0 50 9.5t42 31.5t28.5 57t10.5 86q0 83 -33.5 125t-89.5 42q-44 0 -83.5 -22.5t-65.5 -56.5v-101zM160 674v-263q9 13 25 27.5t37 26.5t47 20t56 8q49 0 85 -21t59 -55.5t34 -78t11 -88.5q0 -126 -55 -193
t-145 -67q-26 0 -50 7.5t-44.5 20t-35.5 29.5t-24 35v-273h-84v865h84z" />
    <glyph glyph-name="dotlessi" unicode="&#x131;" horiz-adv-x="240" 
d="M162 0h-84v483h84v-483z" />
    <glyph glyph-name="Lslash" unicode="&#x141;" horiz-adv-x="514" 
d="M21 334l59 25v315h86v-277l146 64v-80l-146 -64v-237h318v-80h-404v279l-59 -25v80z" />
    <glyph glyph-name="lslash" unicode="&#x142;" horiz-adv-x="240" 
d="M162 394l53 23v-80l-53 -23v-314h-84v277l-53 -23v80l53 23v317h84v-280z" />
    <glyph glyph-name="OE" unicode="&#x152;" horiz-adv-x="975" 
d="M509 68q-23 -30 -63 -54t-106 -24q-77 0 -132.5 26.5t-92 73t-54 110t-17.5 137.5t17.5 137.5t53.5 110t91 73t130 26.5q34 0 61.5 -6.5t48.5 -17.5t36.5 -25t26.5 -29v68h412v-79h-326v-207h306v-79h-306v-230h332v-79h-418v68zM346 62q61 0 100.5 22.5t62.5 67.5v361
q-23 45 -62.5 72t-100.5 27q-109 0 -162.5 -71.5t-53.5 -203.5t53.5 -203.5t162.5 -71.5z" />
    <glyph glyph-name="oe" unicode="&#x153;" horiz-adv-x="842" 
d="M465 204q8 -71 47 -108.5t112 -37.5q31 0 65 6t63 20l19 -62q-63 -32 -155 -32q-65 0 -111.5 21t-75.5 60q-13 -18 -27.5 -33t-33.5 -25.5t-43 -16.5t-55 -6q-59 0 -102 19.5t-71 53.5t-41.5 80t-13.5 99t13.5 99t41.5 79.5t71 53t102 19.5q62 0 100 -23.5t58 -55.5
q26 37 68.5 58t105.5 21q99 0 146.5 -55.5t47.5 -148.5q0 -26 -2.5 -46t-7.5 -39h-321zM125 242q0 -39 8.5 -73t26 -58.5t45 -38.5t65.5 -14q94 0 128 76q-8 23 -12 51t-4 57q0 28 3 54.5t10 49.5q-17 36 -47 57.5t-78 21.5q-38 0 -65.5 -14t-45 -38.5t-26 -58t-8.5 -72.5z
M602 429q-36 0 -61 -12.5t-41.5 -34t-25.5 -51.5t-11 -65h255v23q0 66 -26.5 103t-89.5 37z" />
    <glyph glyph-name="Scaron" unicode="&#x160;" horiz-adv-x="530" 
d="M233 -10q-64 0 -107 10.5t-76 27.5l22 71q28 -14 69 -23t92 -9q36 0 66 6.5t51.5 20t34 35t12.5 51.5t-13 50t-34.5 34.5t-50.5 25t-60 20.5q-30 10 -63.5 23.5t-61.5 35t-46 54t-18 80.5q0 39 13 72t41 57.5t71.5 38t103.5 13.5q50 0 90 -9.5t75 -26.5l-22 -71
q-29 14 -65.5 22t-77.5 8q-78 0 -112 -28.5t-34 -73.5q0 -28 12 -47t32.5 -33t47.5 -24t57 -20q34 -12 69.5 -27t64 -38t46.5 -56.5t18 -81.5t-18 -83.5t-50.5 -59t-78 -34.5t-100.5 -11zM294 739h-58l-116 141h83l62 -85l62 85h83z" />
    <glyph glyph-name="scaron" unicode="&#x161;" horiz-adv-x="433" 
d="M197 56q59 0 84 21.5t25 50.5q0 19 -9 32.5t-24 24t-35 18t-43 14.5q-33 10 -60 22t-46.5 29t-30 40.5t-10.5 55.5q0 61 46.5 95t129.5 34q41 0 79.5 -7.5t68.5 -23.5l-19 -63q-27 13 -57 20.5t-65 7.5q-54 0 -78 -18t-24 -45q0 -32 25 -48t68 -30q41 -13 72 -27.5
t51.5 -33t31 -42.5t10.5 -56q0 -62 -44.5 -99.5t-141.5 -37.5q-48 0 -87.5 7.5t-67.5 23.5l19 63q27 -13 61 -20.5t71 -7.5zM245 543h-58l-116 141h83l62 -85l62 85h83z" />
    <glyph glyph-name="Zcaron" unicode="&#x17d;" horiz-adv-x="548" 
d="M40 60l344 535h-320v79h432v-60l-344 -535h350v-79h-462v60zM313 739h-58l-116 141h83l62 -85l62 85h83z" />
    <glyph glyph-name="zcaron" unicode="&#x17e;" horiz-adv-x="452" 
d="M42 48l255 367h-236v68h338v-48l-255 -367h264v-68h-366v48zM255 543h-58l-116 141h83l62 -85l62 85h83z" />
    <glyph glyph-name="florin" unicode="&#x192;" horiz-adv-x="572" 
d="M246 397l10 74q6 42 17.5 77t31 59.5t49 38.5t72.5 14q23 0 40.5 -5t31.5 -13l-30 -66q-23 10 -50 10q-38 0 -54 -30t-24 -84l-11 -75h118v-49h-124l-32 -237q-6 -42 -17.5 -77t-31 -59.5t-49 -38.5t-72.5 -14q-23 0 -40.5 5t-30.5 13l29 66q23 -10 50 -10q38 0 54 30
t24 84l32 238h-92v49h99z" />
    <glyph glyph-name="circumflex" unicode="&#x2c6;" horiz-adv-x="300" 
d="M295 545h-83l-62 85l-62 -85h-83l116 141h58z" />
    <glyph glyph-name="caron" unicode="&#x2c7;" horiz-adv-x="300" 
d="M179 543h-58l-116 141h83l62 -85l62 85h83z" />
    <glyph glyph-name="breve" unicode="&#x2d8;" horiz-adv-x="300" 
d="M295 698q-3 -28 -13 -52.5t-28 -42.5t-44 -28.5t-59 -10.5q-34 0 -60 10.5t-44 28.5t-28.5 42.5t-13.5 52.5h62q5 -32 27 -52t58 -20q35 0 57 20t27 52h59z" />
    <glyph glyph-name="dotaccent" unicode="&#x2d9;" horiz-adv-x="300" 
d="M94 614q0 23 14.5 39t41.5 16t41.5 -16t14.5 -39t-14.5 -39t-41.5 -16t-41.5 16t-14.5 39z" />
    <glyph glyph-name="ring" unicode="&#x2da;" horiz-adv-x="300" 
d="M103 635q0 -23 13.5 -36.5t33.5 -13.5t34 13.5t14 36.5t-14 36.5t-34 13.5t-33.5 -13.5t-13.5 -36.5zM54 634q0 40 28 68t68 28t68 -28t28 -68t-28 -67.5t-68 -27.5t-68 27.5t-28 67.5z" />
    <glyph glyph-name="ogonek" unicode="&#x2db;" horiz-adv-x="300" 
d="M120 2h55l83 -129h-91z" />
    <glyph glyph-name="tilde" unicode="&#x2dc;" horiz-adv-x="300" 
d="M302 662q0 -54 -22.5 -80t-64.5 -26q-22 0 -39 7.5t-31 17t-26.5 17t-26.5 7.5q-20 0 -27 -14.5t-7 -31.5h-60q0 106 89 106q21 0 38 -7.5t31.5 -17t27 -17t24.5 -7.5q20 0 26.5 13t6.5 33h61z" />
    <glyph glyph-name="hungarumlaut" unicode="&#x2dd;" horiz-adv-x="300" 
d="M282 691h93l-115 -140h-65zM121 691h93l-116 -140h-64z" />
    <glyph glyph-name="uni0E00" unicode="&#xe00;" horiz-adv-x="195" 
 />
    <glyph glyph-name="uni0E01" unicode="&#xe01;" horiz-adv-x="604" 
d="M443 0v353q0 72 -37 107.5t-106 35.5q-57 0 -101 -24.5t-60 -64.5l76 -70q-27 -14 -40 -34.5t-13 -52.5v-250h-86v238q0 29 14 55t40 39l-82 70q8 32 30.5 62.5t55.5 54t75.5 37.5t90.5 14q57 0 100 -16t71.5 -45t43 -68.5t14.5 -87.5v-353h-86z" />
    <glyph glyph-name="uni0E02" unicode="&#xe02;" horiz-adv-x="556" 
d="M395 560h86v-367q0 -98 -48.5 -150.5t-158.5 -52.5q-55 0 -94.5 14.5t-65 40.5t-37.5 60.5t-12 75.5v77q0 29 15.5 54t34.5 47t34.5 41.5t15.5 37.5v24q0 11 -5.5 17.5t-19.5 6.5h-69v74h79q54 0 75.5 -24.5t21.5 -66.5v-30q0 -27 -15.5 -51t-33.5 -45.5t-33.5 -42.5
t-15.5 -42v-77q0 -54 28.5 -86t96.5 -32q62 0 91.5 27.5t29.5 101.5v368z" />
    <glyph glyph-name="uni0E03" unicode="&#xe03;" horiz-adv-x="560" 
d="M69 258q0 29 16.5 53t36.5 46.5t36.5 44t16.5 46.5v19q0 11 -5.5 18t-19.5 7q-26 0 -37 -33l-79 35v76l70 -36q10 15 29 23.5t39 8.5q44 0 64.5 -26.5t20.5 -71.5v-20q0 -33 -16.5 -58.5t-36 -47.5t-35.5 -42t-16 -42v-77q0 -54 28.5 -86t96.5 -32q62 0 91.5 27.5
t29.5 101.5v368h86v-367q0 -98 -48.5 -150.5t-158.5 -52.5q-55 0 -94.5 14.5t-65 40.5t-37.5 60.5t-12 75.5v77z" />
    <glyph glyph-name="uni0E04" unicode="&#xe04;" horiz-adv-x="620" 
d="M310 570q57 0 100.5 -16.5t73.5 -45.5t45.5 -68t15.5 -85v-355h-86v356q0 63 -37 101.5t-112 38.5t-112 -38.5t-37 -101.5v-122q13 29 41 49t70 20h71v-75h-71q-40 0 -69 -22.5t-42 -67.5v-138h-86v355q0 46 15.5 85t45.5 68t73.5 45.5t100.5 16.5z" />
    <glyph glyph-name="uni0E05" unicode="&#xe05;" horiz-adv-x="630" 
d="M162 234q13 29 42 49t71 20h71v-75h-71q-40 0 -70 -22.5t-43 -67.5v-138h-86v386q0 74 35.5 122t102.5 62l101 -67l101 67q67 -14 102.5 -62t35.5 -122v-386h-86v392q0 38 -15 62t-42 35l-96 -55l-96 55q-27 -11 -42 -35t-15 -62v-158z" />
    <glyph glyph-name="uni0E06" unicode="&#xe06;" horiz-adv-x="606" 
d="M163 178q10 -23 27.5 -43.5t39.5 -36.5t46.5 -25t49.5 -9q63 0 91 37.5t28 108.5v350h86v-351q0 -101 -48 -160t-147 -59q-60 0 -102 25t-71 67l-5 -82h-81v248q0 29 15 54t33 48.5t33 47t15 50.5v19q0 11 -5.5 18t-19.5 7q-26 0 -37 -33l-79 35v76l70 -36q10 15 29 23.5
t39 8.5q44 0 64.5 -26.5t20.5 -71.5v-20q0 -35 -14.5 -62.5t-31.5 -50.5t-31.5 -44t-14.5 -43v-70z" />
    <glyph glyph-name="uni0E07" unicode="&#xe07;" horiz-adv-x="563" 
d="M183 0l-169 560h88l148 -486h12q33 0 62.5 14.5t52.5 42t36.5 68.5t13.5 94q0 55 -9.5 94t-26 63t-39 35t-47.5 11q-17 0 -33 -2.5t-28 -7.5l-13 69q16 8 38.5 11.5t39.5 3.5q45 0 82.5 -18.5t64.5 -54t42 -87t15 -117.5q0 -68 -19.5 -122t-53.5 -92t-80 -58.5
t-100 -20.5h-77z" />
    <glyph glyph-name="uni0E0A" unicode="&#xe0a;" horiz-adv-x="556" 
d="M481 193q0 -98 -48.5 -150.5t-158.5 -52.5q-55 0 -94.5 14.5t-65 40.5t-37.5 60.5t-12 75.5v77q0 29 15.5 54t34.5 47t34.5 41.5t15.5 37.5v24q0 11 -5.5 17.5t-19.5 6.5h-69v74h79q54 0 75.5 -24.5t21.5 -66.5v-30q0 -27 -15.5 -51t-33.5 -45.5t-33.5 -42.5t-15.5 -42
v-77q0 -54 28.5 -86t96.5 -32q62 0 91.5 27.5t29.5 101.5v101q0 42 -17.5 60t-46.5 18h-19l-12 36l106 153h94l-113 -147q40 -8 67 -39.5t27 -79.5v-101z" />
    <glyph glyph-name="uni0E0B" unicode="&#xe0b;" horiz-adv-x="560" 
d="M153 181q0 -54 28.5 -86t96.5 -32q62 0 91.5 27.5t29.5 101.5v101q0 42 -17.5 60t-46.5 18h-19l-12 36l106 153h94l-113 -147q40 -8 67 -39.5t27 -79.5v-101q0 -98 -48.5 -150.5t-158.5 -52.5q-55 0 -94.5 14.5t-65 40.5t-37.5 60.5t-12 75.5v77q0 29 16.5 53t36.5 46.5
t36.5 44t16.5 46.5v19q0 11 -5.5 18t-19.5 7q-26 0 -37 -33l-79 35v76l70 -36q10 15 29 23.5t39 8.5q44 0 64.5 -26.5t20.5 -71.5v-20q0 -33 -16.5 -58.5t-36 -47.5t-35.5 -42t-16 -42v-77z" />
    <glyph glyph-name="uni0E0D" unicode="&#xe0d;" horiz-adv-x="922" 
d="M847 61q0 -59 -16.5 -101.5t-46 -69.5t-71 -40t-91.5 -13q-58 0 -104.5 13t-74.5 31l21 67q29 -17 67.5 -26.5t77.5 -9.5q35 0 63 5.5t48 21.5t30.5 45.5t10.5 77.5v30q-8 -15 -21.5 -31.5t-33.5 -30t-47 -22t-61 -8.5q-35 0 -66.5 10.5t-56.5 34t-39.5 60t-14.5 87.5
v161q0 72 -34.5 107.5t-97.5 35.5q-51 0 -92.5 -24.5t-57.5 -64.5l76 -70q-27 -14 -40 -34.5t-13 -52.5v-152q0 -12 4.5 -19t18.5 -7h54v-72h-77q-41 0 -63.5 25.5t-22.5 64.5v148q0 29 14 55t40 39l-82 70q8 32 29.5 62.5t53 54t72 37.5t86.5 14q55 0 96 -16t68 -45
t40.5 -68.5t13.5 -87.5v-161q0 -56 27 -87t79 -31q54 0 90.5 28.5t57.5 64.5v393h86v-499z" />
    <glyph glyph-name="uni0E0E" unicode="&#xe0e;" horiz-adv-x="614" 
d="M453 353q0 72 -37 107.5t-106 35.5q-57 0 -101 -24.5t-60 -64.5l86 -77q-27 -14 -40 -34.5t-13 -52.5v-153q0 -39 -22.5 -65t-63.5 -25h-66v72h43q14 0 18.5 7t4.5 19v133q0 29 14 55t40 39l-92 77q8 32 30.5 62.5t55.5 54t75.5 37.5t90.5 14q57 0 100 -16t71.5 -45
t43 -68.5t14.5 -87.5v-553h-107q-25 23 -57 39t-73 16q-50 0 -83.5 -14.5t-66.5 -40.5l-23 66q29 26 70 44t92 18q48 0 92 -21t70 -48v494z" />
    <glyph glyph-name="uni0E0F" unicode="&#xe0f;" horiz-adv-x="614" 
d="M539 -200h-82l-119 71q-16 -35 -51 -56t-74 -21q-36 0 -69.5 8.5t-54.5 22.5l22 73q21 -14 48 -25t49 -11q42 0 73.5 28.5t39.5 70.5l132 -79v471q0 72 -37 107.5t-106 35.5q-57 0 -101 -24.5t-60 -64.5l86 -77q-27 -14 -40 -34.5t-13 -52.5v-153q0 -39 -22.5 -65
t-63.5 -25h-66v72h43q14 0 18.5 7t4.5 19v133q0 29 14 55t40 39l-92 77q8 32 30.5 62.5t55.5 54t75.5 37.5t90.5 14q57 0 100 -16t71.5 -45t43 -68.5t14.5 -87.5v-553z" />
    <glyph glyph-name="uni0E10" unicode="&#xe10;" horiz-adv-x="542" 
d="M174 0l-54 225q-3 13 -9 17.5t-17 4.5h-38v74h45q42 0 65 -16t34 -63l39 -168h13q30 0 57.5 15t49 43.5t34.5 70.5t13 96q0 103 -44.5 150t-127.5 47q-57 0 -107 -20.5t-86 -51.5l-27 67q42 35 99 57t120 22q74 0 129 -29l50 58h98l-87 -104q69 -74 69 -197
q0 -66 -18 -120.5t-51 -94t-78.5 -61.5t-100.5 -22h-70zM331 -200q-35 0 -59.5 14.5t-38.5 33.5q-13 -20 -41 -34t-63 -14h-66v76h71q32 0 55.5 13.5t43.5 35.5q20 -22 40 -35.5t54 -13.5h53v58h82v-134h-131z" />
    <glyph glyph-name="uni0E11" unicode="&#xe11;" horiz-adv-x="609" 
d="M163 0h-86v218q0 36 9 67.5t23.5 58.5t31.5 49.5t32 40.5v33q0 11 -5.5 18t-19.5 7q-26 0 -37 -33l-69 35v76l60 -36q10 15 29 23.5t39 8.5q34 0 53 -21.5t20 -50.5q20 30 55.5 53t86.5 23q65 0 106.5 -47t41.5 -139v-384h-86v384q0 60 -19 86t-59 26q-36 0 -73 -27.5
t-66.5 -69t-48 -90t-18.5 -91.5v-218z" />
    <glyph glyph-name="uni0E13" unicode="&#xe13;" horiz-adv-x="922" 
d="M764 0l-5 82q-29 -42 -67.5 -67t-98.5 -25q-85 0 -128.5 51t-43.5 138v174q0 72 -34.5 107.5t-97.5 35.5q-51 0 -92.5 -24.5t-57.5 -64.5l76 -70q-27 -14 -40 -34.5t-13 -52.5v-152q0 -12 4.5 -19t18.5 -7h54v-72h-77q-41 0 -63.5 25.5t-22.5 64.5v148q0 29 14 55t40 39
l-82 70q8 32 29.5 62.5t53 54t72 37.5t86.5 14q55 0 96 -16t68 -45t40.5 -68.5t13.5 -87.5v-173q0 -54 23 -85t67 -31q27 0 51.5 9t45.5 25t37.5 36.5t27.5 43.5v382h86v-560h-81z" />
    <glyph glyph-name="uni0E16" unicode="&#xe16;" horiz-adv-x="606" 
d="M162 98q0 -12 4.5 -19t18.5 -7h54v-72h-77q-41 0 -63.5 25.5t-22.5 64.5v148q0 29 14 55t40 39l-82 70q8 32 30.5 62.5t56 54t76 37.5t90.5 14q57 0 100 -16t72 -45t43.5 -68.5t14.5 -87.5v-353h-86v353q0 72 -37.5 107.5t-106.5 35.5q-57 0 -101.5 -24.5t-60.5 -64.5
l76 -70q-27 -14 -40 -34.5t-13 -52.5v-152z" />
    <glyph glyph-name="uni0E17" unicode="&#xe17;" horiz-adv-x="614" 
d="M453 359q0 72 -27 104.5t-71 32.5q-32 0 -60.5 -9.5t-53.5 -25t-45 -36.5t-33 -43v-382h-86v560h81l5 -82q15 17 35.5 33.5t45.5 29.5t54 21t61 8q44 0 77.5 -15t56.5 -43t34.5 -66.5t11.5 -86.5v-359h-86v359z" />
    <glyph glyph-name="uni0E18" unicode="&#xe18;" horiz-adv-x="556" 
d="M506 156q0 -49 -13 -81t-40.5 -50.5t-71 -26t-103.5 -7.5q-61 0 -104 9t-70.5 29t-40.5 53.5t-13 82.5v63h83v-63q0 -31 8 -51t25 -31.5t45 -16t67 -4.5q40 0 68 3.5t45 14t24.5 28.5t7.5 48v49q0 27 -14 40t-40 17l-195 27q-57 8 -92.5 39.5t-35.5 93.5q0 66 60 107
t169 41q120 0 205 -44l-17 -69q-38 20 -86 31t-100 11q-75 0 -111.5 -22t-36.5 -55q0 -28 15.5 -40.5t38.5 -16.5l195 -28q61 -9 94.5 -40.5t33.5 -92.5v-48z" />
    <glyph glyph-name="uni0E19" unicode="&#xe19;" horiz-adv-x="606" 
d="M161 200q0 -71 28 -103.5t91 -32.5q25 0 49.5 9t46.5 25t39 36.5t28 43.5v382h86v-560h-81l-5 82q-29 -42 -72 -67t-111 -25q-92 0 -138.5 53.5t-46.5 155.5v361h86v-360z" />
    <glyph glyph-name="uni0E1A" unicode="&#xe1a;" horiz-adv-x="604" 
d="M302 64q72 0 106.5 38t34.5 104v354h86v-354q0 -104 -58 -160t-169 -56t-169 56t-58 160v354h86v-354q0 -66 34.5 -104t106.5 -38z" />
    <glyph glyph-name="uni0E1B" unicode="&#xe1b;" horiz-adv-x="604" 
d="M302 64q72 0 106.5 38t34.5 104v544h86v-544q0 -104 -58 -160t-169 -56t-169 56t-58 160v354h86v-354q0 -66 34.5 -104t106.5 -38z" />
    <glyph glyph-name="uni0E1C" unicode="&#xe1c;" horiz-adv-x="660" 
d="M463 216q14 -28 23.5 -56t19.5 -63h2q-6 40 -7.5 79t-1.5 85v299h84v-560h-92l-127 253q-12 23 -20.5 47t-10.5 35h-2q-2 -11 -10.5 -35t-20.5 -47l-131 -253h-92v470q0 39 22.5 65t63.5 25h66v-74h-43q-25 0 -25 -26v-199q0 -46 -2 -85t-7 -79h2q8 29 18.5 60.5
t25.5 59.5l100 186h68z" />
    <glyph glyph-name="uni0E1D" unicode="&#xe1d;" horiz-adv-x="660" 
d="M463 216q14 -28 23.5 -56t19.5 -63h2q-6 40 -7.5 79t-1.5 85v489h84v-750h-92l-127 253q-12 23 -20.5 47t-10.5 35h-2q-2 -11 -10.5 -35t-20.5 -47l-131 -253h-92v470q0 39 22.5 65t63.5 25h66v-74h-43q-25 0 -25 -26v-199q0 -46 -2 -85t-7 -79h2q8 29 18.5 60.5
t25.5 59.5l100 186h68z" />
    <glyph glyph-name="uni0E1E" unicode="&#xe1e;" horiz-adv-x="710" 
d="M354 446q-6 -50 -14.5 -87t-19.5 -72l-96 -287h-95l-93 560h87l51 -318q3 -21 5.5 -37.5t4 -33t3 -35.5t2.5 -46h3q8 50 16 88t19 76l91 278h74l91 -278q11 -38 19 -76t16 -88h3q1 27 2.5 46t3 35.5t4 33t5.5 37.5l51 318h87l-93 -560h-95l-96 287q-11 35 -19.5 72
t-14.5 87h-2z" />
    <glyph glyph-name="uni0E1F" unicode="&#xe1f;" horiz-adv-x="710" 
d="M354 446q-6 -50 -14.5 -87t-19.5 -72l-96 -287h-95l-93 560h87l51 -318q3 -21 5.5 -37.5t4 -33t3 -35.5t2.5 -46h3q8 50 16 88t19 76l91 278h74l94 -278q14 -38 23 -76t17 -88h3q1 25 1.5 44t2 36l3 34t3.5 38l52 508h79l-79 -750h-95l-101 287q-11 35 -22 72t-17 87h-2z
" />
    <glyph glyph-name="uni0E20" unicode="&#xe20;" horiz-adv-x="614" 
d="M182 90q0 -39 -22.5 -65t-63.5 -25h-66v72h43q14 0 18.5 7t4.5 19v133q0 29 14 55t40 39l-92 77q8 32 30.5 62.5t55.5 54t75.5 37.5t90.5 14q57 0 100 -16t71.5 -45t43 -68.5t14.5 -87.5v-353h-86v353q0 72 -37 107.5t-106 35.5q-57 0 -101 -24.5t-60 -64.5l86 -77
q-27 -14 -40 -34.5t-13 -52.5v-153z" />
    <glyph glyph-name="uni0E21" unicode="&#xe21;" horiz-adv-x="606" 
d="M445 560h86v-351q0 -101 -48 -160t-147 -59q-60 0 -102 25t-71 67l-5 -82h-81v560h86v-382q10 -23 27.5 -43.5t39.5 -36.5t46.5 -25t49.5 -9q63 0 91 37.5t28 108.5v350z" />
    <glyph glyph-name="uni0E22" unicode="&#xe22;" horiz-adv-x="580" 
d="M419 560h86v-351q0 -49 -13 -89.5t-41.5 -69t-73 -44.5t-108.5 -16q-106 0 -164.5 47t-58.5 134q0 50 25 85.5t68 49.5q-38 10 -65.5 42t-27.5 89q0 56 38 92.5t105 36.5q28 0 50 -5t38 -12l-10 -72q-10 5 -27.5 10t-36.5 5q-37 0 -55.5 -18.5t-18.5 -47.5
q0 -20 8.5 -34.5t21.5 -25t29 -15.5t32 -5h85l7 -74h-79q-44 0 -73.5 -26t-29.5 -70q0 -27 11.5 -48t31 -35.5t45 -21.5t53.5 -7q75 0 111.5 37.5t36.5 108.5v350z" />
    <glyph glyph-name="uni0E23" unicode="&#xe23;" horiz-adv-x="493" 
d="M225 63q68 0 103 26.5t35 60.5q0 21 -12.5 37t-33 28.5t-46 21.5t-51.5 17q-38 11 -70.5 24.5t-56 33t-36.5 46t-13 63.5q0 71 56.5 110t153.5 39q47 0 92 -9.5t80 -27.5l-22 -68q-61 32 -142 32q-63 0 -98.5 -22t-35.5 -54q0 -18 10 -32t27 -24.5t39 -19t47 -16.5
q47 -15 83.5 -31.5t61.5 -37.5t38 -48t13 -64q0 -71 -53.5 -114.5t-164.5 -43.5q-55 0 -101.5 10t-78.5 29l21 67q31 -15 71 -24t84 -9z" />
    <glyph glyph-name="uni0E24" unicode="&#xe24;" horiz-adv-x="606" 
d="M162 98q0 -12 4.5 -19t18.5 -7h54v-72h-77q-41 0 -63.5 25.5t-22.5 64.5v148q0 29 14 55t40 39l-82 70q8 32 30.5 62.5t56 54t76 37.5t90.5 14q57 0 100 -16t72 -45t43.5 -68.5t14.5 -87.5v-553h-86v553q0 72 -37.5 107.5t-106.5 35.5q-57 0 -101.5 -24.5t-60.5 -64.5
l76 -70q-27 -14 -40 -34.5t-13 -52.5v-152z" />
    <glyph glyph-name="uni0E25" unicode="&#xe25;" horiz-adv-x="576" 
d="M415 0v270h-140q-71 0 -112 -27.5t-41 -84.5q0 -49 29 -72.5t73 -23.5q21 0 44.5 4.5t41.5 12.5l14 -71q-22 -8 -51 -13t-58 -5q-38 0 -70.5 10.5t-56.5 31t-38 52t-14 73.5q0 88 62 137.5t187 49.5h130v13q0 66 -31 103.5t-110 37.5q-57 0 -106 -17t-85 -42l-28 61
q15 13 38.5 25.5t53 22.5t63.5 16t71 6q108 0 164 -57.5t56 -154.5v-358h-86z" />
    <glyph glyph-name="uni0E26" unicode="&#xe26;" horiz-adv-x="614" 
d="M182 90q0 -39 -22.5 -65t-63.5 -25h-66v72h43q14 0 18.5 7t4.5 19v133q0 29 14 55t40 39l-92 77q8 32 30.5 62.5t55.5 54t75.5 37.5t90.5 14q57 0 100 -16t71.5 -45t43 -68.5t14.5 -87.5v-553h-86v553q0 72 -37 107.5t-106 35.5q-57 0 -101 -24.5t-60 -64.5l86 -77
q-27 -14 -40 -34.5t-13 -52.5v-153z" />
    <glyph glyph-name="uni0E27" unicode="&#xe27;" horiz-adv-x="526" 
d="M58 114q36 -22 76.5 -36t88.5 -14q76 0 121.5 52t45.5 160q0 114 -43.5 167t-123.5 53q-53 0 -91 -13.5t-76 -38.5l-20 69q40 26 90.5 41.5t103.5 15.5q121 0 183.5 -75.5t62.5 -210.5q0 -144 -66.5 -219t-188.5 -75q-57 0 -101 14t-83 40z" />
    <glyph glyph-name="uni0E29" unicode="&#xe29;" horiz-adv-x="618" 
d="M302 64q72 0 106.5 38t34.5 104v88h-131v74h131v192h86v-192h85l-20 -74h-65v-88q0 -104 -58 -160t-169 -56t-169 56t-58 160v354h86v-354q0 -66 34.5 -104t106.5 -38z" />
    <glyph glyph-name="uni0E2A" unicode="&#xe2a;" horiz-adv-x="576" 
d="M415 0v270h-140q-71 0 -112 -27.5t-41 -84.5q0 -49 29 -72.5t73 -23.5q21 0 44.5 4.5t41.5 12.5l14 -71q-22 -8 -51 -13t-58 -5q-38 0 -70.5 10.5t-56.5 31t-38 52t-14 73.5q0 88 62 137.5t187 49.5h130v13q0 31 -7 57t-23.5 45t-43 29t-64.5 10q-61 0 -109.5 -17
t-84.5 -42l-28 61q16 13 40.5 26t54 22.5t62.5 15.5t65 6q64 0 113 -22l43 51h98l-79 -95q25 -27 37 -64t12 -82v-358h-86z" />
    <glyph glyph-name="uni0E2B" unicode="&#xe2b;" horiz-adv-x="586" 
d="M464 0l-74 254q-28 92 -102 94l-125 -103v-245h-86v560h86v-220l266 220h116l-196 -162q54 -8 83.5 -45t46.5 -92l77 -261h-92z" />
    <glyph glyph-name="uni0E2C" unicode="&#xe2c;" horiz-adv-x="660" 
d="M499 419q0 55 -16.5 80.5t-66.5 25.5h-12l-12 36l130 189h88l-134 -183q28 -3 48 -16.5t33 -33.5t19.5 -45t6.5 -52v-420h-92l-131 253q-12 23 -20.5 47t-10.5 35h-2q-2 -11 -10.5 -35t-20.5 -47l-127 -253h-92v560h84v-299q0 -46 -1.5 -85t-7.5 -79h2q10 35 19.5 63
t23.5 56l97 187h68l100 -186q15 -28 25.5 -59.5t18.5 -60.5h2q-5 40 -7 79t-2 85v158z" />
    <glyph glyph-name="uni0E2D" unicode="&#xe2d;" horiz-adv-x="592" 
d="M162 247q-11 0 -18.5 -7.5t-7.5 -21.5v-27q0 -66 37 -96.5t113 -30.5q80 0 125 51.5t45 167.5q0 103 -45 158t-126 55q-66 0 -116.5 -18.5t-88.5 -47.5l-28 64q17 14 42 27.5t55 24.5t64.5 17.5t71.5 6.5q126 0 191.5 -78t65.5 -213q0 -142 -65.5 -215.5t-188.5 -73.5
q-121 0 -179.5 52t-58.5 149v30q0 52 27.5 76t74.5 24h90v-74h-80z" />
    <glyph glyph-name="uni0E2E" unicode="&#xe2e;" horiz-adv-x="592" 
d="M162 247q-11 0 -18.5 -7.5t-7.5 -21.5v-27q0 -66 37 -96.5t113 -30.5q80 0 125 51.5t45 167.5q0 51 -13 90.5t-35.5 66.5t-54 41.5t-68.5 14.5q-66 0 -116.5 -18.5t-88.5 -47.5l-28 64q17 14 42 27.5t55 24.5t64.5 17.5t71.5 6.5q68 0 121 -27l48 56h98l-86 -101
q38 -38 57 -94t19 -125q0 -142 -65.5 -215.5t-188.5 -73.5q-121 0 -179.5 52t-58.5 149v30q0 52 27.5 76t74.5 24h90v-74h-80z" />
    <glyph glyph-name="uni0E2F" unicode="&#xe2f;" horiz-adv-x="549" 
d="M386 0v418q-10 -21 -28.5 -38.5t-42 -30t-51 -19t-56.5 -6.5q-46 0 -78 15t-52 41.5t-29 63t-9 80.5v36h84v-37q0 -65 24.5 -98t78.5 -33q29 0 58 13.5t52.5 35t38 49t14.5 55.5v15h82v-560h-86z" />
    <glyph glyph-name="uni0E30" unicode="&#xe30;" horiz-adv-x="300" 
d="M134 362q-41 0 -65.5 18t-24.5 63v49h82v-41q0 -19 19 -19h105v-70h-116zM134 86q-41 0 -65.5 18t-24.5 63v49h82v-41q0 -19 19 -19h105v-70h-116z" />
    <glyph glyph-name="uni0E31" unicode="&#xe31;" 
d="M-186 636q-101 0 -101 90v40h82v-30q0 -30 28 -30h236v-70h-245z" />
    <glyph glyph-name="uni0E32" unicode="&#xe32;" horiz-adv-x="474" 
d="M313 0v361q0 135 -119 135q-48 0 -90 -17.5t-71 -41.5l-23 65q15 13 36.5 25.5t47 22t53 15t55.5 5.5q98 0 147.5 -55.5t49.5 -157.5v-357h-86z" />
    <glyph glyph-name="uni0E33" unicode="&#xe33;" horiz-adv-x="474" 
d="M-120 622q-21 0 -39 7.5t-31.5 21t-21 32t-7.5 39.5t7.5 39t21 31.5t31.5 21.5t39 8t39 -8t31.5 -21.5t21.5 -31.5t8 -39t-8 -39.5t-21.5 -32t-31.5 -21t-39 -7.5zM-120 679q19 0 31 13t12 31q0 19 -12 31t-31 12q-17 0 -29.5 -12t-12.5 -31q0 -18 12.5 -31t29.5 -13z
M313 0v361q0 135 -119 135q-48 0 -90 -17.5t-71 -41.5l-23 65q15 13 36.5 25.5t47 22t53 15t55.5 5.5q98 0 147.5 -55.5t49.5 -157.5v-357h-86z" />
    <glyph glyph-name="uni0E34" unicode="&#xe34;" 
d="M-504 636v70h429v-70h-429z" />
    <glyph glyph-name="uni0E35" unicode="&#xe35;" 
d="M-504 636v70h348v92h81v-162h-429z" />
    <glyph glyph-name="uni0E36" unicode="&#xe36;" 
d="M-144 636h-360v70h277q-1 5 -1.5 9.5t-0.5 9.5q0 38 25.5 63.5t62.5 25.5q38 0 63.5 -25.5t25.5 -63.5q0 -37 -24.5 -62t-60.5 -27h-4h-3zM-141 690q15 0 25 11t10 25q0 15 -10 25t-25 10q-14 0 -24 -10t-10 -25q0 -14 10 -25t24 -11z" />
    <glyph glyph-name="uni0E37" unicode="&#xe37;" 
d="M-504 636v70h234v92h71v-94h53v94h71v-162h-429z" />
    <glyph glyph-name="uni0E38" unicode="&#xe38;" 
d="M-159 -261v99q0 21 -21 21h-39v72h65q42 0 60.5 -20t18.5 -65v-107h-84z" />
    <glyph glyph-name="uni0E39" unicode="&#xe39;" 
d="M-205 -272q-64 0 -96 27t-32 78v28h-55v70h135v-98q0 -23 14 -33t34 -10t34 10t14 33v98h82v-98q0 -51 -33 -78t-97 -27z" />
    <glyph glyph-name="uni0E3A" unicode="&#xe3a;" 
d="M-58 -125q0 -26 -19 -44.5t-47 -18.5q-26 0 -45.5 18.5t-19.5 44.5t19.5 45t45.5 19q28 0 47 -19t19 -45z" />
    <glyph glyph-name="uni0E3F" unicode="&#xe3f;" horiz-adv-x="572" 
d="M272 0h-198v650h198v100h56v-101q92 -7 138 -53.5t46 -119.5q0 -29 -10 -51t-25 -38.5t-32.5 -27.5t-33.5 -17q23 -4 46 -15t41.5 -29.5t30 -45t11.5 -62.5q0 -80 -52.5 -131.5t-159.5 -57.5v-101h-56v100zM272 75v224h-116v-224h116zM272 373v202h-116v-202h116z
M458 190q0 28 -9.5 47.5t-26.5 32.5t-41 19.5t-53 8.5v-222q61 5 95.5 34t34.5 80zM430 480q0 42 -27.5 65t-74.5 28v-198q43 6 72.5 31.5t29.5 73.5z" />
    <glyph glyph-name="uni0E40" unicode="&#xe40;" horiz-adv-x="242" 
d="M78 0v560h86v-560h-86z" />
    <glyph glyph-name="uni0E41" unicode="&#xe41;" horiz-adv-x="436" 
d="M78 0v560h84v-560h-84zM274 0v560h84v-560h-84z" />
    <glyph glyph-name="uni0E42" unicode="&#xe42;" horiz-adv-x="274" 
d="M104 0v615q0 46 -14.5 80t-33.5 57.5t-37.5 36t-26.5 15.5l-2 18q16 28 40.5 49.5t55 36t66 21.5t73.5 7q61 0 98 -7.5t67 -19.5l-13 -76q-29 16 -67.5 23t-76.5 7q-48 0 -87.5 -11t-57.5 -34q50 -27 76 -84.5t26 -126.5v-607h-86z" />
    <glyph glyph-name="uni0E43" unicode="&#xe43;" horiz-adv-x="274" 
d="M104 0v539q0 42 19 75.5t41.5 62.5t41.5 56t19 56q0 32 -18.5 52t-62.5 20q-37 0 -78 -17t-76 -52l-27 60q13 18 33 33.5t45 26.5t53 17.5t56 6.5q40 0 71 -11.5t52 -31.5t31.5 -46.5t10.5 -57.5q0 -37 -19.5 -68t-43 -61.5t-43 -64.5t-19.5 -77v-518h-86z" />
    <glyph glyph-name="uni0E44" unicode="&#xe44;" horiz-adv-x="274" 
d="M104 0v667q0 61 20.5 106t56.5 77h-247v71h357v-60q-48 -22 -74.5 -65.5t-26.5 -109.5v-686h-86z" />
    <glyph glyph-name="uni0E45" unicode="&#xe45;" horiz-adv-x="474" 
d="M313 -200v561q0 135 -119 135q-48 0 -90 -17.5t-71 -41.5l-23 65q15 13 36.5 25.5t47 22t53 15t55.5 5.5q98 0 147.5 -55.5t49.5 -157.5v-557h-86z" />
    <glyph glyph-name="uni0E46" unicode="&#xe46;" horiz-adv-x="559" 
d="M398 -200v616q0 77 -48 86l-82 -59l-84 59q-62 -14 -62 -65q0 -29 17 -45t46 -16q16 0 27 4l10 -65q-11 -4 -23.5 -5.5t-23.5 -1.5q-24 0 -46.5 7.5t-40 23t-28 40t-10.5 58.5q0 30 11.5 53t30.5 39.5t44 27t52 15.5l80 -61l81 61q34 -2 59.5 -16t42.5 -36t25 -50.5
t8 -59.5v-610h-86z" />
    <glyph glyph-name="uni0E47" unicode="&#xe47;" 
d="M-172 636q-26 0 -45.5 13.5t-29.5 34.5q-7 -21 -28 -36.5t-57 -15.5q-26 0 -46.5 9t-34.5 24t-21.5 34t-7.5 40q0 22 7.5 42t22.5 36t39 25.5t57 9.5h205v-68h-202q-27 0 -38 -14t-11 -32t11 -30t33 -12q17 0 29.5 13t15.5 27h48q4 -14 15.5 -22t33.5 -8h66v-70h-62z" />
    <glyph glyph-name="uni0E48" unicode="&#xe48;" 
d="M-156 847v134h81v-134h-81z" />
    <glyph glyph-name="uni0E49" unicode="&#xe49;" 
d="M-162 847q-17 0 -29.5 11t-12.5 29v26q0 8 -2 12t-11 4h-51v70h81q26 0 41 -11.5t15 -35.5v-22q0 -14 14 -14h135v-69h-180z" />
    <glyph glyph-name="uni0E4A" unicode="&#xe4a;" 
d="M-133 847l-8 17q9 9 9 24q0 14 -8.5 21t-20.5 8l-44 -35l-44 32q-11 0 -17.5 -7.5t-6.5 -18.5q0 -8 2 -18t9 -25h-76q-5 14 -6.5 27.5t-1.5 24.5q0 30 22.5 56.5t67.5 30.5l51 -46l47 47q87 -3 79 -90q20 9 26 24.5t6 47.5q0 13 -2.5 23.5t-7.5 20.5h80q3 -8 5 -17.5
t3 -21.5q0 -26 -9 -48.5t-25.5 -39.5t-39 -27t-50.5 -10h-40z" />
    <glyph glyph-name="uni0E4B" unicode="&#xe4b;" 
d="M-80 908l2 -61h-75l3 61l-71 -2v60l71 -2l-3 62h75l-2 -62l71 2v-60z" />
    <glyph glyph-name="uni0E4C" unicode="&#xe4c;" 
d="M-84 816q-18 0 -27.5 -7.5t-9.5 -26.5v-21h-90v32q0 43 25.5 68t76.5 25h90v-70h-65z" />
    <glyph glyph-name="uni0E4E" unicode="&#xe4e;" 
d="M-143 649q-13 -8 -26.5 -11.5t-33.5 -3.5t-39 5t-33.5 15.5t-23.5 26.5t-9 39q0 37 25 61.5t80 19.5q-6 7 -9 16t-3 18q0 20 17 34t54 14h60l14 -56h-60q-8 0 -12.5 -5t-4.5 -13q0 -16 25 -28l-16 -42q-30 9 -59 9q-39 0 -39 -28q0 -29 43 -29q12 0 24 1.5t26 6.5v-50z
" />
    <glyph glyph-name="uni0E4F" unicode="&#xe4f;" horiz-adv-x="546" 
d="M273 26q-44 0 -83 17t-68 46t-45.5 68t-16.5 83t16.5 83t45.5 68t68 45.5t83 16.5t83 -16.5t68 -45.5t45.5 -68t16.5 -83t-16.5 -83t-45.5 -68t-68 -46t-83 -17zM273 60q37 0 70 14t57.5 38.5t38.5 57t14 70.5q0 37 -14 70t-38.5 57.5t-57.5 38.5t-70 14t-70 -14
t-57.5 -38.5t-38.5 -57.5t-14 -70q0 -38 14 -70.5t38.5 -57t57.5 -38.5t70 -14zM273 117q-26 0 -48.5 9.5t-39.5 26t-26.5 39t-9.5 47.5q0 26 10 49t26.5 39.5t39 26t47.5 9.5q26 0 48.5 -9.5t39.5 -26.5t26.5 -39.5t9.5 -47.5q0 -26 -10 -48.5t-26.5 -39t-39 -26
t-47.5 -9.5zM273 168q29 0 49.5 20.5t20.5 51.5q0 29 -20.5 49.5t-50.5 20.5q-29 0 -50 -21t-21 -50t21 -50t51 -21z" />
    <glyph glyph-name="uni0E50" unicode="&#xe50;" horiz-adv-x="638" 
d="M320 493q55 0 104 -17t86 -49.5t58.5 -79t21.5 -105.5t-21.5 -105.5t-58.5 -79t-86.5 -49.5t-105.5 -17q-55 0 -104 17t-86 49.5t-58.5 79t-21.5 105.5t21.5 105.5t58.5 79t86.5 49.5t105.5 17zM319 63q39 0 73 12t59.5 35t40.5 56.5t15 75.5t-15 75.5t-40.5 56.5
t-59.5 35t-73 12t-73 -12t-59.5 -35t-40.5 -56.5t-15 -75.5t15 -75.5t40.5 -56.5t59.5 -35t73 -12z" />
    <glyph glyph-name="uni0E51" unicode="&#xe51;" horiz-adv-x="641" 
d="M269 -44h33q37 0 74 15.5t67 45.5t48.5 75t18.5 104q0 51 -14 93t-40 71t-63 45t-83 16q-42 0 -76 -13t-59 -36t-38.5 -54.5t-13.5 -68.5q0 -70 37.5 -107t93.5 -37q23 0 45.5 5t39.5 12q1 -20 2.5 -34.5t2.5 -33.5q-22 -11 -43.5 -16t-46.5 -5q-43 0 -81 14t-66.5 41
t-45.5 67.5t-17 94.5q0 53 19.5 97.5t54.5 77t84.5 50.5t109.5 18q65 0 117 -21t88.5 -60t56 -93.5t19.5 -120.5q0 -70 -23.5 -127t-64 -98t-94.5 -63.5t-115 -22.5h-35z" />
    <glyph glyph-name="uni0E52" unicode="&#xe52;" horiz-adv-x="748" 
d="M678 194q0 -43 -12.5 -78.5t-36.5 -61t-59.5 -40t-81.5 -14.5h-225q-47 0 -82.5 14.5t-59.5 40t-36 61t-12 78.5v366h83v-366q0 -63 31 -92.5t81 -29.5h215q50 0 81 29.5t31 92.5v120q0 49 -15.5 73t-51.5 28l-80 -63l-86 65q-26 -5 -40 -29t-14 -50q0 -35 23.5 -57.5
t55.5 -32.5l-22 -63q-62 11 -97.5 50.5t-35.5 100.5q0 67 36.5 107.5t96.5 49.5l83 -73l76 73q82 -8 118 -54.5t36 -127.5v-117z" />
    <glyph glyph-name="uni0E53" unicode="&#xe53;" horiz-adv-x="661" 
d="M297 180v145q0 45 -14.5 70.5t-51.5 25.5q-26 0 -43.5 -13.5t-28.5 -37t-15.5 -56.5t-4.5 -72q0 -87 25 -134t68 -47q13 0 25 2.5t23 6.5l16 -57q-28 -19 -67 -19q-41 0 -73 18t-54 50.5t-34 78t-12 100.5t10 101.5t31 80t52 52t73 18.5q50 0 75.5 -20.5t37.5 -50.5
q14 30 40.5 50.5t74.5 20.5q36 0 62.5 -12t44 -33.5t26 -51.5t8.5 -65v-331h-83v332q0 16 -2 32t-8.5 29t-18.5 20.5t-33 7.5q-41 0 -57.5 -25.5t-16.5 -70.5v-145h-75z" />
    <glyph glyph-name="uni0E54" unicode="&#xe54;" horiz-adv-x="611" 
d="M521 0q-50 0 -80 9t-55 35q-19 -23 -48.5 -38.5t-85.5 -15.5q-44 0 -81.5 17.5t-64.5 50t-42.5 78.5t-15.5 103q0 61 21 106.5t57 76t85.5 46t106.5 15.5h102q28 0 45 5t26.5 13.5t13 20.5t3.5 26v12h83v-12q0 -66 -39 -101.5t-117 -35.5h-116q-42 0 -76.5 -9.5
t-59.5 -30t-38.5 -53t-13.5 -77.5q0 -41 11 -74.5t30 -57t44.5 -36t54.5 -12.5q30 0 50 8t36 23q-24 35 -24 81q0 30 10 53.5t27 39.5t39.5 24.5t47.5 8.5h70l-16 -70h-35q-26 0 -44.5 -18t-18.5 -50q0 -43 29 -67t90 -24h51l-15 -70h-47z" />
    <glyph glyph-name="uni0E55" unicode="&#xe55;" horiz-adv-x="611" 
d="M521 0q-50 0 -80 9t-55 35q-19 -23 -48.5 -38.5t-85.5 -15.5q-44 0 -81.5 17.5t-64.5 50t-42.5 78.5t-15.5 103q0 88 42 144t111 81q-5 10 -7.5 20.5t-2.5 22.5q0 20 7.5 37.5t20 30t29.5 20t37 7.5q19 0 36.5 -7.5t30 -20t20 -30t7.5 -37.5q0 -14 -3 -24h44q28 0 45 5
t26.5 13.5t13 20.5t3.5 26v12h83v-12q0 -66 -39 -101.5t-117 -35.5h-116q-42 0 -76.5 -9.5t-59.5 -30t-38.5 -53t-13.5 -77.5q0 -41 11 -74.5t30 -57t44.5 -36t54.5 -12.5q30 0 50 8t36 23q-24 35 -24 81q0 30 10 53.5t27 39.5t39.5 24.5t47.5 8.5h70l-16 -70h-35
q-26 0 -44.5 -18t-18.5 -50q0 -43 29 -67t90 -24h51l-15 -70h-47zM285 470q16 0 26.5 11.5t10.5 26.5q0 17 -10.5 27.5t-26.5 10.5q-15 0 -26 -10.5t-11 -27.5q0 -15 11 -26.5t26 -11.5z" />
    <glyph glyph-name="uni0E56" unicode="&#xe56;" horiz-adv-x="617" 
d="M171 229q-11 -11 -17 -29.5t-6 -33.5q0 -20 10 -38.5t29 -33t47 -23.5t64 -9q47 0 82.5 13.5t59 38t35 58.5t11.5 76q0 38 -12 70t-34.5 55.5t-53.5 36.5t-68 13q-62 0 -99.5 -22.5t-63.5 -59.5h-65l-80 229h84l51 -156q26 36 74 57.5t105 21.5q52 0 97 -18t78 -51
t51.5 -78.5t18.5 -100.5q0 -50 -15.5 -96.5t-48.5 -81.5t-84 -56t-122 -21q-53 0 -95.5 13.5t-72.5 37.5t-46.5 57.5t-16.5 74.5q0 31 13 58t28 43z" />
    <glyph glyph-name="uni0E57" unicode="&#xe57;" horiz-adv-x="805" 
d="M278 300v55q0 27 -11 46.5t-38 19.5q-25 0 -42.5 -13.5t-28 -37t-15 -56.5t-4.5 -72q0 -87 27 -134t66 -47q13 0 25.5 2.5t22.5 6.5l16 -57q-15 -11 -31 -15t-36 -4q-41 0 -73 18t-54 50.5t-34 78t-12 100.5t11 101.5t32 80t52 52t71 18.5q44 0 64.5 -19t28.5 -48
q14 29 41 48t71 19q27 0 48 -12t36 -33.5t22.5 -51.5t7.5 -65v-268h24q38 0 61 27.5t23 76.5v393h83v-380q0 -39 -10.5 -72t-31.5 -57t-52.5 -37.5t-73.5 -13.5h-104v332q0 16 -1.5 32t-7 29t-16.5 20.5t-30 7.5q-26 0 -40 -18.5t-14 -47.5v-55h-73z" />
    <glyph glyph-name="uni0E58" unicode="&#xe58;" horiz-adv-x="637" 
d="M294 411q-71 0 -107 -38.5t-36 -98.5v-115q0 -35 21.5 -61.5t53.5 -26.5l112 108l119 -107q33 9 49.5 35t16.5 60q0 40 -24.5 65.5t-59.5 30.5l26 62q29 -3 54 -17t43 -36t28.5 -50t10.5 -57q0 -35 -13.5 -65.5t-36 -53t-50.5 -36t-57 -14.5l-106 98l-93 -98
q-78 2 -127.5 42.5t-49.5 118.5v123q0 42 15.5 78.5t44 64.5t69 44t91.5 16h121q28 0 45 5t26.5 13.5t13 20.5t3.5 26v12h83v-12q0 -66 -39 -101.5t-117 -35.5h-130z" />
    <glyph glyph-name="uni0E59" unicode="&#xe59;" horiz-adv-x="625" 
d="M439 0l-117 333q-14 42 -33 64.5t-58 22.5q-24 0 -44 -13t-33.5 -37t-21 -56.5t-7.5 -71.5q0 -43 9 -77t23 -58t32.5 -36.5t38.5 -12.5q13 0 30.5 4.5t31.5 13.5l16 -57q-17 -12 -37.5 -20t-43.5 -8q-38 0 -71 16.5t-58 48t-39.5 78.5t-14.5 107q0 55 14.5 101.5t39 80
t58 52t72.5 18.5q30 0 51 -5.5t36.5 -16t27 -24.5t20.5 -30q-3 40 20 58t53 18q32 0 52.5 -13.5t32.5 -39.5l21 120h75l-38 -200h-59q-9 25 -23.5 45.5t-40.5 20.5t-40.5 -21t-14.5 -47l122 -358h-82z" />
    <glyph glyph-name="endash" unicode="&#x2013;" horiz-adv-x="514" 
d="M484 283v-58h-454v58h454z" />
    <glyph glyph-name="emdash" unicode="&#x2014;" horiz-adv-x="994" 
d="M924 283v-58h-854v58h854z" />
    <glyph glyph-name="quoteleft" unicode="&#x2018;" horiz-adv-x="216" 
d="M157 680q-8 -14 -15.5 -31t-12.5 -33.5t-8 -30.5t-3 -23q0 -13 10 -13q20 0 30 -12.5t10 -35.5t-13.5 -37t-39.5 -14q-55 0 -55 62q0 19 5.5 42.5t14 47.5t19.5 46t23 39z" />
    <glyph glyph-name="quoteright" unicode="&#x2019;" horiz-adv-x="216" 
d="M59 457q8 14 15.5 31t12.5 33.5t8 30.5t3 23q0 13 -10 13q-20 0 -30 12.5t-10 35.5t13.5 37t39.5 14q55 0 55 -62q0 -19 -5.5 -42.5t-14 -47.5t-19.5 -46.5t-23 -38.5l-35 7v0z" />
    <glyph glyph-name="quotesinglbase" unicode="&#x201a;" horiz-adv-x="216" 
d="M59 -111q8 14 15.5 31t12.5 33.5t8 30.5t3 23q0 13 -10 13q-20 0 -30 12.5t-10 35.5t13.5 37t39.5 14q55 0 55 -62q0 -19 -5.5 -42.5t-14 -47.5t-19.5 -46.5t-23 -38.5l-35 7v0z" />
    <glyph glyph-name="quotedblleft" unicode="&#x201c;" horiz-adv-x="376" 
d="M317 680q-8 -14 -15.5 -31t-12.5 -33.5t-8 -30.5t-3 -23q0 -13 10 -13q20 0 30 -12.5t10 -35.5t-13.5 -37t-39.5 -14q-55 0 -55 62q0 19 5.5 42.5t14 47.5t19.5 46t23 39zM157 680q-8 -14 -15.5 -31t-12.5 -33.5t-8 -30.5t-3 -23q0 -13 10 -13q20 0 30 -12.5t10 -35.5
t-13.5 -37t-39.5 -14q-55 0 -55 62q0 19 5.5 42.5t14 47.5t19.5 46t23 39z" />
    <glyph glyph-name="quotedblright" unicode="&#x201d;" horiz-adv-x="376" 
d="M59 457q8 14 15.5 31t12.5 33.5t8 30.5t3 23q0 13 -10 13q-20 0 -30 12.5t-10 35.5t13.5 37t39.5 14q55 0 55 -62q0 -19 -5.5 -42.5t-14 -47.5t-19.5 -46.5t-23 -38.5zM219 457q8 14 15.5 31t12.5 33.5t8 30.5t3 23q0 13 -10 13q-20 0 -30 12.5t-10 35.5t13.5 37t39.5 14
q55 0 55 -62q0 -19 -5.5 -42.5t-14 -47.5t-19.5 -46.5t-23 -38.5z" />
    <glyph glyph-name="quotedblbase" unicode="&#x201e;" horiz-adv-x="376" 
d="M59 -111q8 14 15.5 31t12.5 33.5t8 30.5t3 23q0 13 -10 13q-20 0 -30 12.5t-10 35.5t13.5 37t39.5 14q55 0 55 -62q0 -19 -5.5 -42.5t-14 -47.5t-19.5 -46.5t-23 -38.5zM219 -111q8 14 15.5 31t12.5 33.5t8 30.5t3 23q0 13 -10 13q-20 0 -30 12.5t-10 35.5t13.5 37
t39.5 14q55 0 55 -62q0 -19 -5.5 -42.5t-14 -47.5t-19.5 -46.5t-23 -38.5z" />
    <glyph glyph-name="dagger" unicode="&#x2020;" horiz-adv-x="542" 
d="M312 674v-191h170v-68h-170v-415h-82v415h-170v68h170v191h82z" />
    <glyph glyph-name="daggerdbl" unicode="&#x2021;" horiz-adv-x="542" 
d="M230 -50v191h-170v68h170v206h-170v68h170v191h82v-191h170v-68h-170v-206h170v-68h-170v-191h-82z" />
    <glyph glyph-name="bullet" unicode="&#x2022;" horiz-adv-x="310" 
d="M260 344q0 -42 -26.5 -73.5t-79.5 -31.5q-52 0 -78 30.5t-26 72.5q0 43 26 73.5t79 30.5q52 0 78.5 -30t26.5 -72z" />
    <glyph glyph-name="ellipsis" unicode="&#x2026;" horiz-adv-x="726" 
d="M60 50q0 25 16 42.5t45 17.5t45 -17.5t16 -42.5t-16 -42.5t-45 -17.5t-45 17.5t-16 42.5zM302 50q0 25 16 42.5t45 17.5t45 -17.5t16 -42.5t-16 -42.5t-45 -17.5t-45 17.5t-16 42.5zM544 50q0 25 16 42.5t45 17.5t45 -17.5t16 -42.5t-16 -42.5t-45 -17.5t-45 17.5
t-16 42.5z" />
    <glyph glyph-name="perthousand" unicode="&#x2030;" horiz-adv-x="1128" 
d="M536 660h70l-366 -660h-70zM110 484q0 -23 4 -45t13 -39t23 -27t34 -10t34 10.5t23 27t13 38t4 44.5t-4 45t-13 39t-23 27.5t-34 10.5t-34 -10.5t-23 -27.5t-13 -39t-4 -44zM42 484q0 36 9 68t27 56t44.5 38t61.5 14q34 0 60.5 -14t44.5 -38t27.5 -56t9.5 -68t-9.5 -68
t-27.5 -56t-44.5 -38t-60.5 -14q-35 0 -61.5 14t-44.5 38t-27 56t-9 68zM518 166q0 -23 4 -45t13 -39t23 -27t34 -10t34 10.5t23 27t13 38t4 44.5t-4 45t-13 39t-23 27.5t-34 10.5t-34 -10.5t-23 -27.5t-13 -39t-4 -44zM450 166q0 36 9 68t27 56t44.5 38t61.5 14
q34 0 60.5 -14t44.5 -38t27.5 -56t9.5 -68t-9.5 -68t-27.5 -56t-44.5 -38t-60.5 -14q-35 0 -61.5 14t-44.5 38t-27 56t-9 68zM870 166q0 -23 4 -45t13 -39t23 -27t34 -10t34 10.5t23 27t13 38t4 44.5t-4 45t-13 39t-23 27.5t-34 10.5t-34 -10.5t-23 -27.5t-13 -39t-4 -44z
M802 166q0 36 9 68t27 56t44.5 38t61.5 14q34 0 60.5 -14t44.5 -38t27.5 -56t9.5 -68t-9.5 -68t-27.5 -56t-44.5 -38t-60.5 -14q-35 0 -61.5 14t-44.5 38t-27 56t-9 68z" />
    <glyph glyph-name="guilsinglleft" unicode="&#x2039;" horiz-adv-x="277" 
d="M108 242l129 -180h-68l-129 180l129 180h68z" />
    <glyph glyph-name="guilsinglright" unicode="&#x203a;" horiz-adv-x="276" 
d="M40 422h67l129 -180l-129 -180h-67l129 180z" />
    <glyph glyph-name="fraction" unicode="&#x2044;" horiz-adv-x="436" 
d="M356 660h70l-366 -660h-70z" />
    <glyph glyph-name="Euro" unicode="&#x20ac;" horiz-adv-x="572" 
d="M61 290h63q-2 11 -2 23v24v18t1 18h-77l15 49h67q9 59 31.5 107t55.5 82.5t76 53.5t94 19t82.5 -14t58.5 -38l-22 -72q-23 21 -50.5 33.5t-63.5 12.5q-70 0 -115.5 -47.5t-60.5 -136.5h223l-15 -49h-213q-1 -9 -1 -18v-18v-24.5t2 -22.5h227l-15 -49h-205
q17 -84 63 -128.5t114 -44.5q36 0 65.5 12.5t52.5 33.5l22 -72q-27 -24 -60.5 -38t-84.5 -14q-50 0 -92.5 18t-76 51t-56.5 79t-34 103h-84z" />
    <glyph glyph-name="trademark" unicode="&#x2122;" horiz-adv-x="778" 
d="M190 626v-331h-58v331l-112 -1v49h284v-49zM547 407q5 17 11.5 34t13.5 32l89 201h67v-379h-57v229q0 17 1.5 31t2.5 27h-2q-2 -8 -7 -21.5t-13 -31.5l-77 -173h-59l-77 173q-8 18 -13 31.5t-7 21.5h-2q1 -13 2.5 -27t1.5 -31v-229h-57v379h67l89 -201q7 -15 13.5 -32
t11.5 -34h1z" />
    <glyph glyph-name="minus" unicode="&#x2212;" horiz-adv-x="572" 
d="M493 318v-68h-414v68h414z" />
    <glyph glyph-name="uni0E34.alt1" unicode="&#xf701;" 
d="M-590 636v70h379v-70h-379z" />
    <glyph glyph-name="uni0E35.alt1" unicode="&#xf702;" 
d="M-590 636v70h298v92h81v-162h-379z" />
    <glyph glyph-name="uni0E36.alt1" unicode="&#xf703;" 
d="M-280 636h-310v70h227q-1 5 -1.5 9.5t-0.5 9.5q0 38 25.5 63.5t62.5 25.5q38 0 63.5 -25.5t25.5 -63.5q0 -37 -24.5 -62t-60.5 -27h-4h-3zM-277 690q15 0 25 11t10 25q0 15 -10 25t-25 10q-14 0 -24 -10t-10 -25q0 -14 10 -25t24 -11z" />
    <glyph glyph-name="uni0E37.alt1" unicode="&#xf704;" 
d="M-590 636v70h184v92h71v-94h53v94h71v-162h-379z" />
    <glyph glyph-name="uni0E48.alt1" unicode="&#xf705;" 
d="M-355 636v166h84v-166h-84z" />
    <glyph glyph-name="uni0E49.alt1" unicode="&#xf706;" 
d="M-347 636q-17 0 -30 12t-13 32v28q0 11 -3 15.5t-15 4.5h-53v70h82q28 0 44.5 -12t16.5 -38v-25q0 -8 3.5 -12.5t14.5 -4.5h155v-70h-202z" />
    <glyph glyph-name="uni0E4A.alt1" unicode="&#xf707;" 
d="M-359 636l-8 17q10 11 10 28q0 33 -31 34l-42 -39l-41 36q-14 0 -23 -9.5t-9 -21.5q0 -11 1.5 -21t8.5 -26h-77q-5 13 -7 29t-2 28q0 32 24.5 60.5t72.5 33.5l51 -52l49 53q94 -5 85 -102q23 13 27.5 33.5t4.5 43.5q0 20 -2.5 31.5t-7.5 22.5h83q3 -9 5.5 -20t2.5 -32
q0 -24 -8.5 -47t-24 -40.5t-39 -28.5t-53.5 -11h-50z" />
    <glyph glyph-name="uni0E4B.alt1" unicode="&#xf708;" 
d="M-286 711l2 -75h-80l3 75l-82 -2v62l82 -2l-3 75h80l-2 -75l83 2v-62z" />
    <glyph glyph-name="uni0E4C.alt1" unicode="&#xf709;" 
d="M-279 695q-22 0 -33 -9t-11 -31v-21h-95v33q0 48 27.5 74.5t83.5 26.5h97v-73h-69z" />
    <glyph glyph-name="uni0E48.alt2" unicode="&#xf70a;" 
d="M-159 636v166h84v-166h-84z" />
    <glyph glyph-name="uni0E49.alt2" unicode="&#xf70b;" 
d="M-191 636q-17 0 -30 12t-13 32v28q0 11 -3 15.5t-15 4.5h-53v70h82q28 0 44.5 -12t16.5 -38v-25q0 -8 3.5 -12.5t14.5 -4.5h135v-70h-182z" />
    <glyph glyph-name="uni0E4A.alt2" unicode="&#xf70c;" 
d="M-173 636l-8 17q10 11 10 28q0 33 -31 34l-47 -39l-46 36q-14 0 -23 -9.5t-9 -21.5q0 -11 1.5 -21t8.5 -26h-77q-5 13 -7 29t-2 28q0 32 24.5 60.5t72.5 33.5l56 -52l54 53q94 -5 85 -102q23 13 32.5 33.5t9.5 43.5q0 20 -2.5 31.5t-7.5 22.5h83q3 -9 5.5 -20t2.5 -32
q0 -24 -10 -47t-27.5 -40.5t-42.5 -28.5t-55 -11h-50z" />
    <glyph glyph-name="uni0E4B.alt2" unicode="&#xf70d;" 
d="M-80 711l2 -75h-80l3 75l-82 -2v62l82 -2l-3 75h80l-2 -75l83 2v-62z" />
    <glyph glyph-name="uni0E4C.alt2" unicode="&#xf70e;" 
d="M-93 695q-22 0 -33 -9t-11 -31v-21h-95v33q0 48 27.5 74.5t83.5 26.5h97v-73h-69z" />
    <glyph glyph-name="uni0E0D.alt1" unicode="&#xf70f;" horiz-adv-x="922" 
d="M847 192q0 -53 -15.5 -91.5t-43.5 -63t-67 -36t-87 -11.5t-87 11.5t-67 36t-43.5 63t-15.5 91.5v161q0 72 -34.5 107.5t-97.5 35.5q-51 0 -92.5 -24.5t-57.5 -64.5l76 -70q-27 -14 -40 -34.5t-13 -52.5v-152q0 -12 4.5 -19t18.5 -7h54v-72h-77q-41 0 -63.5 25.5
t-22.5 64.5v148q0 29 14 55t40 39l-82 70q8 32 29.5 62.5t53 54t72 37.5t86.5 14q55 0 96 -16t68 -45t40.5 -68.5t13.5 -87.5v-161q0 -62 30 -95t96 -33q68 0 98 33t30 95v368h86v-368z" />
    <glyph glyph-name="uni0E31.alt1" unicode="&#xf710;" 
d="M-326 636q-101 0 -101 90v40h82v-30q0 -30 28 -30h226v-70h-235z" />
    <glyph glyph-name="uni0E47.alt1" unicode="&#xf712;" 
d="M-267 636q-26 0 -45.5 13.5t-29.5 34.5q-7 -21 -28 -36.5t-57 -15.5q-26 0 -46.5 9t-34.5 24t-21.5 34t-7.5 40q0 22 7.5 42t22.5 36t39 25.5t57 9.5h205v-68h-202q-27 0 -38 -14t-11 -32t11 -30t33 -12q17 0 29.5 13t15.5 27h48q4 -14 15.5 -22t33.5 -8h66v-70h-62z" />
    <glyph glyph-name="uni0E48.alt3" unicode="&#xf713;" 
d="M-291 847v134h81v-134h-81z" />
    <glyph glyph-name="uni0E49.alt3" unicode="&#xf714;" 
d="M-297 847q-17 0 -29.5 11t-12.5 29v26q0 8 -2 12t-11 4h-51v70h81q26 0 41 -11.5t15 -35.5v-22q0 -14 14 -14h135v-69h-180z" />
    <glyph glyph-name="uni0E4A.alt3" unicode="&#xf715;" 
d="M-268 847l-8 17q9 9 9 24q0 14 -8.5 21t-20.5 8l-44 -35l-44 32q-11 0 -17.5 -7.5t-6.5 -18.5q0 -8 2 -18t9 -25h-76q-5 14 -6.5 27.5t-1.5 24.5q0 30 22.5 56.5t67.5 30.5l51 -46l47 47q87 -3 79 -90q20 9 26 24.5t6 47.5q0 13 -2.5 23.5t-7.5 20.5h80q3 -8 5 -17.5
t3 -21.5q0 -26 -9 -48.5t-25.5 -39.5t-39 -27t-50.5 -10h-40z" />
    <glyph glyph-name="uni0E4B.alt3" unicode="&#xf716;" 
d="M-215 908l2 -61h-75l3 61l-71 -2v60l71 -2l-3 62h75l-2 -62l71 2v-60z" />
    <glyph glyph-name="uni0E4C.alt3" unicode="&#xf717;" 
d="M-219 816q-18 0 -27.5 -7.5t-9.5 -26.5v-21h-90v32q0 43 25.5 68t76.5 25h90v-70h-65z" />
    <glyph glyph-name="uni0E38.alt1" unicode="&#xf718;" 
d="M-159 -416v89q0 21 -21 21h-39v72h65q42 0 60.5 -20t18.5 -65v-97h-84z" />
    <glyph glyph-name="uni0E39.alt1" unicode="&#xf719;" 
d="M-205 -427q-64 0 -96 27t-32 78v18h-55v70h135v-88q0 -23 14 -33t34 -10t34 10t14 33v88h82v-88q0 -51 -33 -78t-97 -27z" />
    <glyph glyph-name="uni0E3A.alt1" unicode="&#xf71a;" 
d="M-58 -293q0 -26 -19 -44.5t-47 -18.5q-26 0 -45.5 18.5t-19.5 44.5t19.5 45t45.5 19q28 0 47 -19t19 -45z" />
    <glyph glyph-name="uni0E2C.alt1" unicode="&#xf71d;" horiz-adv-x="660" 
d="M583 0h-92l-131 253q-12 23 -20.5 47t-10.5 35h-2q-2 -11 -10.5 -35t-20.5 -47l-127 -253h-92v560h84v-299q0 -46 -1.5 -85t-7.5 -79h2q10 35 19.5 63t23.5 56l97 187h68l100 -186q15 -28 25.5 -59.5t18.5 -60.5h2q-5 40 -7 79t-2 85v91q0 42 -17.5 60t-46.5 18h-19
l-12 36l106 133h94l-113 -127q45 -6 68.5 -38.5t23.5 -80.5v-353z" />
    <glyph glyph-name="nonbreakingspace" unicode="&#xa0;" 
 />
    <glyph glyph-name="dollar" unicode="$" horiz-adv-x="572" 
d="M255 -10q-65 0 -107 10.5t-74 26.5l21 69q27 -13 67 -22t93 -9v234q-30 10 -62 23t-58.5 34t-43.5 52t-17 77q0 69 43 116t138 57v92h56v-90q43 -2 79.5 -11t67.5 -24l-20 -69q-27 11 -59.5 19t-67.5 10v-222q32 -11 64.5 -25.5t59 -36t43 -53t16.5 -76.5q0 -81 -50 -124
t-133 -54v-94h-56v90zM417 174q0 22 -8.5 38.5t-22.5 29t-33.5 22t-41.5 17.5v-211q47 8 76.5 33.5t29.5 70.5zM150 487q0 -22 8 -38t22.5 -28t33.5 -21t41 -17v199q-54 -7 -79.5 -32t-25.5 -63z" />
    <glyph glyph-name="numbersign" unicode="#" horiz-adv-x="572" 
d="M69 450h105l43 200h70l-43 -200h138l43 200h70l-43 -200h92v-60h-105l-28 -130h92v-60h-105l-43 -200h-70l43 200h-138l-43 -200h-70l43 200h-92v60h105l28 130h-92v60zM202 259h140l28 132h-140z" />
    <glyph glyph-name="uni0E5B" unicode="&#xe5b;" horiz-adv-x="1141" 
d="M1121 188q-26 -8 -48.5 -11.5t-39.5 -3.5q-45 0 -77 23t-52 68l-43 -142h-38l-66 180l-61 -198h-39l-62 177q-14 -49 -40.5 -91.5t-64 -74t-84 -49.5t-98.5 -18q-54 0 -99.5 18.5t-78.5 50.5t-51.5 76.5t-18.5 95.5q0 48 15 89.5t43 71.5t67.5 47t88.5 17q41 0 74.5 -16
t57.5 -43t38 -61.5t15 -70.5h-68q-4 54 -36 90t-83 36q-34 0 -60 -14t-44 -36.5t-27 -51t-9 -58.5q0 -39 13.5 -70.5t37.5 -54.5t56 -35.5t69 -12.5q66 0 112 31.5t76 79t45 104t18 107.5h45l73 -210l55 189h44l63 -179l49 157h38q10 -77 39 -121t78 -44q29 0 58 10z" />
    <glyph glyph-name="uni0E0E.alt1" unicode="&#xf71b;" horiz-adv-x="614" 
d="M453 353q0 72 -37 107.5t-106 35.5q-57 0 -101 -24.5t-60 -64.5l86 -77q-27 -14 -40 -34.5t-13 -52.5v-153q0 -39 -22.5 -65t-63.5 -25h-66v72h43q14 0 18.5 7t4.5 19v133q0 29 14 55t40 39l-92 77q8 32 30.5 62.5t55.5 54t75.5 37.5t90.5 14q57 0 100 -16t71.5 -45
t43 -68.5t14.5 -87.5v-533h-107q-25 23 -57 39t-73 16q-50 0 -83.5 -14.5t-66.5 -40.5l-23 66q29 26 70 44t92 18q48 0 92 -21t70 -48v474z" />
    <glyph glyph-name="uni0E0F.alt1" unicode="&#xf71c;" horiz-adv-x="614" 
d="M539 -180h-82l-119 71q-16 -35 -51 -56t-74 -21q-36 0 -69.5 8.5t-54.5 22.5l22 73q21 -14 48 -25t49 -11q42 0 73.5 28.5t39.5 70.5l132 -79v451q0 72 -37 107.5t-106 35.5q-57 0 -101 -24.5t-60 -64.5l86 -77q-27 -14 -40 -34.5t-13 -52.5v-153q0 -39 -22.5 -65
t-63.5 -25h-66v72h43q14 0 18.5 7t4.5 19v133q0 29 14 55t40 39l-92 77q8 32 30.5 62.5t55.5 54t75.5 37.5t90.5 14q57 0 100 -16t71.5 -45t43 -68.5t14.5 -87.5v-533z" />
    <glyph glyph-name="notequal" unicode="&#x2260;" horiz-adv-x="572" 
d="M369 408h119v-68h-146l-45 -112h191v-68h-218l-63 -160h-67l63 160h-119v68h146l45 112h-191v68h218l68 170h67z" />
    <glyph glyph-name="infinity" unicode="&#x221e;" horiz-adv-x="766" 
d="M350 309q-27 40 -62 63.5t-75 23.5q-44 0 -66.5 -25.5t-22.5 -60.5q0 -41 25.5 -65.5t65.5 -24.5q41 0 75.5 26t59.5 63zM642 310q0 35 -22 60.5t-69 25.5q-42 0 -73.5 -23t-61.5 -64q26 -42 60.5 -65.5t75.5 -23.5q46 0 68 27.5t22 62.5zM712 311q0 -32 -11 -59t-31 -47
t-48.5 -31.5t-64.5 -11.5q-56 0 -100.5 27.5t-72.5 68.5h-2q-30 -38 -72.5 -67t-100.5 -29q-33 0 -61.5 10.5t-49.5 29.5t-32.5 46.5t-11.5 60.5t11.5 59.5t32.5 46t49.5 30t62.5 10.5q30 0 55 -8t46.5 -21t39 -30.5t31.5 -36.5h2q11 15 27.5 32t38 31.5t47.5 23.5t58 9
q34 0 62.5 -10.5t49.5 -29.5t33 -45.5t12 -58.5z" />
    <glyph glyph-name="greaterequal" unicode="&#x2265;" horiz-adv-x="572" 
d="M506 58v-58h-426v58h426zM506 306l-426 -231v80l341 179l-341 179v80l426 -231v-56z" />
    <glyph glyph-name="lessequal" unicode="&#x2264;" horiz-adv-x="572" 
d="M66 362l426 231v-80l-341 -179l341 -179v-80l-426 231v56zM492 58v-58h-426v58h426z" />
    <glyph glyph-name="partialdiff" unicode="&#x2202;" horiz-adv-x="600" 
d="M299 358q-40 0 -72 -16.5t-54 -43.5t-34 -61.5t-12 -71.5q0 -49 26.5 -76t74.5 -27q32 0 64.5 15t61 44.5t51.5 71.5t37 96q-20 28 -56 48.5t-87 20.5zM342 588q-38 0 -68.5 -8t-58.5 -24l-10 66q27 17 67.5 27.5t78.5 10.5q100 0 152.5 -57t52.5 -157q0 -45 -9.5 -96.5
t-28.5 -102t-47 -97t-64.5 -82.5t-81 -57t-96.5 -21q-98 0 -143.5 46.5t-45.5 125.5q0 50 19 98.5t53.5 86.5t82.5 61t105 23q34 0 60 -7t45.5 -18t33 -24.5t21.5 -25.5q12 51 12 91q0 69 -33.5 105t-96.5 36z" />
    <glyph glyph-name="summation" unicode="&#x2211;" horiz-adv-x="546" 
d="M40 -48v37l252 326l-233 318v41h428v-62h-326l217 -295l-232 -303h360v-62h-466z" />
    <glyph glyph-name="product" unicode="&#x220f;" horiz-adv-x="614" 
d="M90 674h434v-722h-86v642h-262v-642h-86v722z" />
    <glyph glyph-name="pi" unicode="&#x3c0;" horiz-adv-x="599" 
d="M559 9q-14 -8 -34.5 -12.5t-43.5 -4.5q-36 0 -60 11t-38.5 30.5t-20 44.5t-5.5 54v285h-122v-216q0 -24 -2.5 -54t-7 -58.5t-11 -52.5t-14.5 -36h-82q9 15 16 40.5t11 55t6 57.5t2 48v216q-35 -1 -61 -8t-47 -18l-13 65q9 6 23 11t30.5 8.5t34 6t34.5 2.5h402v-67h-118
v-292q0 -30 13.5 -48.5t39.5 -18.5q20 0 30 2t20 6z" />
    <glyph glyph-name="integral" unicode="&#x222b;" horiz-adv-x="432" 
d="M258 125q0 -42 -6.5 -75t-23 -56.5t-44 -35.5t-70.5 -12q-23 0 -41.5 5t-32.5 13l21 66q24 -10 51 -10q38 0 50 25t12 79v381q0 42 6.5 75t23 56.5t44 35.5t70.5 12q23 0 41.5 -5t32.5 -13l-21 -66q-24 10 -51 10q-38 0 -50 -25t-12 -79v-381z" />
    <glyph glyph-name="uni03A9" unicode="&#x3a9;" horiz-adv-x="752" 
d="M378 604q-104 0 -163 -62t-59 -175q0 -54 17.5 -102.5t43.5 -89t55.5 -71t53.5 -49.5v-55h-219v75h120q-22 19 -49 48t-51 67.5t-40.5 86.5t-16.5 105q0 69 21.5 124.5t61 95t96 61t127.5 21.5q70 0 127 -21.5t96.5 -61t61 -95t21.5 -124.5q0 -57 -16.5 -105t-40.5 -86.5
t-51 -67.5t-49 -48h120v-75h-219v55q24 19 53.5 49.5t55.5 71t43.5 89t17.5 102.5q0 113 -58.5 175t-159.5 62z" />
    <glyph glyph-name="radical" unicode="&#x221a;" horiz-adv-x="520" 
d="M20 352v65h133l97 -332l167 589h73l-198 -686h-80l-110 364h-82z" />
    <glyph glyph-name="approxequal" unicode="&#x2248;" horiz-adv-x="572" 
d="M522 397q-20 -41 -55 -70.5t-81 -29.5q-37 0 -63 13t-48 28t-42 28t-44 13q-38 0 -59.5 -21t-38.5 -48l-41 44q8 17 21 34.5t30 32t38.5 23.5t47.5 9q37 0 62.5 -12.5t47 -28t41.5 -28t46 -12.5q34 0 57 21t40 47zM522 218q-20 -41 -55 -70.5t-81 -29.5q-37 0 -63 13
t-48 28t-42 28t-44 13q-38 0 -59.5 -21t-38.5 -48l-41 44q8 17 21 34.5t30 32t38.5 23.5t47.5 9q37 0 62.5 -12.5t47 -28t41.5 -28t46 -12.5q34 0 57 21t40 47z" />
    <glyph glyph-name="Delta" unicode="&#x2206;" horiz-adv-x="625" 
d="M312 535l-178 -468h353zM595 0h-565l266 674h32z" />
    <glyph glyph-name="lozenge" unicode="&#x25ca;" horiz-adv-x="588" 
d="M466 342l-172 254l-173 -254l173 -255zM548 342l-229 -342h-50l-229 341l229 343h50z" />
    <glyph glyph-name="uni0E14" unicode="&#xe14;" horiz-adv-x="625" 
d="M464 0v333q0 35 -8.5 65t-26.5 51.5t-45.5 34t-65.5 12.5q-89 0 -135.5 -58.5t-46.5 -163.5q0 -58 13.5 -97.5t35 -63.5t47.5 -34.5t52 -10.5q21 0 36.5 3t31.5 9l16 -68q-17 -8 -40 -13t-48 -5q-45 0 -87 17t-73.5 51.5t-50.5 87t-19 124.5q0 63 16.5 117t49.5 93.5
t83 62.5t117 23q61 0 105 -19t72.5 -52t42.5 -76t14 -91v-332h-86z" />
    <glyph glyph-name="uni0E15" unicode="&#xe15;" horiz-adv-x="639" 
d="M261 489q-53 -11 -89 -64t-36 -146q0 -60 13.5 -100t35 -65t47.5 -35.5t52 -10.5q21 0 36.5 3t31.5 9l16 -68q-17 -8 -40 -13t-48 -5q-48 0 -89.5 16t-73 50.5t-49.5 88.5t-18 130q0 59 15 109t42.5 87.5t65.5 61.5t83 33l84 -63l86 63q67 -14 102.5 -62t35.5 -122v-386
h-86v392q0 38 -15 62t-42 35l-81 -51z" />
    <glyph glyph-name="uni0E12" unicode="&#xe12;" horiz-adv-x="987" 
d="M552 178q10 -23 27.5 -43.5t38.5 -36.5t45 -25t48 -9q61 0 88 37.5t27 108.5v350h86v-351q0 -102 -46.5 -160.5t-144.5 -58.5q-59 0 -99.5 25t-69.5 67l-5 -82h-81v392q0 38 -15 62t-42 35l-77 -51l-75 51q-53 -11 -87 -63t-34 -143q0 -61 13 -102.5t33.5 -66.5t46 -35.5
t51.5 -10.5q21 0 36.5 3t31.5 9l16 -68q-17 -8 -40 -13t-48 -5q-48 0 -89 16t-71.5 51t-48 89.5t-17.5 132.5q0 58 14.5 106.5t41 86t64 61.5t82.5 33l80 -63l82 63q67 -14 102.5 -62t35.5 -122v-208z" />
    <glyph glyph-name="uni0E0C" unicode="&#xe0c;" horiz-adv-x="922" 
d="M421 353q0 72 -34.5 107.5t-97.5 35.5q-51 0 -92.5 -24.5t-57.5 -64.5l76 -70q-27 -14 -40 -34.5t-13 -52.5v-152q0 -12 4.5 -19t18.5 -7h54v-72h-77q-41 0 -63.5 25.5t-22.5 64.5v148q0 29 14 55t40 39l-82 70q8 32 29.5 62.5t53 54t72 37.5t86.5 14q55 0 96 -16t68 -45
t40.5 -68.5t13.5 -87.5v-175q10 -23 27 -43.5t37 -36.5t42 -25t43 -9q55 0 80 37.5t25 108.5v350h86v-351q0 -102 -44.5 -160.5t-136.5 -58.5q-53 0 -91.5 25t-67.5 67l-5 -82h-81v353z" />
    <glyph glyph-name="uni0E08" unicode="&#xe08;" horiz-adv-x="542" 
d="M174 0l-54 225q-3 13 -9 17.5t-17 4.5h-38v74h45q42 0 65 -16t34 -63l39 -168h13q30 0 57.5 15t49 43.5t34.5 70.5t13 96q0 105 -45 151t-127 46q-57 0 -107 -20.5t-86 -51.5l-27 67q42 35 99 57t120 22q130 0 194.5 -72t64.5 -200q0 -66 -18 -120.5t-51 -94t-78.5 -61.5
t-100.5 -22h-70z" />
    <glyph glyph-name="uni0E10.alt1" unicode="&#xf700;" horiz-adv-x="542" 
d="M174 0l-54 225q-3 13 -9 17.5t-17 4.5h-38v74h45q42 0 65 -16t34 -63l39 -168h13q30 0 57.5 15t49 43.5t34.5 70.5t13 96q0 103 -44.5 150t-127.5 47q-57 0 -107 -20.5t-86 -51.5l-27 67q42 35 99 57t120 22q74 0 129 -29l50 58h98l-87 -104q69 -74 69 -197
q0 -66 -18 -120.5t-51 -94t-78.5 -61.5t-100.5 -22h-70z" />
    <glyph glyph-name="uni0E09" unicode="&#xe09;" horiz-adv-x="590" 
d="M434 0l-5 82q-12 -18 -26 -34.5t-33.5 -29t-46.5 -20.5t-63 -8q-83 0 -125.5 43t-42.5 127v65q0 22 -19 22h-32v74h58q35 0 56 -18.5t21 -63.5v-76q0 -51 24 -75t78 -24q25 0 48 9t42.5 25t34.5 36.5t26 43.5v157q0 78 -38.5 119.5t-114.5 41.5q-63 0 -117 -21t-94 -50
l-31 67q48 34 107.5 56t133.5 22q120 0 180 -63.5t60 -171.5v-335h-81z" />
    <glyph glyph-name="uni0E28" unicode="&#xe28;" horiz-adv-x="620" 
d="M312 570q67 0 112 -28l48 57h98l-85 -101q32 -26 46 -66t14 -83v-349h-86v350q0 31 -9 58t-27 46.5t-46 30.5t-65 11q-75 0 -113 -38.5t-38 -101.5v-122q13 29 41 49t70 20h67v-75h-67q-40 0 -69 -22.5t-42 -67.5v-138h-86v355q0 46 16 85t46 68t74 45.5t101 16.5z" />
    <glyph glyph-name="uni0E4D.alt1" unicode="&#xf711;" 
d="M-324 622q-21 0 -39 7.5t-31.5 21t-21 32t-7.5 39.5t7.5 39t21 31.5t31.5 21.5t39 8t39 -8t31.5 -21.5t21.5 -31.5t8 -39t-8 -39.5t-21.5 -32t-31.5 -21t-39 -7.5zM-324 679q19 0 31 13t12 31q0 19 -12 31t-31 12q-17 0 -29.5 -12t-12.5 -31q0 -18 12.5 -31t29.5 -13z
" />
    <glyph glyph-name="uni0E4D" unicode="&#xe4d;" 
d="M-120 622q-21 0 -39 7.5t-31.5 21t-21 32t-7.5 39.5t7.5 39t21 31.5t31.5 21.5t39 8t39 -8t31.5 -21.5t21.5 -31.5t8 -39t-8 -39.5t-21.5 -32t-31.5 -21t-39 -7.5zM-120 679q19 0 31 13t12 31q0 19 -12 31t-31 12q-17 0 -29.5 -12t-12.5 -31q0 -18 12.5 -31t29.5 -13z
" />
    <glyph glyph-name="Adieresis" unicode="&#xc4;" horiz-adv-x="626" 
d="M451 181h-277l-65 -181h-89l249 674h88l249 -674h-89zM203 259h220l-68 185l-41 132h-2l-41 -132zM166 807q0 20 13 35t38 15t38 -15t13 -35t-13 -35t-38 -15t-38 15t-13 35zM358 807q0 20 13 35t38 15t38 -15t13 -35t-13 -35t-38 -15t-38 15t-13 35z" />
    <glyph glyph-name="Agrave" unicode="&#xc0;" horiz-adv-x="626" 
d="M451 181h-277l-65 -181h-89l249 674h88l249 -674h-89zM203 259h220l-68 185l-41 132h-2l-41 -132zM410 775l-26 -37l-168 99l46 63z" />
    <glyph glyph-name="idieresis" unicode="&#xef;" horiz-adv-x="240" 
d="M162 0h-84v483h84v-483zM-26 611q0 20 13 35t38 15t38 -15t13 -35t-13 -35t-38 -15t-38 15t-13 35zM166 611q0 20 13 35t38 15t38 -15t13 -35t-13 -35t-38 -15t-38 15t-13 35z" />
    <glyph glyph-name="ydieresis" unicode="&#xff;" horiz-adv-x="555" 
d="M396 92q-9 -15 -24 -31.5t-35.5 -30t-47.5 -22t-61 -8.5q-35 0 -63.5 10.5t-48.5 34t-31.5 60t-11.5 87.5v291h82v-291q0 -56 24 -87t64 -31q54 0 91 28t62 65v316h84v-442q0 -123 -59.5 -182.5t-165.5 -59.5q-46 0 -91 13t-73 31l21 67q29 -17 63.5 -26.5t73.5 -9.5
q35 0 62.5 8t46 27.5t28.5 52t10 80.5v50zM130 611q0 20 13 35t38 15t38 -15t13 -35t-13 -35t-38 -15t-38 15t-13 35zM322 611q0 20 13 35t38 15t38 -15t13 -35t-13 -35t-38 -15t-38 15t-13 35z" />
    <glyph glyph-name="Aacute" unicode="&#xc1;" horiz-adv-x="626" 
d="M451 181h-277l-65 -181h-89l249 674h88l249 -674h-89zM203 259h220l-68 185l-41 132h-2l-41 -132zM364 900l46 -63l-168 -99l-26 37z" />
    <glyph glyph-name="Egrave" unicode="&#xc8;" horiz-adv-x="546" 
d="M80 674h412v-79h-326v-207h306v-79h-306v-230h332v-79h-418v674zM380 775l-26 -37l-168 99l46 63z" />
    <glyph glyph-name="Eacute" unicode="&#xc9;" horiz-adv-x="546" 
d="M80 674h412v-79h-326v-207h306v-79h-306v-230h332v-79h-418v674zM354 900l46 -63l-168 -99l-26 37z" />
    <glyph glyph-name="Ecircumflex" unicode="&#xca;" horiz-adv-x="546" 
d="M80 674h412v-79h-326v-207h306v-79h-306v-230h332v-79h-418v674zM432 741h-83l-62 85l-62 -85h-83l116 141h58z" />
    <glyph glyph-name="Edieresis" unicode="&#xcb;" horiz-adv-x="546" 
d="M80 674h412v-79h-326v-207h306v-79h-306v-230h332v-79h-418v674zM140 807q0 20 13 35t38 15t38 -15t13 -35t-13 -35t-38 -15t-38 15t-13 35zM332 807q0 20 13 35t38 15t38 -15t13 -35t-13 -35t-38 -15t-38 15t-13 35z" />
    <glyph glyph-name="Igrave" unicode="&#xcc;" horiz-adv-x="250" 
d="M168 0h-86v674h86v-674zM222 775l-26 -37l-168 99l46 63z" />
    <glyph glyph-name="Iacute" unicode="&#xcd;" horiz-adv-x="250" 
d="M168 0h-86v674h86v-674zM177 900l46 -63l-168 -99l-26 37z" />
    <glyph glyph-name="Icircumflex" unicode="&#xce;" horiz-adv-x="250" 
d="M168 0h-86v674h86v-674zM271 741h-83l-62 85l-62 -85h-83l116 141h58z" />
    <glyph glyph-name="Idieresis" unicode="&#xcf;" horiz-adv-x="250" 
d="M168 0h-86v674h86v-674zM-21 807q0 20 13 35t38 15t38 -15t13 -35t-13 -35t-38 -15t-38 15t-13 35zM171 807q0 20 13 35t38 15t38 -15t13 -35t-13 -35t-38 -15t-38 15t-13 35z" />
    <glyph glyph-name="egrave" unicode="&#xe8;" horiz-adv-x="502" 
d="M125 204q8 -71 47 -108.5t112 -37.5q31 0 65 6t63 20l19 -62q-63 -32 -155 -32q-118 0 -176 68t-58 184q0 53 12 99t38.5 79.5t68 53t101.5 19.5q99 0 146.5 -55.5t47.5 -148.5q0 -26 -2.5 -46t-7.5 -39h-321zM262 429q-36 0 -61 -12.5t-41.5 -34t-25.5 -51.5t-11 -65
h255v23q0 66 -26.5 103t-89.5 37zM348 579l-26 -37l-168 99l46 63z" />
    <glyph glyph-name="eacute" unicode="&#xe9;" horiz-adv-x="502" 
d="M125 204q8 -71 47 -108.5t112 -37.5q31 0 65 6t63 20l19 -62q-63 -32 -155 -32q-118 0 -176 68t-58 184q0 53 12 99t38.5 79.5t68 53t101.5 19.5q99 0 146.5 -55.5t47.5 -148.5q0 -26 -2.5 -46t-7.5 -39h-321zM262 429q-36 0 -61 -12.5t-41.5 -34t-25.5 -51.5t-11 -65
h255v23q0 66 -26.5 103t-89.5 37zM302 704l46 -63l-168 -99l-26 37z" />
    <glyph glyph-name="ecircumflex" unicode="&#xea;" horiz-adv-x="502" 
d="M125 204q8 -71 47 -108.5t112 -37.5q31 0 65 6t63 20l19 -62q-63 -32 -155 -32q-118 0 -176 68t-58 184q0 53 12 99t38.5 79.5t68 53t101.5 19.5q99 0 146.5 -55.5t47.5 -148.5q0 -26 -2.5 -46t-7.5 -39h-321zM262 429q-36 0 -61 -12.5t-41.5 -34t-25.5 -51.5t-11 -65
h255v23q0 66 -26.5 103t-89.5 37zM396 545h-83l-62 85l-62 -85h-83l116 141h58z" />
    <glyph glyph-name="edieresis" unicode="&#xeb;" horiz-adv-x="502" 
d="M125 204q8 -71 47 -108.5t112 -37.5q31 0 65 6t63 20l19 -62q-63 -32 -155 -32q-118 0 -176 68t-58 184q0 53 12 99t38.5 79.5t68 53t101.5 19.5q99 0 146.5 -55.5t47.5 -148.5q0 -26 -2.5 -46t-7.5 -39h-321zM262 429q-36 0 -61 -12.5t-41.5 -34t-25.5 -51.5t-11 -65
h255v23q0 66 -26.5 103t-89.5 37zM104 611q0 20 13 35t38 15t38 -15t13 -35t-13 -35t-38 -15t-38 15t-13 35zM296 611q0 20 13 35t38 15t38 -15t13 -35t-13 -35t-38 -15t-38 15t-13 35z" />
    <glyph glyph-name="agrave" unicode="&#xe0;" horiz-adv-x="504" 
d="M352 238h-101q-63 0 -96 -27t-33 -75q0 -37 23 -58.5t59 -21.5q33 0 60 12.5t46.5 33t30.5 46t11 51.5v39zM352 316q0 57 -30.5 83t-80.5 26q-43 0 -80.5 -9t-69.5 -24l-19 59q27 16 72 29t100 13q96 0 141.5 -48.5t45.5 -129.5v-315h-63l-16 82q-11 -18 -23.5 -34.5
t-31.5 -29t-45 -20.5t-63 -8q-31 0 -58 9.5t-47.5 28t-32 45.5t-11.5 63q0 83 56.5 123.5t155.5 40.5h100v16zM349 579l-26 -37l-168 99l46 63z" />
    <glyph glyph-name="aacute" unicode="&#xe1;" horiz-adv-x="504" 
d="M352 238h-101q-63 0 -96 -27t-33 -75q0 -37 23 -58.5t59 -21.5q33 0 60 12.5t46.5 33t30.5 46t11 51.5v39zM352 316q0 57 -30.5 83t-80.5 26q-43 0 -80.5 -9t-69.5 -24l-19 59q27 16 72 29t100 13q96 0 141.5 -48.5t45.5 -129.5v-315h-63l-16 82q-11 -18 -23.5 -34.5
t-31.5 -29t-45 -20.5t-63 -8q-31 0 -58 9.5t-47.5 28t-32 45.5t-11.5 63q0 83 56.5 123.5t155.5 40.5h100v16zM303 704l46 -63l-168 -99l-26 37z" />
    <glyph glyph-name="acircumflex" unicode="&#xe2;" horiz-adv-x="504" 
d="M352 238h-101q-63 0 -96 -27t-33 -75q0 -37 23 -58.5t59 -21.5q33 0 60 12.5t46.5 33t30.5 46t11 51.5v39zM352 316q0 57 -30.5 83t-80.5 26q-43 0 -80.5 -9t-69.5 -24l-19 59q27 16 72 29t100 13q96 0 141.5 -48.5t45.5 -129.5v-315h-63l-16 82q-11 -18 -23.5 -34.5
t-31.5 -29t-45 -20.5t-63 -8q-31 0 -58 9.5t-47.5 28t-32 45.5t-11.5 63q0 83 56.5 123.5t155.5 40.5h100v16zM397 545h-83l-62 85l-62 -85h-83l116 141h58z" />
    <glyph glyph-name="atilde" unicode="&#xe3;" horiz-adv-x="504" 
d="M352 238h-101q-63 0 -96 -27t-33 -75q0 -37 23 -58.5t59 -21.5q33 0 60 12.5t46.5 33t30.5 46t11 51.5v39zM352 316q0 57 -30.5 83t-80.5 26q-43 0 -80.5 -9t-69.5 -24l-19 59q27 16 72 29t100 13q96 0 141.5 -48.5t45.5 -129.5v-315h-63l-16 82q-11 -18 -23.5 -34.5
t-31.5 -29t-45 -20.5t-63 -8q-31 0 -58 9.5t-47.5 28t-32 45.5t-11.5 63q0 83 56.5 123.5t155.5 40.5h100v16zM404 662q0 -54 -22.5 -80t-64.5 -26q-22 0 -39 7.5t-31 17t-26.5 17t-26.5 7.5q-20 0 -27 -14.5t-7 -31.5h-60q0 106 89 106q21 0 38 -7.5t31.5 -17t27 -17
t24.5 -7.5q20 0 26.5 13t6.5 33h61z" />
    <glyph glyph-name="adieresis" unicode="&#xe4;" horiz-adv-x="504" 
d="M352 238h-101q-63 0 -96 -27t-33 -75q0 -37 23 -58.5t59 -21.5q33 0 60 12.5t46.5 33t30.5 46t11 51.5v39zM352 316q0 57 -30.5 83t-80.5 26q-43 0 -80.5 -9t-69.5 -24l-19 59q27 16 72 29t100 13q96 0 141.5 -48.5t45.5 -129.5v-315h-63l-16 82q-11 -18 -23.5 -34.5
t-31.5 -29t-45 -20.5t-63 -8q-31 0 -58 9.5t-47.5 28t-32 45.5t-11.5 63q0 83 56.5 123.5t155.5 40.5h100v16zM105 611q0 20 13 35t38 15t38 -15t13 -35t-13 -35t-38 -15t-38 15t-13 35zM297 611q0 20 13 35t38 15t38 -15t13 -35t-13 -35t-38 -15t-38 15t-13 35z" />
    <glyph glyph-name="aring" unicode="&#xe5;" horiz-adv-x="504" 
d="M352 238h-101q-63 0 -96 -27t-33 -75q0 -37 23 -58.5t59 -21.5q33 0 60 12.5t46.5 33t30.5 46t11 51.5v39zM352 316q0 57 -30.5 83t-80.5 26q-43 0 -80.5 -9t-69.5 -24l-19 59q27 16 72 29t100 13q96 0 141.5 -48.5t45.5 -129.5v-315h-63l-16 82q-11 -18 -23.5 -34.5
t-31.5 -29t-45 -20.5t-63 -8q-31 0 -58 9.5t-47.5 28t-32 45.5t-11.5 63q0 83 56.5 123.5t155.5 40.5h100v16zM205 635q0 -23 13.5 -36.5t33.5 -13.5t34 13.5t14 36.5t-14 36.5t-34 13.5t-33.5 -13.5t-13.5 -36.5zM156 634q0 40 28 68t68 28t68 -28t28 -68t-28 -67.5
t-68 -27.5t-68 27.5t-28 67.5z" />
    <glyph glyph-name="Ugrave" unicode="&#xd9;" horiz-adv-x="668" 
d="M334 -10q-118 0 -187 68.5t-69 211.5v404h86v-405q0 -100 44 -149.5t126 -49.5t126 49.5t44 149.5v405h86v-404q0 -143 -69 -211.5t-187 -68.5zM431 775l-26 -37l-168 99l46 63z" />
    <glyph glyph-name="Uacute" unicode="&#xda;" horiz-adv-x="668" 
d="M334 -10q-118 0 -187 68.5t-69 211.5v404h86v-405q0 -100 44 -149.5t126 -49.5t126 49.5t44 149.5v405h86v-404q0 -143 -69 -211.5t-187 -68.5zM385 900l46 -63l-168 -99l-26 37z" />
    <glyph glyph-name="Ucircumflex" unicode="&#xdb;" horiz-adv-x="668" 
d="M334 -10q-118 0 -187 68.5t-69 211.5v404h86v-405q0 -100 44 -149.5t126 -49.5t126 49.5t44 149.5v405h86v-404q0 -143 -69 -211.5t-187 -68.5zM479 741h-83l-62 85l-62 -85h-83l116 141h58z" />
    <glyph glyph-name="Udieresis" unicode="&#xdc;" horiz-adv-x="668" 
d="M334 -10q-118 0 -187 68.5t-69 211.5v404h86v-405q0 -100 44 -149.5t126 -49.5t126 49.5t44 149.5v405h86v-404q0 -143 -69 -211.5t-187 -68.5zM187 807q0 20 13 35t38 15t38 -15t13 -35t-13 -35t-38 -15t-38 15t-13 35zM379 807q0 20 13 35t38 15t38 -15t13 -35t-13 -35
t-38 -15t-38 15t-13 35z" />
    <glyph glyph-name="Yacute" unicode="&#xdd;" horiz-adv-x="568" 
d="M327 287v-287h-86v287l-225 387h91l176 -313h2l176 313h91zM335 900l46 -63l-168 -99l-26 37z" />
    <glyph glyph-name="Ydieresis" unicode="&#x178;" horiz-adv-x="568" 
d="M327 287v-287h-86v287l-225 387h91l176 -313h2l176 313h91zM137 807q0 20 13 35t38 15t38 -15t13 -35t-13 -35t-38 -15t-38 15t-13 35zM329 807q0 20 13 35t38 15t38 -15t13 -35t-13 -35t-38 -15t-38 15t-13 35z" />
    <glyph glyph-name="Acircumflex" unicode="&#xc2;" horiz-adv-x="626" 
d="M451 181h-277l-65 -181h-89l249 674h88l249 -674h-89zM203 259h220l-68 185l-41 132h-2l-41 -132zM458 741h-83l-62 85l-62 -85h-83l116 141h58z" />
    <glyph glyph-name="Eth" unicode="&#xd0;" horiz-adv-x="654" 
d="M80 368v306h196q165 0 248.5 -85t83.5 -251t-83.5 -252t-248.5 -86h-196v300h-69v68h69zM522 338q0 138 -63.5 197t-182.5 59h-110v-226h179v-68h-179v-220h110q119 0 182.5 60t63.5 198z" />
    <glyph glyph-name="Ograve" unicode="&#xd2;" horiz-adv-x="692" 
d="M346 62q109 0 162.5 71.5t53.5 203.5t-53.5 203.5t-162.5 71.5t-162.5 -71.5t-53.5 -203.5t53.5 -203.5t162.5 -71.5zM346 -10q-79 0 -136 26.5t-94 73t-54.5 110t-17.5 137.5t17.5 137.5t54.5 110t94 73t136 26.5t136 -26.5t94 -73t54.5 -110t17.5 -137.5t-17.5 -137.5
t-54.5 -110t-94 -73t-136 -26.5zM443 775l-26 -37l-168 99l46 63z" />
    <glyph glyph-name="Oacute" unicode="&#xd3;" horiz-adv-x="692" 
d="M346 62q109 0 162.5 71.5t53.5 203.5t-53.5 203.5t-162.5 71.5t-162.5 -71.5t-53.5 -203.5t53.5 -203.5t162.5 -71.5zM346 -10q-79 0 -136 26.5t-94 73t-54.5 110t-17.5 137.5t17.5 137.5t54.5 110t94 73t136 26.5t136 -26.5t94 -73t54.5 -110t17.5 -137.5t-17.5 -137.5
t-54.5 -110t-94 -73t-136 -26.5zM397 900l46 -63l-168 -99l-26 37z" />
    <glyph glyph-name="Ocircumflex" unicode="&#xd4;" horiz-adv-x="692" 
d="M346 62q109 0 162.5 71.5t53.5 203.5t-53.5 203.5t-162.5 71.5t-162.5 -71.5t-53.5 -203.5t53.5 -203.5t162.5 -71.5zM346 -10q-79 0 -136 26.5t-94 73t-54.5 110t-17.5 137.5t17.5 137.5t54.5 110t94 73t136 26.5t136 -26.5t94 -73t54.5 -110t17.5 -137.5t-17.5 -137.5
t-54.5 -110t-94 -73t-136 -26.5zM491 741h-83l-62 85l-62 -85h-83l116 141h58z" />
    <glyph glyph-name="Odieresis" unicode="&#xd6;" horiz-adv-x="692" 
d="M346 62q109 0 162.5 71.5t53.5 203.5t-53.5 203.5t-162.5 71.5t-162.5 -71.5t-53.5 -203.5t53.5 -203.5t162.5 -71.5zM346 -10q-79 0 -136 26.5t-94 73t-54.5 110t-17.5 137.5t17.5 137.5t54.5 110t94 73t136 26.5t136 -26.5t94 -73t54.5 -110t17.5 -137.5t-17.5 -137.5
t-54.5 -110t-94 -73t-136 -26.5zM199 807q0 20 13 35t38 15t38 -15t13 -35t-13 -35t-38 -15t-38 15t-13 35zM391 807q0 20 13 35t38 15t38 -15t13 -35t-13 -35t-38 -15t-38 15t-13 35z" />
    <glyph glyph-name="Otilde" unicode="&#xd5;" horiz-adv-x="692" 
d="M346 62q109 0 162.5 71.5t53.5 203.5t-53.5 203.5t-162.5 71.5t-162.5 -71.5t-53.5 -203.5t53.5 -203.5t162.5 -71.5zM346 -10q-79 0 -136 26.5t-94 73t-54.5 110t-17.5 137.5t17.5 137.5t54.5 110t94 73t136 26.5t136 -26.5t94 -73t54.5 -110t17.5 -137.5t-17.5 -137.5
t-54.5 -110t-94 -73t-136 -26.5zM498 858q0 -54 -22.5 -80t-64.5 -26q-22 0 -39 7.5t-31 17t-26.5 17t-26.5 7.5q-20 0 -27 -14.5t-7 -31.5h-60q0 106 89 106q21 0 38 -7.5t31.5 -17t27 -17t24.5 -7.5q20 0 26.5 13t6.5 33h61z" />
    <glyph glyph-name="Atilde" unicode="&#xc3;" horiz-adv-x="626" 
d="M451 181h-277l-65 -181h-89l249 674h88l249 -674h-89zM203 259h220l-68 185l-41 132h-2l-41 -132zM465 858q0 -54 -22.5 -80t-64.5 -26q-22 0 -39 7.5t-31 17t-26.5 17t-26.5 7.5q-20 0 -27 -14.5t-7 -31.5h-60q0 106 89 106q21 0 38 -7.5t31.5 -17t27 -17t24.5 -7.5
q20 0 26.5 13t6.5 33h61z" />
    <glyph glyph-name="ograve" unicode="&#xf2;" horiz-adv-x="540" 
d="M125 242q0 -39 8.5 -73t26 -58.5t45 -38.5t65.5 -14t65.5 14t45 38.5t26 58.5t8.5 73t-8.5 72.5t-26 58t-45 38.5t-65.5 14t-65.5 -14t-45 -38.5t-26 -58t-8.5 -72.5zM42 242q0 53 13.5 99t41.5 79.5t71 53t102 19.5t102 -19.5t71 -53t41.5 -79.5t13.5 -99t-13.5 -99
t-41.5 -80t-71 -53.5t-102 -19.5t-102 19.5t-71 53.5t-41.5 80t-13.5 99zM367 579l-26 -37l-168 99l46 63z" />
    <glyph glyph-name="oacute" unicode="&#xf3;" horiz-adv-x="540" 
d="M125 242q0 -39 8.5 -73t26 -58.5t45 -38.5t65.5 -14t65.5 14t45 38.5t26 58.5t8.5 73t-8.5 72.5t-26 58t-45 38.5t-65.5 14t-65.5 -14t-45 -38.5t-26 -58t-8.5 -72.5zM42 242q0 53 13.5 99t41.5 79.5t71 53t102 19.5t102 -19.5t71 -53t41.5 -79.5t13.5 -99t-13.5 -99
t-41.5 -80t-71 -53.5t-102 -19.5t-102 19.5t-71 53.5t-41.5 80t-13.5 99zM321 704l46 -63l-168 -99l-26 37z" />
    <glyph glyph-name="ocircumflex" unicode="&#xf4;" horiz-adv-x="540" 
d="M125 242q0 -39 8.5 -73t26 -58.5t45 -38.5t65.5 -14t65.5 14t45 38.5t26 58.5t8.5 73t-8.5 72.5t-26 58t-45 38.5t-65.5 14t-65.5 -14t-45 -38.5t-26 -58t-8.5 -72.5zM42 242q0 53 13.5 99t41.5 79.5t71 53t102 19.5t102 -19.5t71 -53t41.5 -79.5t13.5 -99t-13.5 -99
t-41.5 -80t-71 -53.5t-102 -19.5t-102 19.5t-71 53.5t-41.5 80t-13.5 99zM415 545h-83l-62 85l-62 -85h-83l116 141h58z" />
    <glyph glyph-name="otilde" unicode="&#xf5;" horiz-adv-x="540" 
d="M125 242q0 -39 8.5 -73t26 -58.5t45 -38.5t65.5 -14t65.5 14t45 38.5t26 58.5t8.5 73t-8.5 72.5t-26 58t-45 38.5t-65.5 14t-65.5 -14t-45 -38.5t-26 -58t-8.5 -72.5zM42 242q0 53 13.5 99t41.5 79.5t71 53t102 19.5t102 -19.5t71 -53t41.5 -79.5t13.5 -99t-13.5 -99
t-41.5 -80t-71 -53.5t-102 -19.5t-102 19.5t-71 53.5t-41.5 80t-13.5 99zM422 662q0 -54 -22.5 -80t-64.5 -26q-22 0 -39 7.5t-31 17t-26.5 17t-26.5 7.5q-20 0 -27 -14.5t-7 -31.5h-60q0 106 89 106q21 0 38 -7.5t31.5 -17t27 -17t24.5 -7.5q20 0 26.5 13t6.5 33h61z" />
    <glyph glyph-name="odieresis" unicode="&#xf6;" horiz-adv-x="540" 
d="M125 242q0 -39 8.5 -73t26 -58.5t45 -38.5t65.5 -14t65.5 14t45 38.5t26 58.5t8.5 73t-8.5 72.5t-26 58t-45 38.5t-65.5 14t-65.5 -14t-45 -38.5t-26 -58t-8.5 -72.5zM42 242q0 53 13.5 99t41.5 79.5t71 53t102 19.5t102 -19.5t71 -53t41.5 -79.5t13.5 -99t-13.5 -99
t-41.5 -80t-71 -53.5t-102 -19.5t-102 19.5t-71 53.5t-41.5 80t-13.5 99zM123 611q0 20 13 35t38 15t38 -15t13 -35t-13 -35t-38 -15t-38 15t-13 35zM315 611q0 20 13 35t38 15t38 -15t13 -35t-13 -35t-38 -15t-38 15t-13 35z" />
    <glyph glyph-name="ugrave" unicode="&#xf9;" horiz-adv-x="558" 
d="M399 483h84v-483h-68l-16 82q-9 -15 -24 -31.5t-36 -30t-48.5 -22t-61.5 -8.5q-35 0 -63.5 10.5t-49 34t-32 60t-11.5 87.5v301h82v-301q0 -56 24.5 -87t64.5 -31q54 0 91.5 28t63.5 65v326zM376 579l-26 -37l-168 99l46 63z" />
    <glyph glyph-name="uacute" unicode="&#xfa;" horiz-adv-x="558" 
d="M399 483h84v-483h-68l-16 82q-9 -15 -24 -31.5t-36 -30t-48.5 -22t-61.5 -8.5q-35 0 -63.5 10.5t-49 34t-32 60t-11.5 87.5v301h82v-301q0 -56 24.5 -87t64.5 -31q54 0 91.5 28t63.5 65v326zM330 704l46 -63l-168 -99l-26 37z" />
    <glyph glyph-name="ucircumflex" unicode="&#xfb;" horiz-adv-x="558" 
d="M399 483h84v-483h-68l-16 82q-9 -15 -24 -31.5t-36 -30t-48.5 -22t-61.5 -8.5q-35 0 -63.5 10.5t-49 34t-32 60t-11.5 87.5v301h82v-301q0 -56 24.5 -87t64.5 -31q54 0 91.5 28t63.5 65v326zM424 545h-83l-62 85l-62 -85h-83l116 141h58z" />
    <glyph glyph-name="udieresis" unicode="&#xfc;" horiz-adv-x="558" 
d="M399 483h84v-483h-68l-16 82q-9 -15 -24 -31.5t-36 -30t-48.5 -22t-61.5 -8.5q-35 0 -63.5 10.5t-49 34t-32 60t-11.5 87.5v301h82v-301q0 -56 24.5 -87t64.5 -31q54 0 91.5 28t63.5 65v326zM132 611q0 20 13 35t38 15t38 -15t13 -35t-13 -35t-38 -15t-38 15t-13 35z
M324 611q0 20 13 35t38 15t38 -15t13 -35t-13 -35t-38 -15t-38 15t-13 35z" />
    <glyph glyph-name="yacute" unicode="&#xfd;" horiz-adv-x="555" 
d="M396 92q-9 -15 -24 -31.5t-35.5 -30t-47.5 -22t-61 -8.5q-35 0 -63.5 10.5t-48.5 34t-31.5 60t-11.5 87.5v291h82v-291q0 -56 24 -87t64 -31q54 0 91 28t62 65v316h84v-442q0 -123 -59.5 -182.5t-165.5 -59.5q-46 0 -91 13t-73 31l21 67q29 -17 63.5 -26.5t73.5 -9.5
q35 0 62.5 8t46 27.5t28.5 52t10 80.5v50zM328 704l46 -63l-168 -99l-26 37z" />
    <glyph glyph-name="ntilde" unicode="&#xf1;" horiz-adv-x="564" 
d="M159 0h-84v483h70l14 -72q9 13 25 27.5t37 26.5t47.5 20t56.5 8q78 0 122 -51.5t44 -140.5v-301h-82v301q0 54 -26 85t-73 31q-48 0 -86.5 -22t-64.5 -57v-338zM434 662q0 -54 -22.5 -80t-64.5 -26q-22 0 -39 7.5t-31 17t-26.5 17t-26.5 7.5q-20 0 -27 -14.5t-7 -31.5
h-60q0 106 89 106q21 0 38 -7.5t31.5 -17t27 -17t24.5 -7.5q20 0 26.5 13t6.5 33h61z" />
    <glyph glyph-name="igrave" unicode="&#xec;" horiz-adv-x="240" 
d="M162 0h-84v483h84v-483zM217 579l-26 -37l-168 99l46 63z" />
    <glyph glyph-name="iacute" unicode="&#xed;" horiz-adv-x="240" 
d="M162 0h-84v483h84v-483zM172 704l46 -63l-168 -99l-26 37z" />
    <glyph glyph-name="ccedilla" unicode="&#xe7;" horiz-adv-x="460" 
d="M278 425q-39 0 -68 -14t-48 -38.5t-28 -58t-9 -72.5t9 -73t28.5 -58.5t49 -38.5t70.5 -14q31 0 62.5 6.5t60.5 20.5l19 -62q-32 -17 -67.5 -25t-82.5 -8q-59 0 -102.5 19.5t-72.5 53.5t-43 80t-14 99t14 99t43.5 79.5t74 53t105.5 19.5q82 0 141 -31l-19 -63
q-55 26 -123 26zM258 -167h-91l83 129h55z" />
    <glyph glyph-name="Ccedilla" unicode="&#xc7;" horiz-adv-x="572" 
d="M365 606q-110 0 -172.5 -70t-62.5 -199q0 -127 61 -198t175 -71q38 0 75.5 7.5t70.5 23.5l22 -73q-37 -18 -78.5 -27t-91.5 -9q-83 0 -143 25t-99.5 70.5t-58.5 109.5t-19 142q0 76 21 140t61.5 110t100.5 71.5t137 25.5q53 0 91 -8t73 -24l-22 -72q-56 26 -141 26z
M328 -167h-91l83 129h55z" />
    <glyph glyph-name="uni007F" horiz-adv-x="500" 
 />
    <glyph glyph-name="uni00AD" unicode="&#xad;" horiz-adv-x="300" 
d="M10 282h280v-65h-280v65z" />
    <glyph glyph-name="afii61289" unicode="&#x2113;" horiz-adv-x="399" 
d="M199 159q0 -54 13.5 -74t48.5 -20q27 0 51 10l21 -66q-14 -8 -32.5 -13t-41.5 -5q-43 0 -70.5 10.5t-44 32t-23 53t-6.5 73.5v24l-76 -49l-29 41q28 17 54 35t51 40v219q0 119 36 173t97 54q54 0 87.5 -38.5t33.5 -118.5q0 -93 -43 -169.5t-127 -139.5v-72zM199 308
q50 45 70 106t20 126q0 52 -10 75t-30 23q-12 0 -21.5 -7.5t-16 -26.5t-9.5 -51.5t-3 -82.5v-162z" />
    <glyph glyph-name="Omega" unicode="&#x2126;" horiz-adv-x="752" 
d="M378 604q-104 0 -163 -62t-59 -175q0 -54 17.5 -102.5t43.5 -89t55.5 -71t53.5 -49.5v-55h-219v75h120q-22 19 -49 48t-51 67.5t-40.5 86.5t-16.5 105q0 69 21.5 124.5t61 95t96 61t127.5 21.5q70 0 127 -21.5t96.5 -61t61 -95t21.5 -124.5q0 -57 -16.5 -105t-40.5 -86.5
t-51 -67.5t-49 -48h120v-75h-219v55q24 19 53.5 49.5t55.5 71t43.5 89t17.5 102.5q0 113 -58.5 175t-159.5 62z" />
    <glyph glyph-name="estimated" unicode="&#x212e;" horiz-adv-x="818" 
d="M782 309h-610v-183q9 -11 31.5 -30t54 -37t70.5 -31.5t80 -13.5q43 0 81.5 12t69.5 29t53.5 36.5t33.5 34.5h72q-57 -69 -139 -104t-170 -35q-77 0 -145 24.5t-118.5 69t-80 106.5t-29.5 136q0 73 29.5 135t80 106.5t118.5 69.5t145 25t145 -24.5t118.5 -68.5t80 -104
t29.5 -131v-22zM646 519q-11 15 -33.5 34.5t-54 37t-69.5 29t-81 11.5q-41 0 -80 -13.5t-70.5 -31.5t-54 -37t-31.5 -30v-182h474v182z" />
    </font>
</defs>
</svg>
